<svg width="851" height="638" viewBox="0 0 851 638" fill="none" xmlns="http://www.w3.org/2000/svg">
<g clip-path="url(#clip0_82_62)">
<path d="M781.3 346.6L780.3 346.7L780.6 345.9L779.4 346.4L780.6 343.2C780.6 343.2 776.6 344.8 769.2 347.4C587.7 355.9 208 201.9 208 201.9L-2.30005 230.8C-3.50005 229.7 -4.70005 228.4 -5.80005 227.2L-4.90005 231C-5.20005 230.6 -5.50005 230.3 -5.80005 229.9L-5.50005 231.2H-5.80005L-5.30005 231.9L18.7999 329.5C18.7999 329.5 447.5 565.7 705.4 535.7L778.9 350L781.3 346.6Z" fill="url(#paint0_linear_82_62)"/>
<path d="M214.6 208.1C214.6 208.1 597.2 363.2 766.8 347.4L653.7 515.7L244.9 388.2L45 297.5L138.3 234.4L214.6 208.1Z" fill="#C51010"/>
<path opacity="0.1" d="M214.6 208.1C214.6 208.1 597.2 363.2 766.8 347.4L653.7 515.7L244.9 388.2L45 297.5L138.3 234.4L214.6 208.1Z" fill="black"/>
<path opacity="0.1" d="M220.7 254.8L322.6 277.8L114.8 314.6L66.2 271.2L220.7 254.8Z" fill="white"/>
<path opacity="0.1" d="M244.8 348.8L365.1 304.7L449.9 333L301.3 388.2L244.8 348.8Z" fill="white"/>
<path opacity="0.1" d="M410.5 398.7L542.6 362.6L660.3 394.8L535.4 436.9L410.5 398.7Z" fill="white"/>
<path d="M8.80005 236.3L214.6 208.1V258L42.3 283L8.80005 236.3Z" fill="#C51010"/>
<path opacity="0.1" d="M10.1001 239L214.6 208.1V258L42.3001 283L10.1001 239Z" fill="white"/>
<path d="M515.5 445.1C503.2 433 493.5 418.6 488.4 402.2C484.5 389.6 480.9 377.2 480.9 373.2C480.9 366.2 471.2 339.9 459.2 327.3C458.8 326.9 458.4 326.4 458 326.1C455.9 317.8 451.8 297 459 284.1C460.8 280.9 462.2 277.6 463.4 274.2C467.7 261 474.4 248.6 483 237.7C484.7 235.6 486.3 233.3 487.6 231C490.6 231.5 492.4 230.7 492 227.7C492 227.6 492 227.5 492 227.4C493.4 227.1 494.1 226.1 493.9 224.1C492.1 209.5 499.4 164 499.4 164C506.4 143.5 509.4 121.8 508.5 100.2C506.7 65.6 470 58.3 470 58.3L467 61.3C464.5 59.8 461.8 58.1 459 56.3C460.1 55.8 461 54.9 461.5 53.8C464.7 47.2 464.8 38.2 465.3 31C465.6 28.7 465.5 26.4 465 24.1C464.4 22.2 463.5 20.3 462.2 18.8C456.5 11.2 447.7 6.59999 438.2 6.19999C435.2 6.09999 432.1 6.39999 429.1 6.39999C423.5 6.39999 417.9 5.29999 412.3 5.79999C406.7 6.29999 400.8 8.69999 398.4 13.7C396.9 16.8 396.8 20.6 395 23.5C392.9 26.9 388.8 28.7 386.4 31.9C385.1 33.7 384.4 35.8 384.4 38C384.4 38.7 384.5 39.4 384.8 40.1C385.4 40.9 386.1 41.6 386.9 42.1C389.7 44.6 390.3 48.8 388.5 52C392.4 52.7 395.4 55.7 396.3 59.5C396.3 60.1 396.6 60.7 397 61.2C397.4 61.5 397.8 61.7 398.2 61.7C401.8 62.3 405.4 60.6 408.1 58.2C408.3 58.6 408.5 59 408.8 59.4C415.5 70.3 429.1 74.7 440.9 69.7C441.4 70.3 441.9 71 442.4 71.7C444.4 74.5 446.1 77.6 447.4 80.8L444.6 83.6C442.1 87.5 439.9 91.5 437.9 95.7C433.3 104.4 430 113.8 427.9 123.4C421.2 130 411 141.8 409.7 152.8C409.7 152.8 362 176.5 349.2 163.7C336.4 151 319.9 172.8 323.5 176.4C327.2 180 338.2 187.3 351 180.1H402.4C410.2 179.1 417.7 176.4 424.5 172.4C423.6 174.9 422.5 177.4 421.2 180C419.3 183.7 417.2 187.4 415.3 190.7C414.2 191.6 413.2 192.4 412.1 193.2C405.5 195.9 397.3 199.3 388.7 203C384 204 379.5 205.9 375.5 208.7C355.7 217.3 337.7 225.7 338.3 227.4C337 228.3 336.3 228.9 336.5 229.3C336.7 229.7 336.8 230.1 337.1 230.7C335.7 235.9 335.4 246.5 338.3 267.5C345.7 320.3 329.1 329.4 329.1 329.4C329.1 329.4 316.3 345.8 301.6 344C286.9 342.2 299.8 356.7 312.7 354.9C321.4 353.7 340 352.4 351.3 351.8C355.1 351.6 358 348.3 357.8 344.5C357.8 344.1 357.7 343.6 357.6 343.2C355.5 335.2 355.2 326.7 356.8 318.6C359.6 304.9 366.5 278.8 368.9 264.4V264.2C372.6 260.5 379.4 255.4 387.9 256.6C392.3 257.2 400.2 253.1 408.6 247.5C404.2 272.7 400.8 299.7 404.4 309.4C411.8 329.4 419.1 338.5 419.1 338.5C419.1 338.5 422.6 338.7 427.6 338.6L430 342.3L463.2 393.2C463.2 393.2 492.5 435.1 465 440.5C465 440.5 443 446 452.2 453.2C452.2 453.2 516.4 455 518.2 449.5C518.1 448.3 517.1 446.7 515.5 445.1Z" fill="url(#paint1_linear_82_62)"/>
<path d="M475.3 69.1C475.3 69.1 450.4 119 448.6 94C448.1 86.6 445.5 79.5 441.1 73.4C436.5 67.1 430.5 61.9 423.6 58.3C423.6 58.3 437.9 31.6 436.1 38.7C435.2 42.4 445.4 50.2 455.7 57C465.5 63.6 475.3 69.1 475.3 69.1Z" fill="#FFB9B9"/>
<path d="M357.6 315.1C356.1 323.1 356.3 331.3 358.4 339.2C359.4 342.8 357.2 346.5 353.6 347.4C353.2 347.5 352.7 347.6 352.3 347.6C341.4 348.3 323.2 349.5 314.8 350.7C302.3 352.5 289.9 338.2 304.1 340C318.4 341.8 330.8 325.7 330.8 325.7C330.8 325.7 346.8 316.8 339.7 265.1C336.9 244.5 337.1 234.1 338.5 229.1C338.8 227.8 339.3 226.6 340.2 225.6C340.6 225.2 341.1 224.9 341.6 224.7C342.9 224.6 344.1 225 345 225.9C345 225.9 368.2 247.3 369.9 252.6C370.3 253.9 370 257.3 369.2 261.9C367 276.1 360.3 301.6 357.6 315.1Z" fill="#FFB9B9"/>
<path opacity="0.05" d="M357.6 315.1C356.1 323.1 356.3 331.3 358.4 339.2C359.4 342.8 357.2 346.5 353.6 347.4C353.2 347.5 352.7 347.6 352.3 347.6C341.4 348.3 323.2 349.5 314.8 350.7C302.3 352.5 289.9 338.2 304.1 340C318.4 341.8 330.8 325.7 330.8 325.7C330.8 325.7 346.8 316.8 339.7 265.1C336.9 244.5 337.1 234.1 338.5 229.1C338.8 227.8 339.3 226.6 340.2 225.6C340.6 225.2 341.1 224.9 341.6 224.7C342.9 224.6 344.1 225 345 225.9C345 225.9 368.2 247.3 369.9 252.6C370.3 253.9 370 257.3 369.2 261.9C367 276.1 360.3 301.6 357.6 315.1Z" fill="black"/>
<path d="M514.5 443.4C512.7 448.7 450.3 447 450.3 447C441.4 439.9 462.8 434.5 462.8 434.5C489.5 429.2 461 388.2 461 388.2L428.7 338.3L421.7 327.5C421.7 327.5 430.6 315 446.6 316.8C450.3 317.2 454.1 319.7 457.6 323.5C469.3 335.9 478.7 361.6 478.7 368.5C478.7 372.4 482.1 384.5 486 396.9C491 413 500.5 427 512.4 438.9C514 440.5 514.9 442 514.5 443.4Z" fill="#FFB9B9"/>
<path opacity="0.1" d="M369.4 262C367.7 263.5 366.1 265.1 364.7 266.9C351.6 265.3 341.5 236.4 338.6 229.1C338.4 228.5 338.2 228 338 227.7C337.9 227.4 338.6 226.6 340.2 225.6L341.6 224.7C342.9 224.6 344.1 225 345 225.9C345 225.9 368.2 247.3 369.9 252.6C370.6 254 370.2 257.4 369.4 262Z" fill="black"/>
<path d="M425.4 186.8C425.4 186.8 338.1 222.4 339.9 226C341.7 229.6 352.4 263.4 366.6 265.2C366.6 265.2 375.5 252.7 388 254.5C400.5 256.3 441.5 218.9 441.5 218.9L470 197.5L425.4 186.8Z" fill="#4C4C78"/>
<path opacity="0.05" d="M425.4 186.8C425.4 186.8 338.1 222.4 339.9 226C341.7 229.6 352.4 263.4 366.6 265.2C366.6 265.2 375.5 252.7 388 254.5C400.5 256.3 441.5 218.9 441.5 218.9L470 197.5L425.4 186.8Z" fill="black"/>
<path opacity="0.1" d="M459.2 329.3C459.2 336.7 440.3 338.1 428.7 338.3L421.7 327.5C421.7 327.5 430.6 315 446.6 316.8C450.3 317.2 454.1 319.7 457.6 323.5C458.5 327.1 459.2 329.3 459.2 329.3Z" fill="black"/>
<path d="M418.2 195.7C418.2 195.7 396.8 286.6 403.9 306.2C411 325.8 418.2 334.7 418.2 334.7C418.2 334.7 457.4 336.5 457.4 325.8C457.4 325.8 448.5 297.3 457.4 281.2C459.1 278.1 460.6 274.9 461.7 271.5C465.9 258.5 472.3 246.4 480.7 235.7C485 230.3 488.3 224.3 487.7 218.8C486 204.6 418.2 195.7 418.2 195.7Z" fill="#4C4C78"/>
<path d="M432.5 119C432.5 119 411.1 136.9 409.3 152.8C409.3 152.8 363 176 350.5 163.5C338 151 322 172.5 325.6 176C329.2 179.5 339.9 186.7 352.3 179.6H402.2C402.2 179.6 436.1 176 437.8 149.3C439.5 122.6 432.5 119 432.5 119Z" fill="#FFB9B9"/>
<path opacity="0.05" d="M432.5 119C432.5 119 411.1 136.9 409.3 152.8C409.3 152.8 363 176 350.5 163.5C338 151 322 172.5 325.6 176C329.2 179.5 339.9 186.7 352.3 179.6H402.2C402.2 179.6 436.1 176 437.8 149.3C439.5 122.6 432.5 119 432.5 119Z" fill="black"/>
<path opacity="0.1" d="M451.2 55.8001C451.7 54.7001 450.9 56.9001 451.2 55.8001C448.6 61.7001 447 71.1001 441.1 73.5001C436.5 67.2001 430.5 62.0001 423.6 58.4001C423.6 58.4001 437.9 31.7001 436.1 38.8001C435.1 42.5001 441 49.0001 451.2 55.8001Z" fill="black"/>
<path d="M454.8 48.5999C454.8 62.3999 443.6 73.4999 429.9 73.4999C416.2 73.4999 405 62.2999 405 48.5999C405 34.8999 416.2 23.6999 429.9 23.6999C443.6 23.5999 454.8 34.5999 454.8 48.2999C454.8 48.3999 454.8 48.4999 454.8 48.5999Z" fill="#FFB9B9"/>
<path opacity="0.1" d="M441.4 88.7L466.3 63.8C466.3 63.8 501.9 70.9001 503.7 104.8C504.6 126 501.6 147.1 494.8 167.2C494.8 167.2 487.7 211.8 489.5 226C491.3 240.3 443.2 204.6 443.2 204.6C443.2 204.6 404 211.7 405.8 206.4C407.6 201 429 170.8 425.4 160.1C423.9 155.5 424.3 145.3 425.3 135.2C427 118.6 432.5 102.7 441.4 88.7Z" fill="black"/>
<path d="M496.6 163.6C496.6 163.6 489.5 208.1 491.3 222.4C493.2 236.7 445 201 445 201C445 201 438.9 202.1 431.5 203.1C420.4 204.6 406.5 206 407.6 202.7C407.9 201.9 408.2 201.2 408.6 200.5C413.3 191.7 430.4 166 427.2 156.3C425.7 151.7 426.1 141.5 427.1 131.4C428.8 114.9 434.3 98.9999 443.2 85.0999L468.1 60.2C468.1 60.2 503.7 67.2999 505.5 101.2C506.5 122.3 503.5 143.5 496.6 163.6Z" fill="#CBCDDA"/>
<path opacity="0.1" d="M454.8 48.5999C454.8 52.0999 454.1 55.4999 452.7 58.5999C450.6 56.8999 448.7 54.7999 447.3 52.4999C445.2 49.1999 442.9 45.9999 440.4 42.9999C439.9 42.1999 439.1 41.5999 438.2 41.2999C436.6 40.7999 434.9 42.2999 434.4 43.9999C434.1 45.6999 434.1 47.3999 434.4 49.0999C434.7 50.7999 434.2 52.5999 433.1 53.8999C431 55.8999 427.5 54.4999 425.1 52.8999C422.7 51.2999 419.6 49.4999 417.1 50.7999C416.1 51.3999 415.3 52.1999 414.7 53.1999C412.9 56.0999 410.8 58.7999 408.5 61.3999C401.4 49.5999 405.2 34.2999 417 27.1999C428.8 20.0999 444.1 23.8999 451.2 35.6999C453.5 39.6999 454.8 44.0999 454.8 48.5999Z" fill="black"/>
<path d="M463.5 33.4999C463.8 31.1999 463.7 28.9999 463.2 26.6999C462.6 24.7999 461.7 22.9999 460.5 21.4999C455 14.0999 446.4 9.5999 437.2 9.0999C434.2 8.9999 431.3 9.2999 428.3 9.2999C422.9 9.2999 417.4 8.1999 412 8.6999C406.6 9.1999 400.9 11.5999 398.5 16.3999C397 19.4999 397 23.1999 395.2 26.0999C393.1 29.4999 389.1 31.1999 386.9 34.3999C385.6 36.1999 385 38.1999 385 40.3999C385 41.0999 385.1 41.7999 385.4 42.3999C385.9 43.1999 386.6 43.7999 387.4 44.2999C390.1 46.7999 390.7 50.7999 388.9 53.9999C392.7 54.6999 395.7 57.5999 396.5 61.3999C396.5 61.9999 396.8 62.5999 397.1 63.0999C397.5 63.3999 397.9 63.5999 398.3 63.5999C401.9 64.1999 405.5 62.4999 408.1 59.9999C410.7 57.4999 412.6 54.3999 414.7 51.3999C415.3 50.3999 416.1 49.5999 417 48.9999C419.6 47.5999 422.6 49.4999 425 51.0999C427.4 52.6999 430.9 54.0999 433 52.0999C434.1 50.7999 434.6 48.9999 434.3 47.2999C434 45.5999 434 43.8999 434.3 42.1999C434.8 40.4999 436.4 38.9999 438.1 39.4999C439 39.7999 439.7 40.3999 440.2 41.1999C442.7 44.1999 445 47.3999 447.2 50.6999C449.5 54.2999 456.4 62.6999 459.8 55.6999C462.9 49.2999 463.1 40.4999 463.5 33.4999Z" fill="#B96B6B"/>
<path opacity="0.1" d="M426.3 155.6C426.3 155.6 453 153.8 460.2 159.2C467.3 164.5 495.8 162.8 495.8 162.8" fill="black"/>
<path opacity="0.05" d="M486 145.8C486 145.8 477.1 163.6 477.1 169C477.1 174.4 470 181.5 470 181.5C470 181.5 449.9 192.6 431.6 203.2C420.5 204.7 406.6 206.1 407.7 202.8C408 202 408.3 201.3 408.7 200.6C427.7 189 454 156.4 454 156.4C454 140.4 462.9 111.8 462.9 111.8C462.9 111.8 484.3 101.1 491.4 111.8C498.5 122.5 486 145.8 486 145.8Z" fill="black"/>
<path opacity="0.1" d="M8.80005 232.4L32.5 328.4C32.5 328.4 445.4 555.9 693.9 526.9L766.2 344.1C766.2 344.1 588 416.1 398.8 383C391.6 381.7 384.4 380 377.3 377.9C320.8 361 46.5 277.2 8.80005 232.4Z" fill="black"/>
<path d="M8.80005 235L32.5 331C32.5 331 445.4 558.5 693.9 529.5L766.2 346.7C766.2 346.7 588 418.7 398.8 385.6C391.6 384.3 384.4 382.6 377.3 380.5C320.8 363.7 46.5 279.8 8.80005 235Z" fill="#C51010"/>
<path d="M151.857 5.38909L145.928 12.4243L407.532 232.874L413.461 225.838L151.857 5.38909Z" fill="#535461"/>
<path d="M459.2 108.3C459.2 108.3 450.3 136.9 450.3 152.8C450.3 152.8 412.9 199.1 395 200.9C377.2 202.7 366.5 213.4 373.6 216.9C380.7 220.5 389.6 225.8 400.3 216.9C411 208 466.2 177.7 466.2 177.7C466.2 177.7 473.3 170.6 473.3 165.2C473.3 159.9 482.2 142 482.2 142C482.2 142 494.7 118.8 487.5 108.1C480.6 97.6 459.2 108.3 459.2 108.3Z" fill="#FFB9B9"/>
<path opacity="0.1" d="M480.6 79.8001C480.6 79.8001 448.5 76.2001 453.9 122.6C453.9 122.6 475.3 110.1 493.1 122.6C493.1 122.6 500.2 88.7001 480.6 79.8001Z" fill="black"/>
<path d="M480.6 76.3001C480.6 76.3001 448.5 72.7001 453.9 119.1C453.9 119.1 475.3 106.6 493.1 119.1C493.1 119 500.2 85.2001 480.6 76.3001Z" fill="#CBCDDA"/>
<path d="M156.7 17.1001L146.2 545.3" stroke="#535461" stroke-width="2" stroke-miterlimit="10"/>
<path d="M122.3 550.3C122.3 550.3 90.1999 569.6 110.5 612.4" stroke="#FFE4C0" stroke-width="4" stroke-miterlimit="10"/>
<path d="M137.3 557.8C137.3 557.8 105.2 577.1 125.5 619.9" stroke="#FFE4C0" stroke-width="4" stroke-miterlimit="10"/>
<path d="M171.2 554.1C171.2 554.1 203.3 573.4 183 616.2" stroke="#FFE4C0" stroke-width="4" stroke-miterlimit="10"/>
<path d="M159.4 564.8C159.4 564.8 191.5 584.1 171.2 626.9" stroke="#FFE4C0" stroke-width="4" stroke-miterlimit="10"/>
</g>
<defs>
<linearGradient id="paint0_linear_82_62" x1="387.773" y1="538.273" x2="387.773" y2="201.895" gradientUnits="userSpaceOnUse">
<stop stop-color="#808080" stop-opacity="0.25"/>
<stop offset="0.54" stop-color="#808080" stop-opacity="0.12"/>
<stop offset="1" stop-color="#808080" stop-opacity="0.1"/>
</linearGradient>
<linearGradient id="paint1_linear_82_62" x1="406.214" y1="453.658" x2="406.214" y2="5.495" gradientUnits="userSpaceOnUse">
<stop stop-color="#808080" stop-opacity="0.25"/>
<stop offset="0.54" stop-color="#808080" stop-opacity="0.12"/>
<stop offset="1" stop-color="#808080" stop-opacity="0.1"/>
</linearGradient>
<clipPath id="clip0_82_62">
<rect width="850.4" height="637.8" fill="white"/>
</clipPath>
</defs>
</svg>
