<svg width="851" height="638" viewBox="0 0 851 638" fill="none" xmlns="http://www.w3.org/2000/svg">
<path d="M719.4 360.2H152.1V378.5H240.5V552.3L259.4 551.4L258.8 378.5H603.4V552.3L621.3 557L621.7 378.5H719.4V360.2Z" fill="#E6E6E6"/>
<path d="M720.5 305.4H153.2V323.7H720.5V305.4Z" fill="#E6E6E6"/>
<path d="M720.5 259.7H153.2V278H720.5V259.7Z" fill="#E6E6E6"/>
<path d="M720.5 213.9H153.2V232.2H720.5V213.9Z" fill="#E6E6E6"/>
<path d="M719.4 360.2H152.1V378.5H240.5V552.3L259.4 551.4L258.8 378.5H603.4V552.3L621.3 557L621.7 378.5H719.4V360.2Z" fill="#E6E6E6"/>
<path d="M720.5 305.4H153.2V323.7H720.5V305.4Z" fill="#E6E6E6"/>
<path d="M720.5 259.7H153.2V278H720.5V259.7Z" fill="#E6E6E6"/>
<path d="M720.5 213.9H153.2V232.2H720.5V213.9Z" fill="#E6E6E6"/>
<path d="M298.1 167.1L224 184L192.7 125L256.1 100.2L298.1 167.1Z" fill="#2F2E41"/>
<path d="M559 208.5H346.6V216.6H559V208.5Z" fill="#3F3D56"/>
<path d="M521.1 181.4H517.3C518 180.2 518.4 178.8 518.4 177.3V163.8C518.4 159.3 514.8 155.7 510.3 155.7H507.1C507.4 154.8 507.6 153.9 507.6 153V139.5C507.6 135 504 131.4 499.5 131.4H407.5C403 131.4 399.4 135 399.4 139.5V153C399.4 153.9 399.6 154.8 399.9 155.7H396.7C392.2 155.7 388.6 159.3 388.6 163.8V177.3C388.6 178.7 389 180.1 389.7 181.4H385.9C381.4 181.4 377.8 185 377.8 189.5V203C377.8 207.5 381.4 211.1 385.9 211.1H521.2C525.7 211.1 529.3 207.5 529.3 203V189.5C529.2 185 525.5 181.4 521.1 181.4Z" fill="#EE0E00"/>
<path d="M504.8 133.4C504.8 130 481.8 127.3 453.4 127.3C425 127.3 402 130 402 133.4C402 135.1 407.7 136.6 416.9 137.7V143.2C416.9 144.1 417.7 144.9 418.6 144.9H419.3C420.2 144.9 421 144.1 421 143.2V138.1C423.1 138.3 425.4 138.5 427.8 138.7V143.2C427.8 144.1 428.6 144.9 429.5 144.9H430.2C431.1 144.9 431.9 144.1 431.9 143.2V138.9C438.1 139.2 445 139.4 452.2 139.5C452.2 139.6 452.2 139.7 452.2 139.8V145.9C452.2 146.8 453 147.6 453.9 147.6H454.6C455.5 147.6 456.3 146.8 456.3 145.9V139.8C456.3 139.7 456.3 139.6 456.3 139.5C462.5 139.5 468.5 139.3 473.9 139V144.6C473.9 145.5 474.7 146.3 475.6 146.3H476.3C477.2 146.3 478 145.5 478 144.6V138.8C483.7 138.4 488.7 137.9 492.9 137.4V141.9C492.9 142.8 493.7 143.6 494.6 143.6H495.3C496.2 143.6 497 142.8 497 141.9V136.7C501.8 135.7 504.8 134.6 504.8 133.4Z" fill="#E6E6E6"/>
<path d="M507.5 154.3H399.3V157H507.5V154.3Z" fill="#3F3D56"/>
<path d="M517 180H389.8V182.7H517V180Z" fill="#3F3D56"/>
<path d="M527.9 204.4H380.4V207.1H527.9V204.4Z" fill="#3F3D56"/>
<path d="M454.8 109.7H450.7V132.7H454.8V109.7Z" fill="#E6E6E6"/>
<path d="M458.5 106.8C458.5 111.4 455.9 111.5 452.8 111.5C449.7 111.5 444.4 110.6 447.1 106.8C449.9 102.8 454.6 95.2 452.8 94.8C452.8 94.8 458.5 102.2 458.5 106.8Z" fill="#DA4626"/>
<path opacity="0.5" d="M454.8 109.7C454.8 111.5 453.8 111.6 452.5 111.6C451.2 111.6 449.2 111.2 450.2 109.7C451.3 108.1 453.2 105.1 452.5 104.9C452.5 104.9 454.8 107.8 454.8 109.7Z" fill="#FF6584"/>
<path d="M477.8 111.1H473.7V134.1H477.8V111.1Z" fill="#E6E6E6"/>
<path d="M481.5 108.2C481.5 112.8 478.9 112.9 475.8 112.9C472.7 112.9 467.4 112 470.1 108.2C472.9 104.2 477.6 96.6 475.8 96.2C475.8 96.2 481.5 103.6 481.5 108.2Z" fill="#DA4626"/>
<path opacity="0.5" d="M477.8 111C477.8 112.8 476.8 112.9 475.5 112.9C474.2 112.9 472.2 112.5 473.2 111C474.3 109.4 476.2 106.4 475.5 106.2C475.5 106.3 477.8 109.2 477.8 111Z" fill="#FF6584"/>
<path d="M433.2 111.1H429.1V134.1H433.2V111.1Z" fill="#E6E6E6"/>
<path d="M436.9 108.2C436.9 112.8 434.3 112.9 431.2 112.9C428.1 112.9 422.8 112 425.5 108.2C428.3 104.2 433 96.6 431.2 96.2C431.1 96.2 436.9 103.6 436.9 108.2Z" fill="#DA4626"/>
<path opacity="0.5" d="M433.2 111C433.2 112.8 432.2 112.9 430.9 112.9C429.6 112.9 427.6 112.5 428.6 111C429.7 109.4 431.6 106.4 430.9 106.2C430.9 106.3 433.2 109.2 433.2 111Z" fill="#FF6584"/>
<path d="M680.5 183.7L609.3 170.8C604.3 151.1 597.5 130.2 608.5 112.3C611.7 98.8001 626.2 95.0001 640.8 91.6001C655.5 88.3001 671.1 93.5001 680 105.7C686.3 114.3 688 123 685.4 133.8C692.5 144.4 689.1 170 680.5 183.7Z" fill="#2F2E41"/>
<path d="M573.9 591.9L542.9 570.7L583.6 428.6L626.6 357.6L547.1 406L551.3 500.6L511.2 520.9L500.5 403.6C499.1 388.7 506.6 374.3 519.6 366.8L585.2 329.2L590.4 275.2L662.8 264.1C690.8 300.2 705.7 333.3 692.8 360.2L627.5 444.3L573.9 591.9Z" fill="#2F2E41"/>
<path d="M558.7 576.5C558.7 576.5 553.2 565.4 547.4 568.9C541.6 572.4 526.4 588.5 526.4 588.5C526.4 588.5 498.3 596.5 517.7 604.4C537.1 612.3 544 610.7 544.4 609.1C544.8 607.5 549 603.6 549 603.6L556.4 607L568 606.5C568 606.5 579.5 579.1 574.5 579.1C569.5 579.1 559.2 581.5 558.7 576.5Z" fill="#2F2E41"/>
<path d="M530.7 507.4C530.7 507.4 518.3 506 518.2 512.7C518.1 519.4 523.1 541 523.1 541C523.1 541 514.5 568.9 531.7 557C548.9 545.1 551.3 538.3 550.2 537.2C549.1 536.1 548.1 530.4 548.1 530.4L555 526.1L560.9 516.1C560.9 516.1 544.1 491.5 541.5 495.6C538.9 499.7 535.1 509.7 530.7 507.4Z" fill="#2F2E41"/>
<path d="M661.079 132.269C663.877 117.734 654.364 103.683 639.829 100.884C625.294 98.0847 611.242 107.599 608.443 122.133C605.644 136.668 615.158 150.72 629.693 153.519C644.228 156.318 658.28 146.804 661.079 132.269Z" fill="#A0616A"/>
<path d="M650.1 214.4L584.3 214C591.5 195.2 599.2 177.9 612.8 177.9C623.5 167.9 622.4 154.5 617.3 139.9L650.8 144C649.2 153.7 651.5 161.6 659.9 166.9C651.3 183.3 646.6 199.3 650.1 214.4Z" fill="#A0616A"/>
<path d="M684.4 296.6L593.1 303.4L586.2 260.6C567.1 242.4 569.4 224 587 205.6L593.4 181.8L607.5 177.5C603.1 184.3 605 193.5 611.9 197.9C615.2 200 619.2 200.8 623 200L628.1 198.9C632 198.1 635.3 195.8 637.5 192.5L656 163.8L665.7 165C667.9 165.3 669.8 166.9 670.2 169.2L679.2 211.5C667.9 228 684.5 274.1 684.4 296.6Z" fill="#B52100"/>
<path d="M603 344.3L612.2 360.9C615.7 367.2 613.4 375.2 607.1 378.7C606.6 379 606.2 379.2 605.7 379.4C599 382.1 591.3 378.9 588.6 372.2C587.9 370.5 587.6 368.8 587.6 367L588 349.2L569 281L571 234L590.9 237.2L590.5 280.8L603 344.3Z" fill="#A0616A"/>
<path d="M656.1 330.3L647.5 347.2C644.2 353.7 646.8 361.5 653.3 364.8C653.8 365 654.3 365.2 654.8 365.4C661.6 367.9 669.1 364.4 671.6 357.6C672.2 355.9 672.5 354.1 672.4 352.3L671.3 334.6L687.9 265.8L684.2 218.9L664.4 222.8L666.4 266.4L656.1 330.3Z" fill="#A0616A"/>
<path d="M596.1 241.4L565.6 234.1L576.8 196.6C579.2 188.4 586 182.3 594.4 180.6L601.7 179.1L596.1 241.4Z" fill="#B52100"/>
<path d="M656.4 231.3L657 207.7L662.7 169.2C663.1 166.6 665.3 164.7 667.9 164.7C669 164.7 670 165 670.9 165.6L696.2 224.6C691.6 235.3 662.4 218.5 656.4 231.3Z" fill="#B52100"/>
<path d="M359.7 586.5L387.5 561.3L327.6 426.2L275.3 361.8L360.8 398.8L369.7 493L412.2 507.6L406.7 389.9C406 374.9 396.6 361.7 382.7 356.1L312.5 328L299.9 275.3L226.7 274.3C203.9 313.9 193.8 348.8 210.2 373.6L286.4 447.9L359.7 586.5Z" fill="#2F2E41"/>
<path d="M372.7 569.2C372.7 569.2 376.6 557.4 382.8 560.1C389 562.8 406.3 576.6 406.3 576.6C406.3 576.6 435.3 580.7 417.1 591.2C398.9 601.7 391.9 601 391.3 599.6C390.7 598.2 386 594.8 386 594.8L379.2 599.2L367.7 600.3C367.7 600.3 352.6 574.7 357.4 574C362.2 573.3 372.9 574.3 372.7 569.2Z" fill="#2F2E41"/>
<path d="M390.9 496.9C390.9 496.9 402.9 493.8 404 500.4C405.1 507 403 529.1 403 529.1C403 529.1 415.4 555.6 396.7 546.1C378 536.6 374.7 530.3 375.6 529C376.5 527.7 376.7 522 376.7 522L369.3 518.7L362.1 509.6C362.1 509.6 375.3 483 378.5 486.7C381.7 490.4 386.8 499.8 390.9 496.9Z" fill="#2F2E41"/>
<path d="M235.5 161.5C250.301 161.5 262.3 149.501 262.3 134.7C262.3 119.899 250.301 107.9 235.5 107.9C220.699 107.9 208.7 119.899 208.7 134.7C208.7 149.501 220.699 161.5 235.5 161.5Z" fill="#FFB9B9"/>
<path d="M232.4 223.2L297.6 213.8C287.9 196.2 277.8 180.1 264.4 181.9C252.4 173.5 251.7 160 254.7 144.8L222.1 153.5C225 162.9 223.9 171.1 216.2 177.4C226.9 192.5 233.8 207.7 232.4 223.2Z" fill="#FFB9B9"/>
<path d="M227.5 280.3C250.7 310.4 274.4 322.4 299.9 279.3L302 260C318.4 239.3 313.6 221.5 293.6 205.6L284 183L269.5 180.7C274.8 186.9 274.2 196.2 268 201.6C265 204.2 261.2 205.4 257.3 205.2L252.1 204.8C248.2 204.5 244.5 202.7 241.9 199.7L219.6 173.8L210.2 176.3C208 176.9 206.4 178.8 206.3 181L203.3 224.1C216.6 239 224.3 258 227.5 280.3Z" fill="#EE0E00"/>
<path d="M217.1 261.9L165.8 251.5L199.9 219.8L186.9 196.4L131.8 255C128.9 258.2 129.3 263.2 132.5 266C133.7 267.1 135.2 267.7 136.8 267.9L211.4 276.2L214.5 289.7C215.9 295.9 222 299.7 228.2 298.3C229.5 298 230.7 297.5 231.8 296.8C237.1 293.4 238.7 286.3 235.3 281C234.9 280.3 234.4 279.7 233.8 279.2L217.1 261.9Z" fill="#FFB9B9"/>
<path d="M296.8 345.3L290 363C287.4 369.8 290.8 377.3 297.5 379.9C298 380.1 298.5 380.2 299 380.4C306 382.2 313.1 377.9 314.9 370.9C315.3 369.2 315.4 367.4 315.1 365.6L312.2 348.1L321.7 278L313.2 231.7L293.9 237.6L300.3 280.7L296.8 345.3Z" fill="#FFB9B9"/>
<path d="M289.6 242.5L318.8 231.1L302.5 195.5C299 187.7 291.4 182.6 282.9 182.1L275.4 181.6L289.6 242.5Z" fill="#EE0E00"/>
<path d="M193.4 227.9L224.5 217.4L213.5 180.1C212.8 177.6 210.3 176 207.7 176.3C206.6 176.4 205.7 176.9 204.9 177.6L173.1 205.8C179.3 215.8 185.8 216.1 193.4 227.9Z" fill="#EE0E00"/>
<path d="M253.4 91.0999C253.4 91.0999 269.8 94.1999 273.6 114.7C274.2 118.2 274.3 121.7 273.9 125.2C273.5 129.1 274.1 137.5 282.6 147.3C288.2 153.7 293.4 160.3 298.2 167.3L281 171.9L273.3 143.5C269.6 129.7 263.9 116.6 256.3 104.4L256.1 104.1C256.1 104.1 250.4 119.3 235.1 121.4L239.8 115.2C239.8 115.2 221.9 125.5 211.8 128.7C208.3 129.8 206.3 133.5 207.4 137C207.8 138.3 208.6 139.4 209.6 140.2C209.7 140.3 209.7 140.3 209.8 140.4C217.2 146.1 232.4 159.5 226.4 172.6C220.4 185.7 227.4 188 227.4 188L214.5 183.1L208.6 180.6L209.2 185L180.4 185.6C180.4 185.6 172.6 185.6 186.4 164.8C186.4 164.8 189.7 157 187 151.1C184.8 146.6 183.7 141.6 183.8 136.6C185 115.5 193.8 72.8999 253.4 91.0999Z" fill="#2F2E41"/>
<path d="M611.1 106.1L635.9 121.9L638.2 117.4C653.2 128.2 650 155.9 642.7 187.3C642.7 187.3 668.9 196.9 672 187.3C677.5 170.2 673.1 129.8 673.1 129.8L664.1 106.1L649.4 98.1999L637 97.0999C637.1 97.0999 625.8 91.3999 611.1 106.1Z" fill="#2F2E41"/>
<path d="M649.5 141C651.378 141 652.9 138.985 652.9 136.5C652.9 134.015 651.378 132 649.5 132C647.622 132 646.1 134.015 646.1 136.5C646.1 138.985 647.622 141 649.5 141Z" fill="#A0616A"/>
<path d="M675.9 104.7L671.2 94.4001L667.5 86.2001L662.1 74.3001L658.4 66.1001L653.4 54.9001C653.1 54.3001 652.5 54.1001 651.9 54.3001C651.7 54.4001 651.6 54.5001 651.5 54.7001L646.3 61.9001L642.3 67.5001L636.5 75.6001L632.5 81.2001L626.7 89.3001L622.7 94.9001L619.7 99.1001C619.6 99.3001 619.5 99.4001 619.5 99.6001C619.5 99.8001 619.5 100 619.6 100.2C619.8 100.6 620.1 100.8 620.5 100.9L674.9 106.3C675.2 106.3 675.6 106.2 675.8 106L675.9 105.9C676 105.7 676.1 105.5 676.1 105.4C676 105.1 676 104.9 675.9 104.7Z" fill="#EE0E00"/>
<path d="M662.1 74.2999L642.2 67.4999L646.2 61.8999L658.4 66.0999L662.1 74.2999Z" fill="#E6E6E6"/>
<path d="M671.2 94.4001L632.4 81.3001L636.4 75.6001L667.5 86.2001L671.2 94.4001Z" fill="#E6E6E6"/>
<path d="M675.7 106C675.5 106.3 675.1 106.4 674.8 106.3L648.3 103.7L622.5 94.9999L626.5 89.3999L675.7 106Z" fill="#E6E6E6"/>
<path d="M652.9 58.8C657.87 58.8 661.9 54.7706 661.9 49.8C661.9 44.8295 657.87 40.8 652.9 40.8C647.929 40.8 643.9 44.8295 643.9 49.8C643.9 54.7706 647.929 58.8 652.9 58.8Z" fill="#EE0E00"/>
<path d="M258.4 93.1L252.7 83.3L248.2 75.5L241.7 64.2L237.2 56.4L231.1 45.8C230.8 45.3 230.1 45.1 229.5 45.4C229.3 45.5 229.2 45.6 229.1 45.8L224.6 53.5L221.2 59.5L216.2 68.1L212.8 74.1L207.8 82.7L204.4 88.7L201.8 93.1C201.7 93.3 201.6 93.5 201.6 93.7C201.6 93.9 201.7 94.1 201.7 94.3C201.9 94.7 202.3 94.9 202.7 94.9H257.4C257.7 94.9 258.1 94.7 258.3 94.5L258.4 94.4C258.5 94.2 258.5 94 258.5 93.8C258.6 93.5 258.5 93.3 258.4 93.1Z" fill="#EE0E00"/>
<path d="M241.7 64.2L221.2 59.5L224.7 53.5L237.2 56.4L241.7 64.2Z" fill="#E6E6E6"/>
<path d="M252.7 83.3001L212.8 74.1001L216.2 68.1001L248.2 75.5001L252.7 83.3001Z" fill="#E6E6E6"/>
<path d="M258.3 94.4C258.1 94.7 257.8 94.8 257.4 94.8H230.8L204.3 88.7L207.7 82.7L258.3 94.4Z" fill="#E6E6E6"/>
<path d="M230.1 49.7C235.071 49.7 239.1 45.6705 239.1 40.7C239.1 35.7294 235.071 31.7 230.1 31.7C225.13 31.7 221.1 35.7294 221.1 40.7C221.1 45.6705 225.13 49.7 230.1 49.7Z" fill="#EE0E00"/>
</svg>
