<svg xmlns="http://www.w3.org/2000/svg" viewBox="0 0 121.17 150.53"><defs><style>.cls-1{fill:#fe0000;}</style></defs><g id="Layer_2" data-name="Layer 2"><g id="Layer_1-2" data-name="Layer 1"><path class="cls-1" d="M119.85,128.6q-4.74-12.67-9.53-25.34l-2.25-6-7.51-20.21c-.29-.67-.49-1.1-.65-1.54q-3-7.94-6-15.9Q84.54,34.88,75.21,10.09A15.28,15.28,0,0,0,61.61,0c-6.09-.3-13.2,3.74-15.35,9.8C45.17,12.91,44,16,42.81,19Q33.24,44.35,23.68,69.67,14.82,93.22,6,116.77,3.39,123.72.84,130.68a13.49,13.49,0,0,0,.08,9.59,14.67,14.67,0,0,0,11.87,10c6.06,1.06,11.26-.76,15-5.85a31.47,31.47,0,0,0,2.74-5.55,4.45,4.45,0,0,1,2-2.49c7.62-3.87,15.2-7.84,22.79-11.77q10.63-5.53,21.28-11c1.25-.65,2.54-1.23,4-1.92.89,2.32,1.7,4.39,2.49,6.47,2.88,7.62,5.63,15.29,8.65,22.86,4.39,11,19.1,12.4,26.19,3.49C121.73,139.6,121.94,134.21,119.85,128.6ZM43,107.05l-.36-.38q8.88-23.61,17.78-47.21l.53,0c4,10.61,8,21.23,12.09,32.05Z"/></g></g></svg>