<svg xmlns="http://www.w3.org/2000/svg" viewBox="0 0 618.2 267.29"><defs><style>.cls-1{fill:#fe0000;}.cls-2{fill:#fff;}</style></defs><g id="Layer_2" data-name="Layer 2"><g id="Layer_1-2" data-name="Layer 1"><rect class="cls-1" width="618.2" height="267.29" rx="21.84"/><path class="cls-2" d="M206.61,127.68,164,149.75l2.25,6q4.77,12.67,9.53,25.35c2.09,5.61,1.88,11-2,15.83-7.09,8.92-21.8,7.51-26.19-3.49-3-7.56-5.77-15.23-8.65-22.85-.79-2.09-1.6-4.16-2.49-6.47-1.43.69-2.72,1.27-4,1.91q-10.65,5.5-21.28,11c-7.59,3.94-15.17,7.9-22.79,11.78a4.42,4.42,0,0,0-2,2.49,31.38,31.38,0,0,1-2.74,5.54c-3.69,5.1-8.89,6.91-15,5.85a14.64,14.64,0,0,1-11.87-10,13.51,13.51,0,0,1-.09-9.58q2.57-7,5.17-13.91,8.83-23.55,17.68-47.1,9.54-25.34,19.13-50.66c1.16-3.06,2.36-6.11,3.45-9.19,2.15-6.07,9.26-10.1,15.35-9.8a15.26,15.26,0,0,1,13.6,10.06q9.38,24.76,18.66,49.56,3,8,6,15.9c.17.44.37.87.66,1.54l2.7-1.25a22.44,22.44,0,0,1-2.69-20.71,20.5,20.5,0,0,1,10.82-12c9.32-4.53,24.1-2.87,30.67,12.52,1.07-.51,2.15-1,3.2-1.52,4.4-2.28,8.8-4.56,13.18-6.88a18.92,18.92,0,0,1,26.85,22.42q-7.29,22.59-14.61,45.16c-1.11,3.41-2.22,6.76-2.18,10.48.09,8.43,8.41,17.12,18.85,15.59,3-.44,6.41-1.87,7.81-3.63-1.74-2-3.54-3.85-5.19-5.87a47.77,47.77,0,0,1-10.84-26.68c-1.21-14.59,2.65-27.67,12.52-38.75A49.16,49.16,0,0,1,279,101.78a49.87,49.87,0,0,1,28.27,4.3,48.33,48.33,0,0,1,19.75,16.6,13.84,13.84,0,0,1,1.85,5.61c1.33,9.35-3.79,16.68-11.74,19.33-3,1-6,.7-9,.44-1.43-.12-1.88-1.09-2.32-2.33-2.64-7.36-7.68-12.3-15.34-14.14a20.24,20.24,0,0,0-16,2.73,21.12,21.12,0,1,0,30.35,26.81,5.25,5.25,0,0,0,.58-1.31c.41-2.74,2.37-2.91,4.59-3a16.89,16.89,0,0,1,11.66,3.52,15.81,15.81,0,0,1,6.54,13,31.81,31.81,0,0,1-.64,5.91c-.79,4.18-3.74,7-6.64,9.72A49.5,49.5,0,0,1,291,202.72c-8.7.81-17.24-.13-25.32-3.78a4.33,4.33,0,0,0-4,0,43.32,43.32,0,0,1-18.57,4,43.55,43.55,0,0,1-43.27-37.5c-.53-3.68-.08-7.49-.27-11.23-.21-4.48,1.87-8.37,3-12.48,1.32-4.59,2.93-9.1,4.41-13.64Zm-108,31.45.36.38,30-15.58c-4.09-10.82-8.09-21.43-12.09-32.05l-.54,0Zm74.43-38,9.28-4.84c-.81-2.38-2.14-3.94-4.53-4.26a5.05,5.05,0,0,0-5.49,2.57C171.06,116.77,171.23,118.88,173,121.15Z"/><path class="cls-2" d="M455.06,164c0,1.36,0,2.72,0,4.07a34,34,0,0,1-10.33,25,33.23,33.23,0,0,1-23.7,9.88,34.4,34.4,0,0,1-34.79-28.56,42.19,42.19,0,0,1-.58-7.11c-.06-8.87-.12-17.75,0-26.63a12.55,12.55,0,0,0-11.2-12.53,12.39,12.39,0,0,0-13.71,10.59,64.66,64.66,0,0,0-.64,8.57c-.06,13.6-.18,27.2,0,40.8.11,6.44-4.51,12.56-10.16,14.18-9.7,2.77-18.23-2.13-20.22-11.48a11.18,11.18,0,0,1-.16-2.39c0-37.67,0-75.34,0-113,0-7.91,7.25-14.73,14.68-14.68,6,0,10.52,2.19,13.76,7.14a12.86,12.86,0,0,1,2.09,7.25c0,10,0,20,0,30v3.1c2.09-.39,3.93-.81,5.8-1.06,13.64-1.84,25.79,1.38,36.24,10.59a42.94,42.94,0,0,1,13.72,23.61c.95,4.31.85,8.9.84,13.36,0,9.11-.28,18.23-.43,27.35,0,1.88.43,2.75,2.22,3.16a8.79,8.79,0,0,0,3.95-.1,2.85,2.85,0,0,0,2.22-3.21c-.11-5.12,0-10.24,0-15.36,0-16.72.14-33.44-.06-50.15-.08-7.35,6.74-14.74,14.65-14.68,6,0,10.54,2.12,13.79,7.07a12.33,12.33,0,0,1,2.09,7c0,7.6,0,15.2,0,22.8v2.27c4.31-15.11,13.12-26.52,27.06-33.8,9.52-5,19.77-6.33,30.28-4.89,22.88,3.14,38.06,21,41.5,36.75l-7.3,3.95q-19.56,10.5-39.11,21c-6.76,3.6-13.35,3.1-19.71-1.08-.39-.27-.8-.52-1.58-1a19.92,19.92,0,0,0,1,2c6.06,9.22,17.1,12.59,27.05,7.73,4.58-2.23,8.87-5.09,13.33-7.57,3.28-1.83,6.59-3.62,10-5.25a18.41,18.41,0,0,1,15.33-.43c2.31.92,2.59,1.57,2.12,4.05a50.55,50.55,0,0,1-43.78,40.67c-15,1.63-28.29-2.34-39.73-12.27a50,50,0,0,1-15.58-25.05c-.15-.53-.32-1.05-.49-1.57Zm29.24-8.35c1.83-1.38,3.39-2.74,5.13-3.81,2-1.25,4.21-2.26,6.34-3.35,6.59-3.4,13.19-6.77,19.78-10.17,1-.54,2-1.19,3.07-1.81-5.06-5.23-14.95-7.13-23-3A20.91,20.91,0,0,0,484.3,155.64Z"/><path class="cls-2" d="M456.43,84.25c0,8.21-5.79,17.09-17.08,17.13-11,0-17.17-8.63-17.15-17.31a17.12,17.12,0,1,1,34.23.18Z"/></g></g></svg>