<?xml version="1.0" encoding="utf-8"?>
<!-- Generator: Adobe Illustrator 25.0.0, SVG Export Plug-In . SVG Version: 6.00 Build 0)  -->
<svg version="1.1" id="Layer_1" xmlns="http://www.w3.org/2000/svg" xmlns:xlink="http://www.w3.org/1999/xlink" x="0px" y="0px"
	 viewBox="0 0 88.1 85" style="enable-background:new 0 0 88.1 85;" xml:space="preserve">
<style type="text/css">
	.st0{opacity:0.2;}
	.st1{clip-path:url(#SVGID_2_);}
	.st2{opacity:0.7;}
	.st3{fill:#E2E1BE;}
</style>
<g class="st0">
	<g id="Layer_2_1_">
		<g id="Layer_1-2">
			<g>
				<defs>
					<rect id="SVGID_1_" width="88.1" height="85"/>
				</defs>
				<clipPath id="SVGID_2_">
					<use xlink:href="#SVGID_1_"  style="overflow:visible;"/>
				</clipPath>
				<g class="st1">
					<g class="st2">
						<path class="st3" d="M76.9,33.1c0.6,0,1.2,0,1.8,0.1c0.3,0,0.2-0.4,0-0.4l-1.7,0c0-0.1-0.1-0.2-0.2-0.2c0,0,0,0,0,0h-0.1
							c-0.6-0.7-0.5-1.8-0.8-2.7c-0.3-0.6-0.7-1.2-1.2-1.7c-0.8-0.7-2.4-1.5-3.2-0.3c-1.4,2.1,1.4,3.8,3.5,4.7
							c-2.2-0.1-4.3-0.5-6.3-1.3c0,0-0.1,0-0.1,0c0,0,0,0,0-0.1c-0.3-0.6-1-1.2-1.5-1.7c-0.3-0.4-0.7-0.7-1.1-0.9
							c-0.7-0.4-1.6-0.4-2.2,0.1c-0.1,0-0.1,0-0.2,0.1c-0.9,1,0.5,2,1.4,2.3c0.7,0.3,1.5,0.5,2.3,0.6c0.3,0,0.9,0.1,1.2-0.1
							c0,0,0.1,0.1,0.1,0.1c0.6,0.2,1.2,0.4,1.8,0.6c-1.5,0.2-3.2,0.8-4.1,1.9c-0.6,0.8-0.9,2.1,0,2.8l0,0c0.1,0.2,0.3,0.3,0.5,0.3
							c0,0,0.1,0,0.1,0c0.7,0,1.5-0.9,1.9-1.1c0.6-0.5,1.1-1.1,1.6-1.7c0.5-0.6,0.8-1.4,1.5-1.8c1.1,0.2,2.3,0.3,3.4,0.4
							c-1.1,0.3-2.1,0.9-2.8,1.7c-0.6,0.7-1.9,2.3-1.2,3.3c0.8,1.1,2.3,0.1,2.9-0.6C75.3,36.1,75.7,34.4,76.9,33.1z M73.2,34.5
							c0.7-0.6,1.5-0.9,2.3-1.2c-0.5,0.4-1,0.9-1.4,1.4c-0.1,0.1,0.1,0.3,0.2,0.2c0.5-0.7,1.1-1.2,1.8-1.7c0,0,0.1,0,0.1-0.1
							c-0.6,0.8-1,1.6-1.4,2.4c-0.5,0.9-1.4,2.6-2.7,2.5C70.2,38.1,72.7,34.9,73.2,34.5z M67.7,33.6c0.8-0.5,1.7-0.8,2.6-0.9
							c-0.6,0.3-1.1,0.7-1.6,1.2c0,0.1,0,0.1,0,0.2c0,0,0.1,0,0.2,0L69,34c0,0,0.1-0.1,0.1-0.1c0.5-0.6,1.2-1,2-1.2
							c-0.5,0.6-0.9,1.3-1.4,1.9c-0.2,0.2-2.1,2.2-2.8,2.3C65.2,36.1,66.7,34.2,67.7,33.6L67.7,33.6z M66.6,29.7
							c0.5,0.4,0.9,0.9,1.4,1.4c-0.5-0.2-1-0.5-1.5-0.8c-0.2-0.1-0.3,0.2-0.1,0.2c0.5,0.3,1,0.5,1.4,0.7c-0.4,0-0.9,0-1,0
							c-0.4-0.1-0.7-0.1-1.1-0.3c-0.5-0.2-2.4-0.9-1.9-1.7c0,0,0.1,0,0.1-0.1C64.7,28.4,65.9,29,66.6,29.7L66.6,29.7z M75.8,31
							c0.1,0.4,0.1,0.8,0.3,1.1c-0.7-0.6-1.3-1.2-1.8-1.8c-0.1-0.1-0.3,0-0.2,0.2c0.7,0.8,1.4,1.5,2.2,2.2c-1.3-0.4-2.4-1-3.5-1.8
							c-0.6-0.4-1.2-1-1.2-1.8c0-1.1,1.1-1.7,2-1.2C74.7,28.5,75.6,29.7,75.8,31L75.8,31z"/>
						<path class="st3" d="M66.7,14C66.7,14,66.7,13.9,66.7,14c-1.7-3.1-6.1-1.7-8.7-1.3c-0.1,0-0.2,0.1-0.2,0.2c0,0,0,0,0,0
							c0,0,0,0,0,0c-0.3,0.6-0.1,1.3,0.4,1.7c-0.5,0.7-0.7,1.3-0.6,2.2c0.2,0.9,0.7,1.6,1.5,2.1c0,0,0.1,0,0.1,0
							c0.2,0.7,0.5,1.3,0.9,1.8c-0.2,1.7,0.8,3.3,2.5,3.7c0,0,0,0,0.1,0c0,0.2,0.1,0.3,0.2,0.5c0,0.1,0,0.3,0.2,0.3
							c1.8-0.6,3.2-1.8,4.3-3.3c1-1.3,1.9-2.7,1.5-4.4c0-0.1,0-0.1-0.1-0.1c0.2-0.5,0.2-1.1,0-1.6c1.9-0.6,3.7-1.4,5.6-2.2l0.2,0
							c0.1,0,0.2,0,0.2-0.1c0.1,0,0.1-0.1,0.1-0.2c0.8-0.3,1.5-0.7,2.3-1.1c0.4-0.2,0.7-0.4,1.1-0.6c-1.7,1.8-3.3,3.6-3.8,6.2
							c0,0.1,0.1,0.2,0.2,0.3c0.1,0,0.1,0,0.2,0c0,0,0,0,0.1,0c1.3-0.7,2.4-1.7,3.1-2.9c0.5-0.9,1.2-2.5,1-3.6l0.1-0.1
							c0.1-0.1,0.1-0.2,0-0.2c1.5-1,2.7-2.4,3.1-4.3c0-0.3-0.4-0.3-0.4,0c-0.5,2.7-3,4.2-5.3,5.3c-0.5,0.3-1.1,0.5-1.7,0.8
							c-1.1-2-3.9-2.7-6-3.2c-0.1,0-0.2,0-0.3,0.2c-0.1,0.1-0.1,0.2-0.1,0.3c0,0,0,0,0,0c1.3,1.6,3.2,2.8,5.2,3.2
							c-1.7,0.7-3.3,1.3-5,1.9C68.2,14.7,67.5,14.2,66.7,14z M77.5,15.2c-0.6,1-1.5,1.8-2.6,2.4c0.6-2.2,1.9-3.8,3.4-5.4
							c-0.7,1.5-1.6,2.8-2.6,4.1c-0.1,0.1,0.1,0.3,0.2,0.1c1-1.3,1.9-2.7,2.6-4.1C78.5,13.3,77.9,14.5,77.5,15.2z M68.9,10.3
							c1.8,0.4,4.2,1.1,5.3,2.7L71,11.3c-0.2-0.1-0.3,0.1-0.1,0.2l3.2,1.7C72.1,12.8,70.3,11.8,68.9,10.3z M58.1,13.2
							C58.2,13.1,58.2,13.1,58.1,13.2c1.3-0.3,2.5-0.5,3.8-0.6c1.3-0.2,2.6-0.1,3.6,0.7c-1.9-0.4-3.8-0.2-5.7,0.1
							c-0.2,0-0.1,0.3,0.1,0.3c2-0.3,4-0.5,6,0c0,0,0,0,0.1,0c0.1,0.1,0.2,0.2,0.3,0.3c-2-0.4-4.7,0.5-6.2,1.2l-0.1,0
							C59.1,14.8,57.6,14.3,58.1,13.2z M58,16.8c-0.2-0.7,0.1-1.3,0.5-1.9c0.2,0.1,0.4,0.2,0.6,0.3c-0.2,0-0.4,0.1-0.5,0.1
							c-0.2,0-0.1,0.3,0.1,0.3c0.3-0.1,0.6-0.1,0.9-0.1c0,0,0.1,0,0.1,0h0.1c0,0,0,0,0,0l0,0l-1.5,0.7c-0.1,0-0.1,0.1-0.1,0.2
							c0,0.1,0.1,0.1,0.2,0.1l1.1-0.5c0,0.1-0.1,0.2-0.1,0.3l-1,0.8c-0.1,0.1,0,0.3,0.2,0.2l0.7-0.5c0,0.1-0.1,0.2-0.1,0.3
							c0,0-0.1,0-0.1,0.1L59,17h0l-0.3,0.2c-0.1,0.1,0,0.3,0.2,0.2l0.2-0.2c0,0.4,0,0.7,0,1.1C58.6,18,58.2,17.4,58,16.8z
							 M60.5,21.1c0.2,0.2,0.5,0.4,0.8,0.6c-0.1,0-0.2,0.1-0.3,0.2c-0.1,0.1,0.1,0.3,0.2,0.2c0.1-0.1,0.2-0.2,0.4-0.1
							c0,0,0.1,0,0.1,0l0.2,0.1c-0.2,0.1-0.4,0.2-0.7,0.3c-0.1,0.1,0,0.3,0.1,0.2c0.3-0.2,0.5-0.3,0.8-0.4c0,0,0,0,0.1,0
							c0.1,0,0.2,0.1,0.4,0.1c-0.2,0.1-0.4,0.3-0.7,0.4c-0.2,0.1,0,0.3,0.1,0.2c0.3-0.1,0.5-0.2,0.8-0.4c0,0.1,0,0.2-0.1,0.3
							c-0.2,0.2-0.4,0.3-0.6,0.4c-0.2,0.1,0,0.3,0.1,0.2c0.1-0.1,0.3-0.2,0.4-0.3c0,0.3,0,0.6,0,0.9C61.3,23.7,60.4,22.5,60.5,21.1z
							 M68.5,18.2C68.5,18.2,68.5,18.2,68.5,18.2c-1,2.3-2.9,3.8-4.8,5.1c-0.1,0.1,0,0.3,0.1,0.2c1.8-1.3,3.6-2.7,4.6-4.7
							c-0.2,1-0.8,2-1.5,2.8c-1,1.4-2.2,2.4-3.9,3c-0.3-0.7-0.3-1.6,0-2.3c1.6-0.6,3.1-1.6,4.2-2.9c0.4-0.5,0.8-1,1.1-1.6
							C68.5,18,68.5,18.1,68.5,18.2L68.5,18.2z M66.5,19.9c-1,1-2.2,1.7-3.5,2.2c-1-0.2-1.9-0.7-2.5-1.4c0-0.1,0-0.1-0.1-0.1
							c-1.2-1.4-1.3-3.5-0.3-5c0,0,0,0,0-0.1c2.1-0.9,6.2-2.1,7.9,0c-1.8-0.5-3.8-0.5-5.6,0c-0.2,0-0.1,0.3,0.1,0.3
							c1.8-0.5,3.7-0.5,5.5,0c-2.3,0.3-4.6,1.1-6.6,2.2c-0.2,0.1,0,0.3,0.1,0.2c2-1.1,4.3-1.9,6.6-2.2c-1.6,1.6-3.4,2.9-5.4,3.9
							c-0.2,0.1,0,0.3,0.1,0.2c2.1-1,4-2.4,5.7-4l0,0c-0.9,1.9-2.4,3.4-4.2,4.5c-0.1,0.1,0,0.3,0.1,0.2c1.8-1,3.2-2.5,4.1-4.3
							C68.7,17.6,67.3,19.1,66.5,19.9L66.5,19.9z"/>
						<path class="st3" d="M75.1,11.1c0.1,0.1,0.2,0.1,0.3,0c0,0,0,0,0,0c1.9-1.9,4.5-2.8,6.7-4.1c1.1-0.6,2.1-1.3,3-2.2l0.1-0.1
							c-2.6,4.4-5.4,8.6-8.4,12.8c-0.2,0-0.3,0.1-0.4,0.2l-1.3,0.7c-0.4-0.3-1.2,0.2-1.6,0.4c-1.2,0.7-1.9,2-2.5,3.2
							c0,0.1,0,0.2,0,0.2c-0.1,0.1-0.1,0.2,0,0.3c0,0,0.1,0.1,0.1,0.1c0.5,0.1,1,0.1,1.5-0.1c-0.2,0.8-0.2,1.6-0.2,2.5
							c0,0.1,0.1,0.2,0.2,0.2c0,0,0,0,0,0L73,25c0,0,0.1,0,0.1-0.1c0.1,0,0.1,0,0.2,0c0.7-0.3,1.3-0.6,1.9-1.1l0.5,0.7
							c0.1,0.1,0.2,0.1,0.3,0c0,0,0.1-0.1,0.1-0.1c1-1.3,2.1-2.9,1.3-4.6c0-0.1-0.1-0.1-0.1-0.1l0,0c0,0,0,0,0,0c0,0,0,0,0-0.1
							c0.1-0.4,0.2-0.8,0.2-1.2c0-0.3,0-0.5-0.1-0.8c3.6-5,6.9-10.2,9.9-15.5c-0.4,1.1-0.9,2.2-1.4,3.3c-0.9,1.7-1.6,3.5-2.2,5.4
							c-0.5,1.9-1,3.8-1.2,5.8c-0.3,1.6-0.3,3.3-0.1,4.9c0,0.2,0.3,0.2,0.4,0c0.1,0,0.1-0.1,0.1-0.1c1-3.8,4.1-6.7,5.3-10.4
							c1.1-3.2,1-6.7,0.3-10V0.8c0,0,0-0.1-0.1-0.1c-0.1-0.3-0.1-0.5-0.2-0.8c0-0.1-0.1-0.2-0.2-0.1c0,0,0,0-0.1,0
							c-0.1,0-0.1,0-0.2,0.1c0-0.1-0.1-0.1-0.2-0.1c-6.4-0.2-9.9,6-12.5,10.9C74.9,10.9,75,11,75.1,11.1
							C75.1,11.1,75.1,11.1,75.1,11.1z M72.6,22c-0.3,0.1-0.6,0.2-0.9,0.2l1-1.1c0.1-0.1-0.1-0.3-0.2-0.2c-0.4,0.4-0.7,0.8-1.1,1.2
							l0,0h-0.1c0,0,0,0,0,0c0.4-0.8,0.8-1.5,1.4-2.2c0.1-0.2,1.7-1.5,2.1-1.3l0,0c0,0-0.1,0-0.1,0C74,19,73.4,19.5,73,20.2
							c-0.1,0.1,0.2,0.3,0.2,0.1c0.3-0.4,0.6-0.8,1.1-1.1C73.6,20,73,21,72.6,22C72.7,22,72.7,22,72.6,22z M73.4,24.4l1.2-1.2
							c0.1-0.1-0.1-0.3-0.2-0.2l-1.3,1.3c0.3-0.6,0.6-1.1,0.9-1.7c0-0.1,0-0.1-0.1-0.2c-0.1,0-0.1,0-0.2,0.1l-1,1.9
							c-0.1-2.1,0.8-4.2,2.5-5.5l0.3,0.1c-0.1,0.1-0.2,0.2-0.3,0.3l-0.6,0.6c-0.1,0.1,0.1,0.3,0.2,0.2l0.4-0.4l0.2-0.2
							c0.1-0.1,0.1-0.1,0.2-0.2h0h0c0.1,0,0.1,0,0.1-0.1c0,0,0-0.1,0-0.1l0.1,0c0,0,0,0,0,0l-1.3,2.6c0,0.1,0,0.1,0.1,0.2
							c0.1,0,0.1,0,0.2-0.1l1.3-2.6c0,0,0,0,0-0.1l0.1,0l0,0c-0.1,0.6-0.2,1.2-0.4,1.7c-0.1,0.2,0.2,0.3,0.2,0.1
							c0.2-0.6,0.4-1.1,0.4-1.7c0.1,0.1,0.2,0.1,0.3,0.2c0,0,0,0,0,0.1C76.6,21.8,75.3,23.6,73.4,24.4z M76.1,23.5l0.1-0.2
							c0.1-0.2-0.2-0.3-0.2-0.1l-0.3,0.7l-0.3-0.3l0,0c0.9-0.9,1.4-2,1.6-3.2C77.3,21.5,76.8,22.6,76.1,23.5z M77,18.6
							c0,0.2,0,0.4-0.1,0.7c-0.1,0-0.2-0.1-0.2-0.1c-0.3-0.2-0.7-0.4-1-0.5l1.2-0.6C77,17.9,77,18.5,77,18.6z M87.5,11.5
							c-1,2.6-2.8,4.8-4.1,7.2c0.2-0.6,0.3-1.3,0.5-1.9c0-0.2-0.2-0.2-0.3-0.1c-0.3,1.1-0.5,2.1-0.8,3.2c0.1-0.7,0.2-1.4,0.3-2
							c0.3-1.2,0.8-2.3,1.4-3.4c0-0.1,0-0.1-0.1-0.2c-0.1,0-0.1,0-0.2,0.1c-0.5,1-1,2.1-1.3,3.2c-0.2,0.9-0.4,1.8-0.4,2.7
							c-0.1-1.4,0.1-2.7,0.3-4c0.3-1.9,0.7-3.7,1.2-5.5c0.6-1.9,1.5-3.7,2.3-5.5c0.6-1.3,1.2-2.7,1.5-4.1c0,0,0,0,0,0.1
							c-0.2,2.1-0.3,4.2-0.5,6.2c0,0.2,0.3,0.2,0.3,0l0.4-4.6c0,0.8,0,1.7-0.1,2.6c0,0.2,0.3,0.2,0.3,0c0-0.7,0.1-1.3,0.1-2
							C88.7,6,88.5,8.9,87.5,11.5z M87.4,0.3c0,0,0,0.1-0.1,0.1c-2.5,1.5-5,3.2-7.3,5c-0.1,0.1,0,0.3,0.1,0.2
							c2.2-1.7,4.4-3.3,6.8-4.7c-1.4,1.8-3.2,3.2-5.3,4c-0.2,0.1-0.1,0.3,0.1,0.3c2-0.8,3.7-2,5-3.6c-0.5,1.1-1.1,2.1-1.9,2.9
							c-0.9,1-2.2,1.8-3.4,2.4c-1.5,0.8-3.2,1.5-4.6,2.5c0.5-0.6,1.1-1.1,1.7-1.6c0.1-0.1,0-0.3-0.1-0.2c-0.8,0.6-1.5,1.4-2.2,2.1
							C77.1,8.4,78,7.1,79.1,6c0.1-0.1-0.1-0.3-0.2-0.2c-0.9,1-1.8,2-2.5,3.2C78.8,4.7,82,0.2,87.4,0.3z"/>
						<path class="st3" d="M87.4,3.1c-0.2,3.3-1.1,6.6-2.6,9.6c0,0.1,0,0.1,0.1,0.2c0.1,0,0.1,0,0.2-0.1c1.5-3,2.4-6.3,2.6-9.7
							C87.7,2.9,87.4,2.9,87.4,3.1z"/>
						<path class="st3" d="M64.8,74.9L64.8,74.9c0.3,0.4,1.4,0.1,1.7-0.1c0.6-0.3,0.9-0.8,0.9-1.5c1.2-0.6,2.5-1.1,3.7-1.5
							c-0.4,0.4-0.7,0.9-0.3,1.3c0,0,0,0.1,0.1,0.1l0,0h0h0h0c0,0,0.1,0,0.1,0c0.6-0.4,1.1-0.9,1.1-1.7c1.4-0.4,2.9-0.7,4.4-0.9
							L76.2,71c-0.3,0.2-0.6,0.4-0.9,0.6c-0.1,0-0.1,0-0.1,0.1l0,0.1c-1.5,1-2.9,2.1-4.3,3.2h0l-1.6,0.6c-0.1-0.8-0.8-1.3-1.6-1.2
							c-0.1,0-0.1,0-0.2,0c-0.1,0-0.1,0-0.1,0.1c-0.1,0-0.2,0.1-0.2,0.2c0,0,0,0.1,0,0.1c0.2,0.5,0.6,0.9,1.1,1.1L65.1,77
							c0,0,0,0,0,0c-0.1-0.2-0.3-0.4-0.5-0.5c-0.4-0.2-0.9-0.3-1.3-0.1c-0.1-0.1-0.2,0-0.3,0.1c0,0,0,0,0,0c-0.1,0.5,0.3,1,0.8,1.1
							c0,0,0.1,0,0.1,0c-0.2,0.4-0.3,0.8-0.1,1.3c0,0.1,0.1,0.1,0.1,0.1c0.1,0,0.1,0.1,0.2,0c0.4-0.2,0.8-0.5,1-0.8
							c0.1-0.2,0.2-0.5,0.1-0.7l4.6-1.6c-2.2,1.8-4.4,3.6-6.6,5.4c-1.4-0.1-2.3,0.7-3,1.8c-0.1,0.2,0.1,0.4,0.3,0.3
							c0,0.1,0.1,0.1,0.1,0.1c0.5,0.1,1.1,0.1,1.6-0.2c0.6-0.3,0.9-1,1.1-1.6c0,0,0,0,0-0.1c3.6-3,7.2-5.9,11-8.7
							c-2.1,2.7-4.3,5.3-6.8,7.7c-0.2-0.3-0.4-0.4-0.7-0.4c-0.6,0-1.2,0.3-1.6,0.7c-0.1,0-0.2,0.1-0.2,0.2c0,0,0,0.1,0,0.1
							c0,0.1,0.1,0.1,0.2,0.1c0.3,0.1,0.6,0.2,0.9,0.2c-0.3,0.1-0.6,0.2-1,0.3l0,0c-0.9-0.5-1.5,0.7-2.2,1.1c-0.2,0.1,0,0.5,0.2,0.3
							h0c0.9,0.2,2.1,0,2.2-1.1v0c0.3-0.1,0.7-0.2,1-0.4c-0.5,0.6-1.1,1.5-0.6,2.2c0.1,0.1,0.2,0.1,0.3,0.1c0,0,0.1-0.1,0.1-0.1
							c0,0,0.1,0,0.1,0c0.5-0.3,1-0.8,1.2-1.4c0.1-0.3,0.2-0.8-0.1-1c1-0.9,2-1.9,2.9-2.9c-0.3,0.6-0.3,1.3-0.1,1.9
							c0,0,0.1,0.1,0.1,0.1c0.1,0.1,0.2,0.1,0.3,0c0.5-0.5,0.8-1.1,0.8-1.8c0-0.3,0.1-1-0.1-1.4c1.5-1.7,2.9-3.4,4.2-5.3
							c0.4-0.3,0.9-0.6,1.3-0.9c3.2-2.2,6.5-4.5,8.9-7.6c-0.6,1.7-1.4,3.3-2.4,4.8c-0.3-0.3-0.8-0.3-1.2-0.2
							c-0.7,0.2-1.2,0.5-1.6,1.1l0,0c-0.1,0.1-0.1,0.2,0,0.3c0,0,0,0,0.1,0c0,0,0.1,0,0.1,0c0.6,0,1.3-0.1,1.9-0.3
							c-0.6,0.7-1.2,1.4-1.8,2.1c0,0,0,0.1-0.1,0.1c-1.6,1-3.1,2-4.5,3.1c-1-0.7-2.2,0.5-2.9,1.3c-0.1,0-0.2,0.1-0.2,0.2
							c0,0.1,0,0.1,0.1,0.2c0.6,0.3,1.4,0,2.1-0.4c-0.1,0.4-0.1,0.8,0,1.2c0,0.1,0,0.1,0,0.1l0,0c0,0.1,0.2,0.2,0.3,0.1
							c0.1,0,0.1-0.1,0.1-0.2c0.7-0.5,1.1-1.4,0.8-2.2v0c1.3-1,2.7-2,4.1-2.8c-0.1,0.9-0.4,1.8-0.9,2.6c-0.3-0.1-0.5-0.1-0.8,0
							c-0.5,0.1-1,0.4-1.3,0.8c-0.1,0.1,0,0.2,0,0.3c0.1,0,0.1,0.1,0.2,0h0c0.3,0.1,0.6,0.1,1,0.1L78,76.5c-1.2-0.2-1.7,1.1-2.3,2
							c-0.1,0.1,0,0.2,0,0.2c0,0,0,0,0.1,0c0,0.1,0.1,0.1,0.2,0.1c1.2,0,2.7-0.6,2.3-2.1c0,0,0,0,0,0l0.7-0.7c0,0.3,0,0.6,0.2,0.8
							c0.1,0.1,0.2,0.2,0.4,0.1c0.7-0.5,0.9-1.4,0.4-2.1c0,0,0,0,0,0c0,0,0-0.1,0-0.1c0.6-1,0.9-2,1-3.2l0,0l0,0
							c0.9-0.9,1.7-1.8,2.4-2.9l0,0c0,0,0.1-0.1,0.1-0.1c1.2-1.8,2.2-3.8,2.8-5.9c0,0,0-0.1,0-0.1c0.6-0.8,1-1.7,1.4-2.5
							c0-0.1,0-0.2-0.1-0.3c-0.1,0-0.2,0-0.2,0.1c-0.9,1.9-2.1,3.6-3.6,5.1c0,0-0.1,0-0.1,0c-1.1,0.3-2.2,0.6-3.2,1
							c0.2-0.5-0.4-0.9-0.8-1.1c-0.7-0.4-1.5-0.5-2.2-0.3c-0.1,0-0.2,0.1-0.1,0.2c0,0,0,0,0,0c0,0,0,0.1,0,0.1
							c0.2,0.4,0.6,0.6,1,0.8c0.4,0.2,0.8,0.4,1.2,0.5c-1.4,0.5-2.8,1.1-4.2,1.7c-0.9-0.9-2.6-0.3-3.5,0.2c0,0,0,0-0.1,0.1
							c-0.1,0.1-0.1,0.2,0,0.3c0,0,0,0,0.1,0c0.8,0.3,1.6,0.4,2.5,0.2c-0.4,0.4-0.6,0.9-0.6,1.5c0,0.1,0.1,0.2,0.2,0.2
							c0,0,0.1,0,0.1,0c0,0,0,0,0.1,0c0.8-0.4,1.6-1.1,1.5-2.1c2.4-1.1,5-2.1,7.6-2.8c-1.8,1.8-4,3.3-6.1,4.8c0,0-0.1,0-0.1,0
							c-2.2,0.2-4.3,0.7-6.4,1.3c-0.1-0.7-1-0.9-1.6-0.9c-0.1,0-0.1,0-0.2,0.1c-0.1,0-0.2,0.1-0.2,0.2c0,0,0,0,0,0.1
							c0.1,0.5,0.5,0.8,1,0.9c-0.8,0.3-1.7,0.7-2.5,1.1c-0.3-0.3-0.8,0-1.1,0.2c-0.6,0.4-1.2,0.9-1.5,1.5
							C64.5,74.8,64.6,74.9,64.8,74.9z M67.6,74.8c0.5-0.1,1,0.2,1.2,0.7c0,0,0,0.1,0,0.1C68.2,75.6,67.8,75.3,67.6,74.8z
							 M63.7,77.2c-0.2,0-0.4-0.2-0.4-0.4c0.2-0.1,0.5-0.1,0.7,0c0.2,0.1,0.3,0.1,0.5,0.2h0C64.3,77.2,64,77.2,63.7,77.2L63.7,77.2z
							 M64.1,78.6c-0.1-0.5,0.1-1,0.6-1.1c0,0.1,0.1,0.1,0.1,0.1C64.9,78,64.5,78.4,64.1,78.6L64.1,78.6z M60.6,83L60.6,83
							c0.6-0.8,1.3-1.5,2.3-1.5c-0.1,0.4-0.3,0.7-0.6,1.1C61.8,83.1,61.2,83.2,60.6,83L60.6,83z M65.5,81c0.2-0.1,0.4-0.3,0.6-0.4
							c0.1,0,0.8-0.2,0.9,0h0C66.7,81,66.1,81.2,65.5,81L65.5,81z M63.5,82.9c0.4-0.4,0.9-1,1.4-0.7C64.8,82.9,64.1,83,63.5,82.9
							L63.5,82.9z M66.6,82.9c-0.2,0.3-0.4,0.5-0.7,0.6c-0.1-0.6,0.6-1.4,1-1.8C67.2,81.9,66.7,82.8,66.6,82.9L66.6,82.9z
							 M70.8,78.9c-0.1,0.5-0.2,0.9-0.5,1.2c-0.2-0.7,0.1-1.5,0.5-2.1c0,0,0,0.1,0,0.1C70.8,78.3,70.8,78.6,70.8,78.9z M80.9,69.3
							c0.2-0.2,0.4-0.4,0.7-0.5c0.2-0.1,1-0.4,1.3-0.1C82.3,69,81.6,69.3,80.9,69.3L80.9,69.3z M73.6,76c0.5-0.6,1.4-1.5,2.1-1.1
							C75.2,75.4,74.3,76.1,73.6,76L73.6,76z M75.5,76.7c-0.1-0.6,0.1-1.1,0.6-1.5C76.1,75.7,75.9,76.3,75.5,76.7L75.5,76.7z
							 M78.1,75.4c0.1-0.1,0.3-0.2,0.4-0.3c0.3-0.1,0.6-0.2,0.8-0.2c0,0,0,0,0,0C79.1,75.4,78.6,75.5,78.1,75.4L78.1,75.4z
							 M76.2,78.5c0.4-0.7,0.8-1.7,1.7-1.6c0,0,0,0.1,0,0.1C78.2,78,77.1,78.4,76.2,78.5L76.2,78.5z M79.5,76.6
							c-0.2-0.4,0-0.9,0.2-1.3C80,75.8,79.9,76.3,79.5,76.6L79.5,76.6z M77.8,65c0.4-0.1,0.8-0.1,1.2,0c0.3,0.1,1.3,0.5,1.1,0.9l0,0
							c-0.4-0.1-0.8-0.2-1.2-0.3C78.6,65.5,78,65.3,77.8,65L77.8,65z M72.5,68.4c0.8-0.4,1.9-0.7,2.6-0.2
							C74.3,68.6,73.3,68.6,72.5,68.4L72.5,68.4z M74.2,69.9c0.1-0.6,0.6-1,1.1-1.3C75.2,69.2,74.7,69.6,74.2,69.9L74.2,69.9z
							 M71.7,72c-0.1,0.4-0.4,0.7-0.7,0.9C71,72.5,71.4,72.2,71.7,72L71.7,72z M69.1,71.2c0.4,0,1.1,0,1.2,0.5
							C69.9,71.6,69.3,71.5,69.1,71.2L69.1,71.2z M65.9,73.8c0.1-0.1,1-0.7,1.1-0.5c0,0.5-0.2,0.9-0.6,1.1c-0.4,0.2-0.8,0.3-1.2,0.3
							c0,0,0-0.1-0.1-0.1C65.3,74.3,65.6,74.1,65.9,73.8L65.9,73.8z"/>
						<path class="st3" d="M72.2,2.7c-1,2.1-1.5,4.5-1.3,6.8c0,0.1,0.1,0.2,0.2,0.2c0,0,0,0,0,0c0,0.1,0.1,0.2,0.2,0.1c0,0,0,0,0,0
							c5.1-1.5,6.5-7.1,6.5-11.8c0,0,0,0,0-0.1l0.1,0C78-2.1,78-2.2,78-2.3c0,0,0,0,0,0c0.1-0.2-0.2-0.3-0.2-0.1c0,0,0,0,0,0
							c0,0-0.1,0-0.1,0c-1,0.9-2.2,1.4-3.2,2.2C73.4,0.6,72.7,1.6,72.2,2.7z M77.5-1.4c0,0.7-0.1,1.4-0.2,2.1c0-0.5-0.1-1-0.1-1.5
							L77.5-1.4z M77.2-1.5c-0.1,0.1-0.1,0.2-0.2,0.3l-0.1,0c0,0-0.1,0-0.1,0l-0.6,0.2C76.7-1.1,77-1.3,77.2-1.5z M77.1,1.7
							C77.1,1.7,77.1,1.7,77.1,1.7c0,0.3-0.1,0.6-0.1,0.8c-0.2-0.8-0.3-1.7-0.3-2.5l0.1-0.2l0,0c0.1,0,0.1-0.1,0.1-0.1l0.1-0.1
							C77,0.3,77.1,1,77.1,1.7z M72.8,8.8c-0.1-0.6-0.1-1.3,0.1-1.9c0,0,0,0,0,0l0,0c0,0,0-0.1,0-0.1c0.1-0.2,0.2-0.4,0.3-0.6
							c0,0.8,0,1.6,0.1,2.3C73.3,8.5,73.1,8.6,72.8,8.8L72.8,8.8z M72.3,9.1c-0.1-0.3-0.1-0.6-0.1-0.9l0.4-0.7c-0.1,0.5,0,0.9,0,1.4
							L72.3,9.1z M71.3,7.7c0.4-0.1,0.8-0.3,1.1-0.5c-0.1,0.2-0.2,0.4-0.3,0.6l-0.8,0.4C71.3,8,71.3,7.8,71.3,7.7z M71.4,6.5
							C71.4,6.5,71.5,6.5,71.4,6.5l1.9-0.9l-0.5,1c-0.4,0.4-0.9,0.6-1.4,0.8C71.4,7.1,71.4,6.8,71.4,6.5L71.4,6.5z M71.7,5.1
							c0,0,0.1,0,0.1,0l2.4-1.2l-0.8,1.3l0,0l-2,1C71.5,5.8,71.6,5.4,71.7,5.1L71.7,5.1z M72.2,3.8C72.2,3.8,72.2,3.8,72.2,3.8
							l2.9-1.3c-0.2,0.3-0.4,0.7-0.6,1l-2.7,1.3C71.9,4.5,72,4.1,72.2,3.8L72.2,3.8z M73.7,5.5c0.3-0.5,0.6-1,0.8-1.5
							c-0.1,1.1-0.1,2.2,0,3.4c0,0,0,0,0,0C74.3,7.7,74,8,73.7,8.2C73.6,7.3,73.6,6.4,73.7,5.5L73.7,5.5z M74.8,3.6c0,0,0-0.1,0-0.1
							c0.1-0.3,0.3-0.5,0.4-0.8c0,1.1,0.1,2.2,0.4,3.3l0,0c-0.3,0.4-0.5,0.8-0.9,1.2C74.6,6,74.6,4.8,74.8,3.6L74.8,3.6z M75.5,2.3
							C75.5,2.3,75.5,2.3,75.5,2.3l0.3-0.6c0,1,0.1,2.1,0.4,3.1c-0.1,0.3-0.3,0.6-0.5,1C75.6,4.6,75.5,3.4,75.5,2.3z M76.2,1.1
							l0.3-0.6c0,0.9,0.2,1.7,0.4,2.6c0,0,0,0,0,0c-0.1,0.4-0.3,0.8-0.4,1.3C76.2,3.3,76,2.2,76.2,1.1L76.2,1.1z M76.4,0.1L76,0.9
							c-0.5,0.2-0.9,0.3-1.4,0.5c-0.3,0.1-0.6,0.3-0.9,0.4c-0.2,0.1-0.5,0.3-0.8,0.4C73,2,73.1,1.9,73.2,1.8
							C74.2,1.2,75.3,0.6,76.4,0.1z M72.8,2.4C72.8,2.5,72.8,2.5,72.8,2.4c0.4,0,0.9-0.4,1.3-0.5c0.6-0.3,1.1-0.5,1.7-0.7l-0.5,0.9
							l-3,1.3l0,0c0.1-0.2,0.2-0.4,0.2-0.5C72.6,2.7,72.7,2.6,72.8,2.4z M71.3,8.5l0.5-0.3c-0.2,0.3-0.3,0.6-0.5,0.9
							C71.3,8.9,71.3,8.7,71.3,8.5L71.3,8.5z M71.5,9.4c0.1-0.2,0.3-0.5,0.4-0.7C71.9,8.8,72,9,72,9.2C71.9,9.2,71.7,9.3,71.5,9.4
							L71.5,9.4z M75.1-0.2l0.3-0.2c0,0,0.1,0,0.1,0l1.4-0.5l-0.3,0.5l0,0c-0.1,0-0.1,0-0.1,0.1c-1,0.5-1.9,1-2.9,1.5
							C74,0.7,74.5,0.2,75.1-0.2z"/>
						<path class="st3" d="M78.2,22.3c-0.1,0-0.1,0.1-0.1,0.1c0,0-0.1,0.1-0.1,0.1c0.3,1.9,0.7,4.3,2,5.7c1.1,1.1,2.8,1.4,4.2,0.8
							c0,0,0,0,0,0c0.1,0,0.2,0,0.2-0.1c0,0,0,0,0,0c0.7-1.6,0.5-3.9-0.7-5.2C82.5,22.2,79.9,22,78.2,22.3z M83.1,23.5
							c0.2,1.5-0.1,3-0.2,4.4c-0.1,0-0.1-0.1-0.2-0.1c0.1-1.3,0.2-2.6,0.3-3.9c0-0.1-0.2-0.2-0.2,0c0,1.3-0.1,2.5-0.3,3.8
							c-0.1-0.1-0.1-0.1-0.2-0.2c0.1-1.5,0.1-2.9,0.1-4.4C82.6,23.2,82.9,23.4,83.1,23.5z M80.9,28.5c0.6-0.1,1.2-0.3,1.7-0.5
							l0.1,0.1C82.1,28.3,81.6,28.5,80.9,28.5L80.9,28.5z M82.2,23c0.1,1.4,0.1,2.9,0,4.3c-0.2-0.2-0.4-0.4-0.6-0.6
							c0.3-1.2,0.2-2.6,0.2-3.8c0,0,0,0,0,0l0,0C81.9,22.9,82,23,82.2,23z M79.5,27c0.4-0.1,0.9-0.1,1.3-0.2c0.1,0,0.1-0.2,0-0.2
							c-0.4,0-0.9,0.1-1.3,0.2c0,0-0.1,0-0.1,0.1c0-0.1,0-0.1-0.1-0.2l1.7-0.1h0l0,0.1c0,0,0,0,0,0.1c0,0.1,0,0.1,0.1,0.1
							c0,0,0,0,0.1,0l0,0c-0.6,0.1-1.2,0.2-1.7,0.3c0,0,0,0,0,0L79.5,27C79.5,27,79.5,27,79.5,27L79.5,27z M80.3,25.6
							c0,0,0.1,0,0.1,0c0.2,0.2,0.4,0.4,0.6,0.7c0,0,0,0,0,0l-1.7,0.1c-0.1-0.3-0.2-0.5-0.3-0.8C79.4,25.7,79.8,25.7,80.3,25.6
							L80.3,25.6z M81.2,22.7c0,1.1-0.1,2.2-0.3,3.3l-0.6-0.7c0.1-0.9,0.1-1.8,0.2-2.8C80.8,22.6,81,22.7,81.2,22.7L81.2,22.7z
							 M80.2,25.1L80.2,25.1c0-0.3,0-0.5,0.1-0.8C80.3,24.6,80.3,24.8,80.2,25.1z M81.4,26.5c0.1-0.6,0.2-1.1,0.2-1.7
							C81.6,25.4,81.6,26,81.4,26.5L81.4,26.5z M81.2,26.3C81.2,26.3,81.2,26.3,81.2,26.3c0.1-1.2,0.2-2.4,0.2-3.5l0.1,0
							C81.5,24,81.4,25.1,81.2,26.3L81.2,26.3z M80.4,22.5c0,0.5-0.1,0.9-0.1,1.4c0-0.1-0.2-0.1-0.2,0c0,0.3,0,0.6-0.1,0.9L80,24.8
							c0-0.2,0-0.5,0-0.7c0-0.5-0.1-0.9-0.1-1.4c0-0.1-0.2-0.1-0.2,0c0,0.3,0.1,0.7,0.1,1c0,0.3,0.1,0.5,0,0.8l-0.7-0.8
							c0,0,0,0,0-0.1l-0.4-1.1C79.3,22.5,79.8,22.5,80.4,22.5z M78.5,23.9c0.2,0,0.3,0,0.5,0.1c0.2,0.3,0.5,0.6,0.7,0.9c0,0,0,0,0,0
							c-0.2,0-0.4,0-0.6,0c-0.1,0-0.3,0-0.4,0C78.7,24.5,78.6,24.2,78.5,23.9z M78.3,22.6l0.2,0c0,0,0,0,0,0
							c0.1,0.2,0.2,0.5,0.3,0.7l-0.4-0.5L78.3,22.6z M78.8,23.7c-0.1,0-0.2,0-0.3,0c0-0.2-0.1-0.4-0.1-0.5
							C78.5,23.3,78.7,23.5,78.8,23.7L78.8,23.7z M78.8,25c0.1,0,0.2,0,0.2,0h0.4c0.2,0,0.3,0,0.5,0h0l0,0c0,0,0,0,0.1,0l0.1,0.1
							c0,0,0,0,0,0h-0.8c-0.1,0-0.1,0.2,0,0.2h0.2c0,0,0.1,0,0.1,0h0.6h0h0c-0.4,0-0.8,0.1-1.2,0.1l0,0h-0.1l-0.1-0.3
							C78.8,25.2,78.8,25.1,78.8,25L78.8,25z M80.5,28.2c0.6-0.1,1.1-0.3,1.7-0.4c0.1,0,0-0.2-0.1-0.2c-0.6,0.2-1.1,0.3-1.7,0.4
							c0,0,0,0,0,0c-0.2-0.1-0.3-0.3-0.4-0.5c-0.1-0.1-0.1-0.2-0.2-0.3c0.6-0.1,1.2-0.2,1.7-0.3c0,0,0.1,0,0.1,0
							c0.3,0.3,0.6,0.7,1,0.9c-0.6,0.2-1.1,0.4-1.7,0.5c0,0,0,0-0.1,0C80.6,28.3,80.5,28.3,80.5,28.2L80.5,28.2z M81.3,28.7
							c0.5-0.1,1.1-0.3,1.6-0.5c0.3,0.2,0.7,0.4,1.1,0.6C83.1,29.1,82.2,29.1,81.3,28.7L81.3,28.7z M84.2,28.7
							c-0.4-0.1-0.8-0.3-1.1-0.6c0.1-1.4,0.4-2.9,0.2-4.4C84.7,24.7,84.8,27.2,84.2,28.7L84.2,28.7z"/>
						<path class="st3" d="M47.4,57c0.2,0.2,1.9,1.5,2.3,2.1c-1-0.6-2-1.1-3.1-1.4c-0.2,0-0.2,0.2,0,0.3c1.1,0.3,2,0.7,2.9,1.3
							c-0.3,0-0.7,0.1-0.9,0.1l-2.8,0c-0.2,0-0.1,0.3,0,0.3l2,0h0.9h0.6c0.1,0,0.2,0,0.3,0c-1,0.7-2.1,1.1-3.3,1.4
							c-0.2,0-0.1,0.3,0,0.3c1.3-0.2,2.5-0.7,3.5-1.5c-0.4,0.9-1.2,1.5-2.1,1.8c-0.1,0-0.1,0.1-0.1,0.2c0,0.1,0.1,0.1,0.2,0.1
							c1-0.4,1.8-1.1,2.2-2.1l0,0c2.2,0.2,4.3,0.8,6.3,1.6c1,0.4,2,1,3,1.6c0.8,0.5,1.9,1.1,2.5,2c-2.7-0.7-5.4-1.1-8.2-1.2
							c0,0,0,0-0.1,0c-0.4-1.1-1.1-1.9-2.2-2.4c-0.2-0.1-0.3,0.2-0.1,0.2c0.8,0.4,1.4,1,1.8,1.8c-0.1-0.1-0.3-0.2-0.4-0.2
							c-0.6-0.3-1.2-0.6-1.8-0.8c-0.2-0.1-0.3,0.2-0.1,0.2c0.4,0.1,0.8,0.3,1.1,0.4c0.3,0.1,1,0.4,1.2,0.8c-0.8,0.2-1.6,0.2-2.3,0
							c-0.2,0-0.2,0.2,0,0.3c0.7,0.2,1.5,0.2,2.3,0c-0.6,0.6-1.4,1-2.2,1.2c-0.2,0-0.1,0.3,0.1,0.3c0.7-0.2,1.4-0.5,2-1
							c-0.4,0.8-1.1,1.4-1.9,1.7c-0.2,0-0.1,0.3,0.1,0.3c1.1-0.3,1.9-1.2,2.3-2.3c0.9,0.1,1.8,0.1,2.7,0.2l-1,0.7
							c-0.2-0.2-1.1-0.2-1.3-0.1c-0.2,0-0.1,0.3,0,0.3c0.2,0,0.3-0.1,0.5-0.1c0.1,0,0.2,0,0.3,0l0.1,0h0c-0.2,0.1-0.5,0.1-0.7,0.3
							c-0.1,0-0.1,0.1-0.1,0.2c0,0.1,0.1,0.1,0.1,0.1h0.1c0.1,0,0.1,0,0.1-0.1c0.1,0,0.2-0.1,0.2-0.1c0.1,0,0.1,0,0.2-0.1h0
							c-0.1,0.2-0.2,0.4-0.4,0.6c-0.1,0.1,0,0.3,0.2,0.2c0.2-0.2,0.4-0.4,0.5-0.7c0,0.1,0,0.2,0,0.3c0,0.1-0.1,0.5-0.3,0.5
							s-0.2,0.3,0,0.3c0.3,0,0.5-0.3,0.6-0.6c0.1-0.2,0.1-0.5,0-0.7l1.2-0.9c0,0,0,0,0-0.1c1.9,0.2,3.7,0.5,5.5,1
							c-1.7,1.4-3.6,2.7-5.5,3.8c-0.6-0.8-1.4-1.2-2.3-1.6c-0.2-0.1-0.3,0.2-0.1,0.2c0.7,0.3,1.4,0.7,1.9,1.2
							c-0.8-0.3-1.6-0.5-2.4-0.6c-0.2,0-0.2,0.3,0,0.3c0.9,0,1.7,0.2,2.5,0.6c-0.7,0-1.4,0.2-2.1,0.4C53.9,69.8,54,70,54.1,70
							c0.6-0.2,1.3-0.4,2-0.4c-0.3,0.7-0.6,1.6-1.2,2.1c-0.1,0-0.1,0.1,0,0.2c0,0.1,0.1,0.1,0.2,0c0.7-0.5,1-1.3,1.3-2.1
							c0,0.3,0.1,0.5,0.1,0.8c0,0.4-0.2,0.8-0.4,1.1c-0.1,0.1,0.1,0.3,0.2,0.2c0.2-0.3,0.4-0.6,0.5-1c0.1-0.4-0.1-0.9,0-1.3l0,0
							c0,0,0.1,0,0.1,0c1.9-1,3.6-2.2,5.3-3.5c-0.7,2.8-2,5.4-3.8,7.6c-0.2-0.2-0.5-0.3-0.7-0.5c-0.6-0.3-1.2-0.5-1.8-0.5
							c-0.2,0-0.2,0.3,0,0.3c0.4,0,0.9,0.1,1.3,0.3c0.3,0.1,0.7,0.3,1,0.5c-0.3-0.1-0.6-0.1-0.9-0.1c-0.9,0-1.8,0.2-2.5,0.7
							c-0.1,0.1,0,0.3,0.2,0.2c0.5-0.3,1-0.5,1.5-0.6c0.2,0,0.4-0.1,0.6-0.1c0.3,0,0.6,0.1,0.9,0.1c-1,0.4-2,1-2.8,1.7
							c-0.1,0.1,0,0.3,0.2,0.2c0.7-0.7,1.5-1.2,2.4-1.6l-2,2.3c-0.1,0.1,0.1,0.3,0.2,0.2l2.2-2.5c-0.1,1.2-0.5,2.3-1.2,3.2
							c-0.1,0.1,0.1,0.3,0.2,0.2c0.8-0.9,1.2-2.1,1.3-3.2c0.8,0.4,0.1,2.3-0.1,2.8c-0.1,0.2,0.2,0.3,0.2,0.1c0.3-0.8,1-2.7,0-3.2
							c2.1-2.4,3.5-5.2,4.2-8.3c0,0,0,0,0-0.1c3.4-2,7.3-3.1,10.4-5.5c0.2-0.2,0-0.5-0.2-0.3c-3,2.4-6.8,3.5-10.2,5.4c0,0,0,0-0.1,0
							c-0.4-0.9-1.4-1.4-2.2-2c-0.9-0.7-1.9-1.2-3-1.7l-0.2-0.1c0-0.1-0.1-0.1-0.1-0.2l0,0c-0.4-0.6-0.9-1.1-1.5-1.6
							c0.2-0.1,0.2-0.4,0.2-0.6c0-0.5-0.5-0.9-0.9-1.2c-0.1-0.1-0.3,0.1-0.2,0.2c0.2,0.2,0.4,0.4,0.6,0.5c0.1,0.1,0.2,0.3,0.2,0.5
							c0,0.1,0,0.1-0.1,0.2c0,0-0.1-0.1-0.1-0.1c-0.2-0.2-0.4-0.4-0.7-0.6c-0.1-0.1-0.3,0.1-0.2,0.2c0.1,0.1,0.3,0.2,0.4,0.3
							c0.1,0.1,0.2,0.2,0.3,0.3c-0.3,0-0.6-0.1-0.9-0.3c-0.1-0.1-0.3,0.1-0.2,0.2c0.3,0.2,0.5,0.3,0.8,0.3c-0.2,0.1-0.5,0.1-0.7,0
							c-0.2-0.1-0.3,0.2-0.1,0.2c0.4,0.1,0.8,0.1,1.1-0.1c0.6,0.4,1.1,0.9,1.4,1.4c-2.1-0.9-4.3-1.5-6.5-1.7l0,0
							c0.1-0.3,0-0.8-0.1-1.1c-0.2-0.8-0.6-1.4-1.2-2c-0.1-0.1-0.3,0.1-0.2,0.2c0.4,0.3,0.7,0.8,0.9,1.2c0.1,0.3,0.2,0.7,0.3,1
							c-0.5-0.8-2-1.9-2.3-2.1C47.5,56.7,47.3,56.9,47.4,57z"/>
						<path class="st3" d="M54.1,71.9c0-0.1,0-0.1-0.1-0.2c-0.1,0-0.1,0-0.2,0.1l0,0l0,0.1c0,0.1,0,0.1,0.1,0.2c0.1,0,0.1,0,0.2-0.1
							C54,72,54,72,54.1,71.9z"/>
						<path class="st3" d="M53.1,71.3L53.1,71.3c-0.1,0.1-0.2,0.1-0.1,0.2c0,0.1,0.1,0.1,0.2,0.1l0.1,0c0.1,0,0.1-0.1,0.1-0.2
							C53.2,71.3,53.2,71.3,53.1,71.3z"/>
						<path class="st3" d="M54.1,71.1l0-0.1c0-0.1,0-0.1-0.1-0.2c-0.1,0-0.1,0-0.2,0.1l0,0.1c0,0.1,0,0.1,0.1,0.2
							C54,71.2,54,71.1,54.1,71.1z"/>
						<path class="st3" d="M52.9,70.2L52.9,70.2c-0.1,0.1-0.2,0.1-0.1,0.2c0,0.1,0.1,0.1,0.2,0.1l0.1,0c0.1,0,0.1-0.1,0.1-0.2
							C53,70.2,52.9,70.2,52.9,70.2z"/>
						<path class="st3" d="M53.2,69.5L53.2,69.5C53,69.6,53,69.6,53,69.7s0.1,0.1,0.2,0.1l0.1,0c0.1,0,0.1-0.1,0.1-0.2
							C53.3,69.5,53.2,69.5,53.2,69.5z"/>
						<path class="st3" d="M52.2,69.5c0-0.1,0-0.1-0.1-0.2c-0.1,0-0.1,0-0.2,0.1l0,0.1c0,0.1,0,0.1,0.1,0.2c0.1,0,0.1,0,0.2-0.1
							L52.2,69.5z"/>
						<path class="st3" d="M52.8,68.9l0-0.2c0-0.2-0.3-0.2-0.3,0c0,0.1,0,0.1,0,0.2C52.5,69,52.8,69,52.8,68.9z"/>
						<path class="st3" d="M53.6,68c0-0.1,0-0.1-0.1-0.2c-0.1,0-0.1,0-0.2,0.1l0,0.1c0,0.1,0,0.1,0.1,0.2c0.1,0,0.1,0,0.2-0.1
							L53.6,68z"/>
						<path class="st3" d="M52.8,67.7c0-0.1,0-0.1,0-0.2c-0.1,0-0.1,0-0.2,0c0,0,0,0.1-0.1,0.1c0,0.1,0,0.1,0,0.2
							C52.6,67.9,52.7,67.9,52.8,67.7L52.8,67.7z"/>
						<path class="st3" d="M53.8,67L53.8,67c-0.1-0.1-0.1-0.2-0.2-0.1c-0.1,0-0.1,0.1-0.1,0.2l0,0.1c0,0.1,0.1,0.1,0.2,0.1
							C53.8,67.1,53.9,67.1,53.8,67z"/>
						<path class="st3" d="M50.1,66.1L50,66.1c-0.1,0-0.1,0.1-0.1,0.2c0,0.1,0.1,0.1,0.2,0.1l0.1-0.1c0.1,0,0.1-0.1,0.1-0.2
							C50.3,66.1,50.2,66,50.1,66.1z"/>
						<path class="st3" d="M50.8,66l0-0.1c0-0.1,0-0.1-0.1-0.2c-0.1,0-0.1,0-0.2,0.1l0,0.1c0,0.1,0,0.1,0.1,0.2
							C50.7,66.1,50.7,66,50.8,66z"/>
						<path class="st3" d="M50.7,66.7c0-0.1,0-0.1-0.1-0.2c-0.1,0-0.1,0-0.2,0.1l0,0.1c0,0.1,0,0.1,0.1,0.2c0.1,0,0.1,0,0.2-0.1
							L50.7,66.7z"/>
						<path class="st3" d="M50,65.2C50,65.1,50,65.1,50,65.2C49.9,65,49.9,65,49.8,65c-0.1,0-0.1,0.1-0.1,0.2l0,0l0,0.1
							c0,0.1,0.1,0.1,0.2,0.1C50,65.3,50,65.2,50,65.2z"/>
						<path class="st3" d="M49.2,64.5c0-0.3-0.5-0.1-0.3,0.1C49,64.7,49.1,64.7,49.2,64.5C49.2,64.6,49.2,64.5,49.2,64.5z"/>
						<path class="st3" d="M50.6,64.8l0-0.1c0-0.1,0-0.1-0.1-0.2s-0.1,0-0.2,0.1l0,0.1c0,0.1,0,0.1,0.1,0.2
							C50.5,64.9,50.6,64.8,50.6,64.8z"/>
						<path class="st3" d="M49.8,63.7c0-0.1,0-0.1-0.1-0.2c-0.1,0-0.1,0-0.2,0.1l0,0.1c0,0.1,0,0.1,0.1,0.2c0.1,0,0.1,0,0.2-0.1
							L49.8,63.7z"/>
						<path class="st3" d="M50.8,63.3l0-0.1c0-0.1,0-0.1-0.1-0.2c-0.1,0-0.1,0-0.2,0.1l0,0.1c0,0.1,0,0.1,0.1,0.2
							C50.7,63.4,50.8,63.4,50.8,63.3z"/>
						<path class="st3" d="M50,62.6c0-0.1,0-0.1-0.1-0.2c-0.1,0-0.1,0-0.2,0.1l0,0.1c0,0.1,0,0.1,0.1,0.2c0.1,0,0.1,0,0.2-0.1
							L50,62.6z"/>
						<path class="st3" d="M48.9,62.7c0-0.1,0-0.1-0.1-0.2c-0.1,0-0.1,0-0.2,0.1l0,0.1c0,0.1,0,0.1,0.1,0.2c0.1,0,0.1,0,0.2-0.1
							L48.9,62.7z"/>
						<path class="st3" d="M50.5,61.8l0-0.1c0-0.1,0-0.1-0.1-0.2c-0.1,0-0.1,0-0.2,0.1l0,0.1c0,0.1,0,0.1,0.1,0.2
							C50.4,61.9,50.4,61.9,50.5,61.8z"/>
						<path class="st3" d="M50.9,61.8c0,0.1,0,0.1,0.1,0.2c0.1,0,0.1,0,0.2-0.1l0-0.1c0-0.1,0-0.1-0.1-0.2c-0.1,0-0.1,0-0.2,0.1
							L50.9,61.8z"/>
						<path class="st3" d="M51.8,61c0,0.1,0.1,0.1,0.1,0.1c0.3,0,0.1-0.5-0.1-0.3C51.8,60.9,51.8,61,51.8,61z"/>
						<path class="st3" d="M51.8,62.1c0,0,0-0.1,0-0.1c0-0.1,0-0.1-0.1-0.2c-0.1,0-0.1,0-0.2,0.1l0,0.1c0,0.1,0,0.1,0.1,0.2
							C51.7,62.2,51.8,62.2,51.8,62.1z"/>
						<path class="st3" d="M55.2,74.8c0-0.1-0.1-0.1-0.2-0.1c-0.1,0-0.1,0.1-0.1,0.2c0,0.1,0.1,0.1,0.2,0.1
							C55.2,74.9,55.3,74.9,55.2,74.8z"/>
						<path class="st3" d="M54.4,75.6C54.4,75.5,54.4,75.5,54.4,75.6c-0.1-0.1-0.1-0.2-0.2-0.1c-0.1,0-0.1,0.1-0.1,0.2
							c0,0,0,0,0,0.1c0,0.1,0.1,0.1,0.2,0.1C54.4,75.7,54.5,75.6,54.4,75.6z"/>
						<path class="st3" d="M53.7,74.8C53.7,74.7,53.7,74.7,53.7,74.8c-0.1-0.1-0.1-0.2-0.2-0.1c-0.1,0-0.1,0.1-0.1,0.2l0,0l0,0.1
							c0,0.1,0.1,0.1,0.2,0.1C53.7,74.9,53.7,74.8,53.7,74.8z"/>
						<path class="st3" d="M54.6,75L54.6,75c-0.1-0.1-0.1-0.2-0.2-0.1c-0.1,0-0.1,0.1-0.1,0.2c0,0,0,0,0,0.1c0,0.1,0.1,0.1,0.2,0.1
							C54.6,75.1,54.6,75,54.6,75z"/>
						<path class="st3" d="M54.6,73.7L54.6,73.7c-0.1,0.1-0.1,0.1-0.1,0.2c0,0.1,0.1,0.1,0.2,0.1l0,0c0.1,0,0.1-0.1,0.1-0.2
							C54.7,73.7,54.7,73.6,54.6,73.7z"/>
						<path class="st3" d="M53.8,73.7c0-0.1,0-0.1-0.1-0.2c-0.1,0-0.1,0-0.2,0.1l0,0.1c0,0.1,0,0.1,0.1,0.2c0.1,0,0.1,0,0.2-0.1
							L53.8,73.7z"/>
						<path class="st3" d="M55.1,73L55.1,73C55,73.1,55,73.2,55,73.2c0,0.1,0.1,0.1,0.2,0.1l0.1,0c0.1,0,0.1-0.1,0.1-0.2
							C55.3,73,55.2,73,55.1,73z"/>
						<path class="st3" d="M54.6,72.8L54.6,72.8c-0.1,0.1-0.2,0.1-0.1,0.2c0,0.1,0.1,0.1,0.2,0.1l0.1,0c0.1,0,0.1-0.1,0.1-0.2
							C54.7,72.8,54.6,72.8,54.6,72.8z"/>
						<path class="st3" d="M55,76.3L55,76.3c-0.1-0.1-0.1-0.2-0.2-0.1c-0.1,0-0.1,0.1-0.1,0.2c0,0,0,0.1,0,0.1
							c0,0.1,0.1,0.1,0.2,0.1C55,76.5,55,76.4,55,76.3z"/>
						<path class="st3" d="M55.1,77.3c0-0.1-0.1-0.1-0.2-0.1c-0.1,0-0.1,0.1-0.1,0.2c0,0.1,0.1,0.1,0.2,0.1
							C55,77.5,55.1,77.4,55.1,77.3z"/>
						<path class="st3" d="M53.7,77.2c-0.1,0-0.1,0.1-0.1,0.2c0,0,0,0,0,0c0,0.1,0.1,0.1,0.1,0.1c0,0,0,0,0,0c0.1,0,0.1-0.1,0.1-0.2
							C53.8,77.2,53.8,77.2,53.7,77.2z M53.7,77.3L53.7,77.3z"/>
						<path class="st3" d="M54.6,76.8C54.6,76.7,54.6,76.7,54.6,76.8c-0.1-0.1-0.1-0.2-0.2-0.1c-0.1,0-0.1,0.1-0.1,0.2
							c0,0,0,0,0,0.1c0,0.1,0.1,0.1,0.2,0.1C54.6,76.9,54.6,76.8,54.6,76.8z"/>
						<path class="st3" d="M53.6,76.2L53.6,76.2c-0.1,0.1-0.2,0.1-0.1,0.2c0,0.1,0.1,0.1,0.2,0.1l0.1,0c0.1,0,0.1-0.1,0.1-0.2
							C53.7,76.2,53.7,76.1,53.6,76.2z"/>
						<path class="st3" d="M56.7,76.6C56.7,76.6,56.7,76.6,56.7,76.6c-0.1-0.1-0.1-0.2-0.2-0.1c-0.1,0-0.1,0.1-0.1,0.2
							c0,0,0,0,0,0.1c0,0.1,0.1,0.1,0.2,0.1C56.7,76.7,56.7,76.7,56.7,76.6z"/>
						<path class="st3" d="M56.9,78.5c0-0.1,0-0.1-0.1-0.2c-0.1,0-0.1,0-0.2,0.1l0,0l0,0.1c0,0.1,0,0.1,0.1,0.2c0.1,0,0.1,0,0.2-0.1
							l0,0L56.9,78.5z"/>
						<path class="st3" d="M55.2,78.4l0,0.1c0,0.1,0,0.1,0.1,0.2c0.1,0,0.1,0,0.2-0.1l0-0.1c0-0.1,0-0.1-0.1-0.2
							C55.3,78.3,55.3,78.4,55.2,78.4z"/>
						<path class="st3" d="M56.1,77.9c0.1-0.2-0.2-0.3-0.2-0.1c0,0,0,0.1,0,0.1C55.8,78,56,78.1,56.1,77.9L56.1,77.9z"/>
						<path class="st3" d="M57.1,78c0,0.1,0.1,0.1,0.1,0.1c0,0,0,0,0,0c0.1,0,0.1-0.1,0.1-0.2c0-0.1-0.1-0.1-0.2-0.1
							C57,77.8,57,77.9,57.1,78C57,78,57.1,78,57.1,78z M57.1,77.9L57.1,77.9L57.1,77.9z"/>
						<path class="st3" d="M58.1,79.3L58.1,79.3c0.1-0.1,0.2-0.1,0.1-0.2S58.2,79,58.1,79L58,79c-0.1,0-0.1,0.1-0.1,0.2
							C58,79.3,58.1,79.3,58.1,79.3z"/>
						<path class="st3" d="M58.7,78.2c0,0.1,0,0.1,0.1,0.2c0.1,0,0.1,0,0.2-0.1l0,0l0-0.1c0-0.1,0-0.1-0.1-0.2c-0.1,0-0.1,0-0.2,0.1
							C58.7,78.2,58.7,78.2,58.7,78.2z"/>
						<path class="st3" d="M58.6,77.3L58.6,77.3c0.1,0.1,0.1,0.2,0.2,0.1c0.1,0,0.1-0.1,0.1-0.2l0-0.1c0-0.1-0.1-0.1-0.2-0.1
							C58.7,77.2,58.6,77.3,58.6,77.3z"/>
						<path class="st3" d="M57.9,78L57.9,78c0.1,0.1,0.1,0.2,0.2,0.1c0.1,0,0.1-0.1,0.1-0.2l0-0.1c0-0.1-0.1-0.1-0.2-0.1
							C57.9,77.9,57.9,77.9,57.9,78z"/>
						<path class="st3" d="M47.2,62.5c0-0.1-0.1-0.1-0.2-0.1c-0.1,0-0.1,0.1-0.1,0.2c0,0.1,0.1,0.1,0.2,0.1
							C47.2,62.6,47.2,62.5,47.2,62.5z"/>
						<path class="st3" d="M47.8,62.2L47.8,62.2c-0.2,0-0.2,0.3,0,0.3h0C48,62.4,48,62.1,47.8,62.2z"/>
						<path class="st3" d="M47,62c0.1-0.2-0.2-0.3-0.2-0.1c0,0,0,0,0,0.1c0,0.1,0,0.1,0.1,0.2C46.9,62.1,47,62.1,47,62L47,62L47,62z
							"/>
						<path class="st3" d="M47.7,61.3L47.7,61.3c0-0.1-0.1-0.1-0.2-0.1c-0.1,0-0.1,0.1-0.1,0.2c0,0,0,0,0,0c0,0.1,0.1,0.1,0.2,0.1
							C47.7,61.4,47.7,61.3,47.7,61.3z"/>
						<path class="st3" d="M45.6,61.8L45.6,61.8c-0.1,0.1-0.2,0.2-0.1,0.2c0,0.1,0.1,0.1,0.2,0.1l0.1,0c0.1,0,0.1-0.1,0.1-0.2
							C45.7,61.8,45.6,61.8,45.6,61.8z"/>
						<path class="st3" d="M45.6,60.5L45.6,60.5c-0.1-0.1-0.2,0-0.2,0c0,0.1,0,0.1,0.1,0.2l0.1,0c0.1,0,0.1,0,0.2-0.1
							C45.7,60.7,45.6,60.6,45.6,60.5z"/>
						<path class="st3" d="M46.4,60.3L46.4,60.3c-0.1,0-0.2,0-0.2,0.1c0,0.1,0,0.1,0.1,0.2l0.1,0c0.1,0,0.1,0,0.2-0.1
							S46.5,60.4,46.4,60.3z"/>
						<path class="st3" d="M45.5,61.2c0-0.1-0.1-0.1-0.2-0.1c-0.1,0-0.1,0.1-0.1,0.2c0,0.1,0.1,0.1,0.2,0.1
							C45.5,61.3,45.5,61.3,45.5,61.2z"/>
						<path class="st3" d="M44.2,59.6c0-0.1-0.1-0.1-0.2-0.1c-0.1,0-0.1,0.1-0.1,0.2c0,0.1,0.1,0.1,0.2,0.1
							C44.2,59.8,44.2,59.7,44.2,59.6z"/>
						<path class="st3" d="M45.2,59.8c0-0.1-0.1-0.1-0.2-0.1c-0.1,0-0.1,0.1-0.1,0.2c0,0.1,0.1,0.1,0.2,0.1
							C45.2,59.9,45.2,59.9,45.2,59.8z"/>
						<path class="st3" d="M44.4,58.8L44.4,58.8c-0.1,0.1-0.2,0.1-0.1,0.2c0,0.1,0.1,0.1,0.2,0.1l0.1,0c0.1,0,0.1-0.1,0.1-0.2
							C44.6,58.8,44.5,58.8,44.4,58.8z"/>
						<path class="st3" d="M46,58.9L46,58.9c0.1,0,0.1-0.1,0.1-0.2c0-0.1-0.1-0.1-0.2-0.1h0c-0.1,0-0.1,0.1-0.1,0.2
							S45.9,58.9,46,58.9L46,58.9z"/>
						<path class="st3" d="M45.2,57L45.2,57c-0.1-0.1-0.1-0.1-0.2-0.1C45,57,44.9,57,45,57.1l0,0c0,0.1,0.1,0.1,0.2,0.1
							C45.2,57.2,45.2,57.1,45.2,57z"/>
						<path class="st3" d="M44.4,56.2L44.4,56.2c0.1-0.1,0.1-0.1,0.1-0.2c0-0.1-0.1-0.1-0.2-0.1l0,0c-0.1,0-0.1,0.1-0.1,0.2
							C44.3,56.2,44.4,56.2,44.4,56.2z"/>
						<path class="st3" d="M46.2,56.5c0-0.1-0.1-0.1-0.2-0.1c-0.1,0-0.1,0.1-0.1,0.2c0,0.1,0.1,0.1,0.2,0.1
							C46.2,56.7,46.2,56.6,46.2,56.5z"/>
						<path class="st3" d="M45.1,57.7C45.1,57.7,45.1,57.7,45.1,57.7c0,0.1,0.1,0.1,0.2,0.1c0.1,0,0.1-0.1,0.1-0.2l0,0
							c0-0.1-0.1-0.1-0.2-0.1C45.1,57.5,45.1,57.6,45.1,57.7z"/>
						<path class="st3" d="M46.1,57.9c0-0.1-0.1-0.1-0.2-0.1c-0.1,0-0.1,0.1-0.1,0.2c0,0.1,0.1,0.1,0.2,0.1
							C46.1,58.1,46.1,58,46.1,57.9z"/>
						<path class="st3" d="M47.2,57.1c0-0.1-0.1-0.1-0.2-0.1c-0.1,0-0.1,0.1-0.1,0.2c0,0.1,0.1,0.1,0.2,0.1
							C47.2,57.3,47.2,57.2,47.2,57.1z"/>
						<path class="st3" d="M47,55.6c-0.1,0.1,0.1,0.3,0.2,0.2l0.1-0.1C47.4,55.6,47.2,55.4,47,55.6C47,55.6,47,55.6,47,55.6z"/>
						<path class="st3" d="M48.5,56.8c0-0.1-0.1-0.1-0.2-0.1c-0.1,0-0.1,0.1-0.1,0.2c0,0.1,0.1,0.1,0.2,0.1
							C48.5,56.9,48.6,56.9,48.5,56.8z"/>
						<path class="st3" d="M49.6,56.2L49.6,56.2c0,0.1,0.1,0.1,0.2,0.1c0.1,0,0.1-0.1,0.1-0.2c0,0,0,0,0,0c0-0.1-0.1-0.1-0.2-0.1
							C49.6,56.1,49.6,56.1,49.6,56.2z"/>
						<path class="st3" d="M48.6,55.6L48.6,55.6c0.1,0,0.1-0.1,0.1-0.2c0-0.1-0.1-0.1-0.2-0.1l0,0c-0.1,0-0.1,0.1,0,0.2
							C48.5,55.6,48.5,55.6,48.6,55.6z"/>
						<path class="st3" d="M48.4,53.6L48.4,53.6c0,0.3,0.3,0.3,0.3,0.1v-0.1C48.7,53.5,48.4,53.4,48.4,53.6z"/>
						<path class="st3" d="M47.3,55c0,0.1,0.1,0.1,0.2,0.1c0.1,0,0.1-0.1,0.1-0.2c0-0.1-0.1-0.1-0.2-0.1
							C47.4,54.8,47.3,54.9,47.3,55L47.3,55z"/>
						<path class="st3" d="M54.1,53.6c0,0.1,0.1,0.1,0.2,0.1c0.1,0,0.1-0.1,0.1-0.2c0-0.1-0.1-0.1-0.2-0.1
							C54.1,53.5,54.1,53.5,54.1,53.6z"/>
						<path class="st3" d="M53.9,66c0-0.1,0-0.1-0.1-0.2c-0.1,0-0.1,0-0.2,0.1l0,0c0,0.1,0,0.1,0.1,0.2C53.8,66.1,53.8,66.1,53.9,66
							L53.9,66z"/>
						<path class="st3" d="M54.1,66.3c-0.1-0.1-0.2,0.1-0.2,0.2c0,0.1,0.2,0.2,0.3,0C54.2,66.4,54.2,66.3,54.1,66.3z M53.9,66.4
							L53.9,66.4C53.9,66.4,53.9,66.4,53.9,66.4L53.9,66.4z M53.9,66.5L53.9,66.5C53.9,66.5,53.9,66.5,53.9,66.5L53.9,66.5z"/>
						<path class="st3" d="M54.7,66.9C54.7,66.9,54.7,66.8,54.7,66.9c0.1-0.2-0.1-0.3-0.2-0.1l0,0C54.3,66.9,54.6,67,54.7,66.9z"/>
						<path class="st3" d="M53.6,65.3L53.6,65.3c0,0-0.1-0.1-0.1-0.1c-0.1,0-0.1,0-0.2,0.1c0,0,0,0.1,0,0.1l0,0c0,0.1,0.1,0.1,0.2,0
							C53.6,65.4,53.6,65.3,53.6,65.3L53.6,65.3z"/>
						<path class="st3" d="M54.5,57.8L54.5,57.8c0.1,0,0.1-0.1,0.1-0.2c0-0.1-0.1-0.1-0.2-0.1h0c-0.1,0-0.1,0.1-0.1,0.2
							C54.3,57.8,54.4,57.8,54.5,57.8z"/>
						<path class="st3" d="M54.4,58.3c0-0.1-0.1-0.1-0.2-0.1c-0.1,0-0.1,0.1-0.1,0.2c0,0.1,0.1,0.1,0.2,0.1
							C54.4,58.4,54.4,58.3,54.4,58.3z"/>
						<path class="st3" d="M53.2,58.2L53.2,58.2c0.1,0,0.1-0.1,0.1-0.2c0-0.1-0.1-0.1-0.2-0.1l0,0h0c-0.1,0-0.1,0.1-0.1,0.2
							C53.1,58.2,53.1,58.2,53.2,58.2L53.2,58.2z"/>
						<path class="st3" d="M53.7,59L53.7,59c0.1,0,0.2,0,0.2-0.1c0-0.1,0-0.1-0.1-0.2l0,0h0c-0.1,0-0.1,0-0.2,0.1S53.6,59,53.7,59
							L53.7,59z"/>
						<path class="st3" d="M53.8,59.6c0-0.1-0.1-0.1-0.2-0.1c-0.1,0-0.1,0.1-0.1,0.2c0,0.1,0.1,0.1,0.2,0.1
							C53.8,59.7,53.8,59.6,53.8,59.6z"/>
						<path class="st3" d="M57.5-4.6c0.2,0.2,0.4,0.3,0.6,0.4c0.7,0.5,1.4,1.1,2,1.7c0.7,0.7,1.1,1.6,1.7,2.3
							c0.7,0.9,1.8,1.4,2.9,1.4c-6.5,3.3-11.9,8.9-16.9,14l0,0h0c0-0.8-0.6-1.5-1.3-1.7c-1.5-0.5-3.8,0.3-4.7-1.3
							c-0.1-0.2-0.5-0.1-0.4,0.2c0.1,0.2,0.2,0.3,0.3,0.4c0,0.1,0,0.1,0,0.2c0.1,0.1,0.3,0.3,0.4,0.4c-0.1,0.1-0.2,0.3-0.2,0.4
							c0,0,0,0,0,0c0-0.1-0.1-0.1-0.2-0.1c0,0,0,0,0,0c0,0,0,0-0.1,0c0,0-0.1-0.1-0.1-0.1c0,0-0.1-0.1-0.1-0.1h0h-0.1c0,0,0,0-0.1,0
							c0.1-0.1,0.2-0.2,0.3-0.2c0.1-0.1,0-0.3-0.1-0.2c-0.2,0.1-0.4,0.3-0.6,0.5c-0.1,0.1,0.1,0.3,0.2,0.1c0,0,0.1-0.1,0.1-0.1
							c0,0.1,0,0.1,0,0.2c0,0,0,0,0.1,0h0v0.1c0,0,0,0,0,0c0,0,0,0.1,0,0.1v0.1c0-0.1-0.1-0.1-0.2,0c0,0-0.1,0.1-0.1,0.1
							c0,0.2-0.1,0.3-0.2,0.4c0,0,0,0,0,0c0,0-0.1-0.1-0.1-0.1c-0.1,0-0.1,0-0.2,0.1c0,0,0,0,0,0c0,0.1,0,0.1,0.1,0.2c0,0,0,0,0,0
							c0.1,0,0.2,0.1,0.2,0.2c0,0,0,0,0,0l-1-0.3c-0.1,0-0.1,0-0.2,0.1c0,0.1,0,0.1,0.1,0.2l0,0l0.7,0.2c-0.1,0-0.1,0.1,0,0.2
							c0,0,0.1,0.1,0.1,0l0.4-0.1c0.1,0,0.1-0.2,0-0.2c0,0,0,0,0-0.1c0.1,0,0.1,0,0.2-0.1c0,0,0-0.1,0-0.1c0,0,0-0.1-0.1-0.1h0l0,0
							c0,0.1,0.1,0.1,0.2,0.1c0,0,0.1,0,0.1-0.1l0.3-0.4c0,0,0-0.1,0-0.1v0c0,0,0,0,0-0.1c0-0.1,0-0.1,0-0.2c0,0,0.1,0.1,0.1,0.1
							c0.1,0.1,0.2,0.1,0.3-0.1c0.1,0.1,0.3,0,0.4,0c0.1,0.1,0.3,0.1,0.4,0.1c0.2,0,0.3-0.2,0.1-0.3l-0.2,0c0,0,0-0.1,0.1-0.1
							c0.5,0.3,1.1,0.6,1.7,0.7c-0.5,0.3-0.9,0.5-1.4,0.7h-0.1c0,0-0.1,0-0.1,0.1c-0.1,0-0.3,0-0.4,0.1l-0.3,0c0,0-0.1,0-0.1,0
							c-0.1,0-0.2-0.1-0.3-0.1c-0.2-0.1-0.5,0.2-0.2,0.3c0.2,0.1,0.5,0.2,0.7,0.2c0.7,0.1,1.4,0.3,2.1,0.4c-0.2,0-0.5,0.1-0.7,0.1
							c-0.2,0-0.1,0.3,0.1,0.3c0.4,0,0.8-0.1,1.1-0.2l0,0c0.1,0,0.2,0,0.2-0.1c0.2,0,0.4,0,0.6,0c-1.4,0.5-2.8,0.7-4.3,0.9
							c-0.1,0-0.1,0-0.1,0.1c0,0,0,0,0,0c0,0-0.1,0.1-0.1,0.1c0,0.1,0.1,0.1,0.2,0.1c0,0,0,0,0,0c0.1,0.2,0.3,0,0.2-0.1c0,0,0,0,0,0
							c1.4-0.1,2.8-0.4,4.2-0.8c-0.2,0.3-0.5,0.7-0.7,1.1c-0.1,0.2,0.1,0.3,0.2,0.1c0.3-0.5,0.6-1,1-1.5h0.1
							c-0.2,0.2-0.4,0.4-0.5,0.7c-0.4,1-0.5,2.1-0.6,3.1c0,0.2,0.3,0.3,0.4,0.1c0.2-0.7,0.7-1.3,1.4-1.5c0.3,0,0.5-0.1,0.8-0.1
							c-0.1,0.3-0.2,0.5-0.3,0.8c-0.1,0.6,0,1.3,0.4,1.8v0c0,0,0,0.1,0.1,0.1l0.1,0.1c0,0,0.1,0,0.1,0.1l0,0.1
							c0,0.1,0.1,0.1,0.2,0.1c0,0,0,0,0,0c0.1,0,0.2,0,0.3-0.1c0-0.1,0-0.1,0-0.2c-0.6-1.3,0.9-2.4,0.8-3.7
							c-0.1-0.9-0.7-1.5-1.3-2.1c5-5.2,10.6-10.9,17.2-14.2c0.1,1.7-1,3.2-1.2,4.9c-0.3,2.1,0.9,3.6,2.4,5c0,0,0.1,0.1,0.2,0.1
							c0.1,0.1,0.4,0,0.3-0.2c-0.4-1-0.5-2.1-0.2-3.2c0.2-1,0.7-1.8,0.9-2.8c0.2-1.3-0.5-2.6-1.2-3.7l0,0c0-0.1,0-0.1-0.1-0.2
							c0,0,0,0,0,0L66,0.9c3.5-1.6,7.3-2.5,11.1-2.4c0.3,0,0.3-0.4,0-0.4c-3.9-0.1-7.8,0.7-11.4,2.4c0,0,0,0-0.1,0
							c-1.5-1-2-2.8-3.3-4c-0.5-0.5-1.2-0.7-1.8-0.9c-0.6-0.1-1.5-0.1-2.2-0.3L57.8-5C57.8-5,57.7-5,57.6-5c-0.1,0-0.2,0.1-0.2,0.2
							C57.4-4.7,57.5-4.7,57.5-4.6z M47.3,15.1c-0.2-0.6-0.7-1-1.2-1.3C46.8,13.9,47.3,14.3,47.3,15.1z M41.3,14.2
							C41.3,14.2,41.3,14.2,41.3,14.2c0,0.1,0,0.1,0,0.2l0,0C41.3,14.3,41.3,14.2,41.3,14.2L41.3,14.2z M42.3,13.7L42.3,13.7l-0.1,0
							c0-0.1,0-0.2,0.1-0.2c0,0,0.1,0.1,0.1,0.1C42.4,13.7,42.4,13.7,42.3,13.7L42.3,13.7z M44.8,14.2c-0.5-0.1-0.9-0.2-1.3-0.4
							c0.4,0.1,0.9,0.2,1.3,0.2c0.1,0,0.1-0.1,0.1-0.1c0-0.1,0-0.1-0.1-0.1c-0.3,0-0.6-0.1-0.9-0.1c0.5,0,1.2,0,1.8,0.1
							c0,0.1,0,0.1,0,0.2c0,0,0,0,0,0c0.3,0.1,0.6,0.3,0.8,0.5c-0.3-0.2-0.7-0.3-1.1-0.3c-0.2,0-0.4,0.1-0.5,0.1
							C44.8,14.2,44.8,14.2,44.8,14.2z M43.4,15.5c0.2,0,0.5,0,0.7,0c0.2,0,0.1-0.3-0.1-0.3c-0.1,0-0.2,0-0.4,0l0.1,0
							c0.7-0.4,1.3-0.9,2.1-0.7c0.4,0.1,0.8,0.4,1,0.7c-0.6-0.2-1.2-0.4-1.8-0.5c-0.2,0-0.2,0.2,0,0.3c0.6,0.1,1.1,0.2,1.6,0.4
							c-0.4,0-0.9-0.1-1.3-0.2c-0.2,0-0.3,0.2-0.1,0.3c0.4,0.1,0.8,0.1,1.3,0.2C45.6,16,44.5,15.8,43.4,15.5z M47.2,18.1
							c-0.3,0-0.5,0.1-0.8,0.2l0.2-0.1c0.1-0.1,0-0.3-0.2-0.2c-0.1,0.1-0.3,0.3-0.5,0.4c0.1-0.2,0.2-0.4,0.3-0.6
							c0.1-0.1-0.1-0.3-0.2-0.1c-0.1,0.1-0.1,0.2-0.1,0.3c0.1-0.8,0.6-1.5,1.3-1.9c-0.2,0.3-0.4,0.6-0.7,0.8
							c-0.1,0.1,0.1,0.3,0.2,0.2c0.2-0.2,0.4-0.4,0.6-0.7c-0.1,0.3-0.3,0.7-0.6,0.9c-0.1,0.1,0.1,0.3,0.2,0.2c0.3-0.3,0.5-0.6,0.7-1
							c-0.1,0.2-0.2,0.4-0.3,0.6c-0.1,0.1,0.1,0.3,0.2,0.1c0.2-0.3,0.3-0.5,0.4-0.9C48.1,17.1,48.1,18.1,47.2,18.1L47.2,18.1z
							 M48.5,19.3c-0.1,0.2-0.2,0.5-0.3,0.7c0.1-0.5,0.2-1.1,0.5-1.6c0.1-0.2-0.1-0.3-0.2-0.1c-0.2,0.4-0.3,0.8-0.4,1.2
							c0-0.2,0-0.4,0.1-0.6c0,0,0,0,0-0.1c0.2-0.3,0.3-0.7,0.3-1.1c0.1-0.4,0-0.8-0.1-1.2c0.2,0.4,0.3,0.8,0.2,1.2
							c0,0.2,0.2,0.2,0.3,0c0.1-0.3,0-0.7,0-1c0,0.1,0.1,0.1,0.1,0.2C49.3,17.7,48.8,18.6,48.5,19.3L48.5,19.3z M66.6,6.6
							c-0.5,1.2-0.6,2.6-0.3,3.9c-0.3-0.6-0.5-1.3-0.5-2c0-0.2-0.3-0.2-0.3,0c0,0.5,0.1,0.9,0.2,1.4c-0.3-0.4-0.5-0.9-0.6-1.4
							c-0.1-0.2-0.3-0.1-0.3,0.1C65,8.7,65.1,9,65.2,9.2c-0.3-0.4-0.5-0.8-0.6-1.2c-0.3-0.9-0.1-1.9,0.2-2.8c0.4-1.3,1-2.6,0.9-3.9
							c0.1,0.2,0.1,0.5,0.2,0.8c-0.3,1-0.4,2.1-0.5,3.2c0,0,0,0.1,0,0.1c0,0.4,0,0.8,0,1.2c0,0.2,0.3,0.2,0.3,0
							c0-1.2,0.1-2.4,0.3-3.6c0,0.3,0,0.6-0.1,1c0,0.2,0.2,0.2,0.3,0c0.1-0.5,0.1-1,0.1-1.5c0.1,0.3,0.1,0.6,0.1,0.9
							c0,0.2,0.2,0.2,0.3,0c0-0.3,0-0.6-0.1-0.9c0.2,0.4,0.3,0.7,0.5,1.1C67.3,4.7,67,5.6,66.6,6.6L66.6,6.6z M61.9-3.3
							c0.9,0.6,1.4,1.7,1.9,2.6c0.1,0.2,0.2,0.3,0.3,0.5l-2.3-1.8c-0.1-0.1-0.3,0.1-0.1,0.2l2.9,2.3c-0.7-0.3-1.3-0.7-1.8-1.3
							c-0.1-0.1-0.3,0-0.2,0.2c0.5,0.6,1.2,1.1,2,1.3c-1.4-0.1-2.4-1-3.2-2.3c-0.5-0.7-1.1-1.4-1.8-2c0.3,0.2,0.7,0.4,0.9,0.7
							c0.1,0.1,0.3-0.1,0.2-0.2c-0.2-0.2-0.4-0.4-0.6-0.5c0.4,0.1,1.4,0.5,1.4,0.8c0,0.2,0.3,0.1,0.3-0.1c0-0.4-0.7-0.6-1-0.7
							c-0.3-0.2-0.6-0.3-1-0.4C60.5-3.9,61.2-3.7,61.9-3.3L61.9-3.3z"/>
						<path class="st3" d="M46.5,22.1C46.5,22,46.5,22,46.5,22.1L46.5,22.1c0.1,0.2,0.4,0.1,0.3-0.1l0-0.1c0-0.1-0.1-0.3-0.1-0.4
							c0.1,0,0.1,0,0.1-0.1c0,0,0,0,0,0c0,0,0,0.1,0,0.1c0,0.1,0.1,0.1,0.2,0.1c0,0,0,0,0.1,0c0,0,0.1,0,0.1,0
							c0.1-0.1,0.1-0.1,0.2-0.2c0.1,0.1,0.3-0.1,0.2-0.2c-0.1,0-0.1-0.1-0.1-0.2l0.3,0.2c0.1,0.1,0.3-0.1,0.1-0.2l-0.5-0.4h0
							c0-0.1-0.1-0.1-0.2-0.1c0,0-0.1,0.1-0.1,0.1c0,0.2,0,0.3,0.1,0.5c0,0,0,0.1,0,0.1l-0.2-0.2c0,0-0.1,0-0.1,0
							c-0.1-0.2-0.2-0.3-0.2-0.5c0-0.1-0.1-0.1-0.2-0.1c0,0,0,0,0,0c0-0.1,0-0.1-0.1-0.1c0,0,0,0,0,0c-0.2,0-0.4,0-0.6,0.1
							c-0.2,0.1,0,0.3,0.1,0.2c0.1-0.1,0.3-0.1,0.4-0.1c0,0,0,0,0.1,0c0,0,0,0,0,0.1l0.3,0.7c-0.1-0.1-0.2-0.1-0.4-0.1
							c-0.1,0-0.1,0-0.2,0.1c0,0,0,0.1,0,0.1l0,0c0,0-0.1,0.1,0,0.1c0.1,0.2,0.1,0.5,0.2,0.7C46.3,22.3,46.5,22.2,46.5,22.1z"/>
						<path class="st3" d="M46.4,19.9l0.7-0.1c0.2,0,0.1-0.3-0.1-0.3l-0.7,0.1c-0.1,0-0.1,0.1-0.1,0.2C46.3,19.9,46.4,20,46.4,19.9
							L46.4,19.9z"/>
						<path class="st3" d="M45.4,20.9c0.1,0,0.2,0.2,0.2,0.3c0,0.2,0.3,0.2,0.3,0c0-0.3-0.1-0.5-0.4-0.6
							C45.3,20.6,45.3,20.9,45.4,20.9z"/>
						<path class="st3" d="M44.5,20.1l-0.1,0.1c-0.1,0.1,0.2,0.2,0.2,0.1c0.2-0.3,0.3-0.6,0.3-0.9c0-0.2-0.3-0.2-0.3,0
							C44.7,19.6,44.6,19.9,44.5,20.1C44.5,20.1,44.5,20.1,44.5,20.1z"/>
						<path class="st3" d="M44.5,18.5c-0.6,0.3-1.3,0.5-2,0.6c-0.1,0-0.1,0.1-0.1,0.2c0,0.1,0.1,0.1,0.2,0.1c0.7-0.2,1.4-0.4,2-0.7
							C44.8,18.7,44.7,18.5,44.5,18.5z"/>
						<path class="st3" d="M44.7,17.9l-1.3,0.4c-0.2,0.1-0.1,0.3,0.1,0.3l1.3-0.4C44.9,18.1,44.9,17.9,44.7,17.9z"/>
						<path class="st3" d="M42.8,19.8l-0.3,0.5c0,0.1,0,0.1,0.1,0.2c0.1,0,0.1,0,0.2,0c0.1-0.2,0.2-0.4,0.3-0.5c0-0.1,0-0.1-0.1-0.2
							C42.9,19.8,42.9,19.8,42.8,19.8z"/>
						<path class="st3" d="M42.2,18.8c-0.2,0-0.3,0-0.5-0.1c-0.2,0-0.3,0.2-0.1,0.3c0.2,0,0.4,0.1,0.6,0.1
							C42.3,19.1,42.4,18.8,42.2,18.8z"/>
						<path class="st3" d="M41.9,20.4L41.9,20.4c0.2,0,0.2-0.1,0.2-0.2c0,0,0,0,0-0.1c0-0.1,0.1-0.1,0.1-0.2
							c0.1-0.1-0.1-0.3-0.2-0.1l0,0.1h0l-0.3,0.2c0,0,0.1-0.1,0.1-0.1c0-0.1,0-0.2-0.1-0.2c0,0,0,0-0.1,0l0.1-0.1
							c0.1-0.1,0-0.3-0.2-0.2c-0.1,0-0.1,0.1-0.2,0.1c0,0,0,0-0.1-0.1c-0.1,0-0.2,0-0.2,0c0,0,0.1-0.1,0.2,0
							c0.2,0.1,0.3-0.2,0.1-0.3c-0.1,0-0.1,0-0.2,0l0.1,0c0.1,0,0.1-0.1,0.1-0.2c0-0.1-0.1-0.1-0.1-0.1l0,0c0.1-0.1-0.1-0.3-0.2-0.2
							c0,0.1-0.1,0.1-0.2,0c0-0.1,0.1-0.2,0.2-0.2c0.1,0,0.1-0.1,0.1-0.1c0.1,0,0.1-0.1,0.1-0.2c0-0.1-0.1-0.1-0.1-0.1c0,0,0,0,0,0
							h0c0-0.1,0-0.1-0.1-0.2c0,0,0,0,0.1,0c0.1,0,0.1-0.1,0.1-0.2c0-0.1-0.1-0.1-0.2-0.1c-0.1,0-0.1,0.1-0.2,0.1l0-0.1
							c0-0.1,0-0.2-0.1-0.2c0,0,0,0,0,0l0.1,0c0.2-0.1,0-0.3-0.1-0.2l-0.3,0.1c0.1,0,0.1-0.1,0.2-0.2l0.4-0.2c0.2-0.1,0-0.3-0.1-0.2
							L40.4,17c0,0-0.1,0-0.1,0.1l-0.2,0.1c0,0-0.1,0-0.1,0.1c-0.1,0-0.1,0.3,0.1,0.3l-0.1,0l-0.2,0c-0.2,0-0.2,0.2,0,0.3l0.5,0.1
							c0,0,0,0,0.1,0l-0.1,0.1c0,0.1,0,0.1,0,0.2c0,0,0,0,0,0c-0.1,0-0.2,0.2,0,0.3l0.1,0c0,0.1,0,0.1,0.1,0.2c0,0,0.1,0,0.1,0
							c0,0.1-0.1,0.1-0.1,0.2c0,0,0,0,0,0.1c0,0-0.1,0-0.1,0.1c-0.1,0.1-0.1,0.2-0.2,0.2c0,0.1,0,0.1,0,0.2c0,0,0,0,0,0
							c0.1,0,0.1,0,0.2,0l0.2-0.2c0,0,0,0,0,0c0,0,0.1,0,0.1,0l-0.1,0c-0.1,0-0.1,0.1-0.1,0.2c0,0.1,0.1,0.1,0.2,0.1l0,0l0.3-0.1
							c-0.1,0-0.2,0.1-0.3,0.3c0,0.1,0,0.1,0.1,0.2c0,0,0,0,0,0c0,0-0.1,0.1-0.1,0.1c0,0.1,0,0.1,0,0.2c0,0,0.1,0,0.1,0
							c-0.1,0.1-0.2,0.2-0.3,0.3s0.1,0.3,0.2,0.2c0.1-0.1,0.2-0.2,0.3-0.3c0.2,0.1,0.3,0.1,0.5,0l0,0c-0.1,0.1-0.1,0.1,0,0.2
							c0,0,0,0,0.1,0c0,0,0,0,0,0.1c0,0,0,0.1,0,0.1c0,0.1,0.1,0.1,0.1,0.1c0.1,0,0.1,0,0.1-0.1C41.9,20.5,41.9,20.5,41.9,20.4z
							 M40.4,17.6L40.4,17.6L40.4,17.6L40.4,17.6C40.5,17.6,40.4,17.6,40.4,17.6z M40.6,18.1c0.1,0,0.1,0,0.2,0l-0.1,0L40.6,18.1z
							 M41.4,19.9L41.4,19.9C41.4,19.9,41.4,19.9,41.4,19.9z"/>
						<path class="st3" d="M44.7,16.9c-0.5,0.3-1,0.7-1.5,1.1c-0.1,0.1,0.1,0.3,0.2,0.2c0.4-0.4,0.9-0.8,1.4-1.1
							C45,17,44.9,16.8,44.7,16.9z"/>
						<path class="st3" d="M42.8,18.2L42.8,18.2l0.2-0.2l0.3-0.4c0.1-0.1-0.1-0.3-0.2-0.1l-0.4,0.5c-0.1,0.1-0.2,0.2-0.2,0.3
							c0,0.1,0,0.1,0.1,0.1c0.1,0,0.1,0,0.2,0C42.8,18.2,42.8,18.2,42.8,18.2z"/>
						<path class="st3" d="M42.1,16.4l0.4,0.2c0.2,0.1,0.3-0.1,0.1-0.2l-0.4-0.2C42.1,16,42,16.3,42.1,16.4z"/>
						<path class="st3" d="M41.6,16.4l-0.3,0.1c-0.1,0-0.1,0.1-0.1,0.2c0,0.1,0.1,0.1,0.2,0.1l0.3-0.1c0.1,0,0.1-0.1,0.1-0.2
							C41.8,16.4,41.7,16.3,41.6,16.4z"/>
						<path class="st3" d="M41.9,18.2l0.1-0.2c0.1-0.1-0.1-0.3-0.2-0.1l-0.1,0.2C41.5,18.2,41.8,18.3,41.9,18.2z"/>
						<path class="st3" d="M42.9,22.2c0-0.1-0.1-0.3-0.1-0.4c0-0.1-0.1-0.1-0.2-0.1c-0.1,0-0.1,0.1-0.1,0.2l0.1,0.4
							C42.7,22.4,43,22.4,42.9,22.2z"/>
						<path class="st3" d="M42.1,21.6c0.1-0.2,0.1-0.4,0.1-0.7l0.2-0.2c0-0.1-0.1-0.3-0.3-0.2l-0.3,0.1c-0.1,0.1-0.1,0.3,0.1,0.2
							c0,0.1,0,0.1,0.1,0.2c0,0.2,0,0.3-0.1,0.5c0,0.1,0.1,0.1,0.1,0.1C42,21.6,42,21.6,42.1,21.6z"/>
						<path class="st3" d="M44.7,22.4c0-0.1-0.1-0.1-0.2-0.1c0,0,0,0,0-0.1c0-0.1,0.1-0.2,0.2-0.2c0.1,0,0.1-0.1,0-0.2
							c0,0,0-0.1-0.1-0.1c0.1,0,0.1-0.1,0-0.2c0,0,0,0,0,0l-0.1-0.1c-0.1-0.1-0.1-0.1-0.2,0c0,0,0,0.1,0,0.1c-0.1,0-0.1,0-0.2,0.1
							c0,0,0,0,0,0c0,0.1-0.1,0.2-0.1,0.3c0,0-0.1,0-0.1,0c-0.2,0.1-0.4,0.2-0.6,0.3c-0.1,0-0.1,0.1,0,0.2c0,0.1,0.1,0.1,0.2,0.1
							c0.2-0.1,0.4-0.2,0.6-0.3c0,0,0.1,0,0.1,0c0,0,0,0,0,0l0,0c0,0.1,0,0.1,0.1,0.1c0,0,0,0,0,0c0,0,0,0.1,0,0.1
							c0.1,0.2,0.1,0.4,0,0.6c0,0.2,0.2,0.3,0.3,0.1C44.7,22.9,44.7,22.7,44.7,22.4z M44.5,21.8L44.5,21.8
							C44.5,21.8,44.5,21.8,44.5,21.8c0,0.1,0,0.1,0,0.1L44.5,21.8z"/>
						<path class="st3" d="M39.1,16.9l0.7-0.2c0.2,0,0.1-0.3-0.1-0.3l-0.7,0.2C38.9,16.7,39,17,39.1,16.9z"/>
						<path class="st3" d="M39.7,18.6c-0.3,0.2-0.5,0.4-0.8,0.6c-0.1,0.1,0.1,0.3,0.2,0.2c0.2-0.2,0.5-0.4,0.7-0.6
							C40,18.7,39.8,18.5,39.7,18.6z"/>
						<path class="st3" d="M41,20.9L40.7,21c-0.2,0-0.1,0.3,0.1,0.3l0.3-0.1C41.2,21.2,41.1,20.9,41,20.9z"/>
						<path class="st3" d="M40.4,19.9c0-0.1,0-0.1-0.1-0.2c-0.1,0-0.1,0-0.2,0.1c0,0,0,0,0,0c0,0.1,0,0.1,0,0.2c0,0.1,0,0.1,0.1,0.2
							c0.1,0,0.1,0,0.2-0.1c0,0,0,0,0,0C40.4,20.1,40.4,20,40.4,19.9z"/>
						<path class="st3" d="M40.5,22.9L40.5,22.9c-0.1,0.1-0.1,0.2-0.1,0.2c0,0.1,0.1,0.1,0.2,0l0,0c0.1,0,0.1-0.1,0-0.2
							C40.6,22.8,40.5,22.8,40.5,22.9z"/>
						<path class="st3" d="M41.2,23.3c0,0.1,0,0.1-0.1,0.1c0,0,0,0.1-0.1,0.1v0c0,0-0.1,0-0.1,0.1c-0.1,0.1,0,0.2,0,0.2
							c0.1,0,0.1,0,0.2,0c0.1-0.1,0.2-0.3,0.3-0.4C41.5,23.2,41.3,23.1,41.2,23.3z"/>
						<path class="st3" d="M37.2,21.4c-0.1-0.1-0.1-0.1-0.2,0c0,0,0,0,0,0c0,0-0.1,0.1-0.1,0.1c-0.2,0.1-0.1,0.3,0.1,0.3
							c0.1,0,0.2-0.1,0.2-0.1C37.2,21.6,37.2,21.5,37.2,21.4C37.2,21.4,37.2,21.4,37.2,21.4z"/>
						<path class="st3" d="M38.3,21.2C38.3,21.3,38.2,21.3,38.3,21.2c-0.1,0-0.2,0.1-0.1,0.2c0,0.1,0.1,0.1,0.1,0.1
							c0.1,0,0.2-0.1,0.2-0.1C38.6,21.2,38.4,21.1,38.3,21.2z"/>
						<path class="st3" d="M42.1,14.7c0.2,0,0.4,0.1,0.6,0.1c0.2,0,0.3-0.2,0.1-0.3c-0.2,0-0.5-0.1-0.7-0.1
							C42,14.4,42,14.7,42.1,14.7z"/>
						<path class="st3" d="M43.2,14.9c0.1,0.1,0.2,0.1,0.3,0c0,0,0.1-0.1,0.1-0.2c0,0,0,0,0,0l0.1-0.2c0.1-0.1-0.1-0.3-0.2-0.1
							l-0.3,0.3C43.1,14.8,43.1,14.9,43.2,14.9z"/>
						<path class="st3" d="M41.1,16.2c0.1-0.1,0.1-0.2,0.2-0.4c0.1-0.1-0.2-0.2-0.3-0.1l-0.2,0.3C40.8,16.3,41.1,16.3,41.1,16.2z"/>
						<path class="st3" d="M38.8,16l0.6-0.2c0.2-0.1,0.1-0.3-0.1-0.3l-0.6,0.2C38.6,15.8,38.7,16.1,38.8,16z"/>
						<path class="st3" d="M40.7,14.3L40.7,14.3c0.1,0,0.1,0,0.2,0l0,0c0-0.1,0-0.1,0-0.2c-0.2-0.2-0.4-0.3-0.7-0.5
							c-0.3-0.2-0.7-0.4-1-0.6c-0.1-0.1-0.3,0.1-0.1,0.2l0.8,0.5c0.3,0.1,0.6,0.3,0.8,0.5C40.6,14.2,40.7,14.3,40.7,14.3z"/>
						<path class="st3" d="M38.4,15.2c0-0.1-0.1-0.1-0.2,0c-0.1,0-0.1,0.1,0,0.2s0.1,0.1,0.2,0C38.4,15.3,38.4,15.2,38.4,15.2
							L38.4,15.2z"/>
						<path class="st3" d="M37.5,17.3L37.5,17.3c-0.1,0.1-0.1,0.2,0,0.2c0,0.1,0.1,0.1,0.2,0l0,0l0,0c0.1,0,0.1-0.1,0-0.2
							C37.7,17.3,37.6,17.3,37.5,17.3L37.5,17.3z"/>
						<path class="st3" d="M38,16.1c0-0.1-0.1-0.1-0.1-0.1c-0.1,0-0.1,0-0.1,0.1c0,0,0,0.1,0,0.1c0,0.1,0.1,0.1,0.1,0.1
							C37.9,16.3,38,16.3,38,16.1C38,16.2,38,16.2,38,16.1z"/>
						<path class="st3" d="M38.7,15.9c0.1-0.2-0.2-0.2-0.3-0.1l-0.2,0.5c-0.1,0.2,0.2,0.2,0.3,0.1L38.7,15.9z"/>
						<path class="st3" d="M39.6,14.7C39.7,14.6,39.7,14.6,39.6,14.7L39.6,14.7l0.1-0.2l0.1-0.2c0-0.1,0-0.1-0.1-0.2
							c-0.1,0-0.1,0-0.2,0l-0.2,0.2c-0.1,0.1-0.1,0.1-0.1,0.2c0,0.1,0,0.2,0.1,0.2C39.5,14.8,39.6,14.7,39.6,14.7z"/>
						<path class="st3" d="M40.3,12.9c0.1,0,0.2,0,0.3,0.1c0.1,0.1,0.3-0.1,0.1-0.2c-0.1-0.1-0.3-0.1-0.4-0.2
							C40.2,12.6,40.2,12.9,40.3,12.9z"/>
						<path class="st3" d="M47.5,22.5c0.1-0.2,0.2-0.4,0.2-0.6c0.1-0.2-0.2-0.2-0.3-0.1c-0.1,0.2-0.2,0.4-0.2,0.6
							C47.2,22.6,47.5,22.7,47.5,22.5z"/>
						<path class="st3" d="M46.6,22.5c0,0.2,0,0.4,0.1,0.6c0,0.2,0.3,0.1,0.3-0.1s0-0.4-0.1-0.6C46.8,22.2,46.5,22.3,46.6,22.5z"/>
						<path class="st3" d="M46,23.9c-0.1-0.3-0.2-0.6-0.3-0.9c-0.1-0.2-0.3-0.1-0.3,0.1c0.1,0.3,0.2,0.6,0.3,0.9
							C45.8,24.1,46,24.1,46,23.9z"/>
						<path class="st3" d="M43.6,23.3c0,0.1-0.1,0.2-0.2,0.3c-0.1,0-0.1,0.1-0.1,0.2c0,0.1,0.1,0.1,0.2,0.1c0.2-0.1,0.3-0.3,0.4-0.5
							C43.9,23.2,43.6,23.1,43.6,23.3z"/>
						<path class="st3" d="M44.7,18.9c-0.2,0.1-0.3,0.3-0.4,0.5c-0.1,0.2,0.2,0.3,0.2,0.1c0.1-0.2,0.2-0.3,0.3-0.4
							C45.1,19,44.9,18.8,44.7,18.9z"/>
						<path class="st3" d="M38.9,17.8L38.9,17.8c-0.1,0.1-0.1,0.2,0,0.2c0,0,0.1,0,0.2,0l0,0c0.1,0,0.1-0.1,0-0.2
							C39.1,17.7,39,17.7,38.9,17.8L38.9,17.8z"/>
						<path class="st3" d="M37.8,26.2C37.8,26.2,37.8,26.1,37.8,26.2c-0.1-0.1-0.1-0.1-0.2-0.1c-0.1,0-0.2,0-0.2,0.1
							c0,0.1,0,0.2,0,0.3c0,0.1,0.1,0.1,0.1,0.1C37.7,26.5,37.9,26.4,37.8,26.2z"/>
						<path class="st3" d="M36.4,19.2c-0.2-0.1-0.5,0.2-0.4,0.4c0,0.1,0.1,0.1,0.1,0.1v0c0,0,0.1,0.1,0.1,0c0.1,0,0.2-0.1,0.2-0.3
							C36.6,19.4,36.6,19.3,36.4,19.2z"/>
						<path class="st3" d="M36.6,14.8c0.1-0.2,0-0.4-0.2-0.5c0,0,0,0,0,0c-0.2-0.1-0.4,0-0.5,0.2c0,0,0,0,0,0c0,0.2,0.1,0.4,0.3,0.4
							c0,0,0,0,0,0C36.4,15,36.5,15,36.6,14.8z"/>
						<path class="st3" d="M46,22.1c0.1-0.1,0-0.3-0.1-0.4c0,0-0.1,0-0.2,0c0,0,0-0.1-0.1-0.1c0-0.1-0.1-0.1-0.2-0.1c0,0,0,0-0.1,0
							c0,0,0-0.1,0-0.1c-0.1-0.1-0.1,0-0.2,0c0,0,0,0.1,0,0.2c0,0,0,0.1-0.1,0.1c0,0,0,0,0,0c0-0.2-0.1-0.4-0.1-0.6
							c0-0.2-0.3-0.1-0.3,0.1c0,0.2,0.1,0.4,0.1,0.6C45,21.9,45,21.9,45,22v0.1c0,0.1,0,0.1,0.1,0.1l0.1,0c0.1,0,0.2,0,0.3-0.1l0,0
							c0,0.1-0.1,0.1-0.1,0.2c-0.2,0-0.1,0.3,0.1,0.3c0.2,0,0.3-0.2,0.3-0.3l0,0c0.1,0,0.1-0.1,0.1-0.2C45.9,22.2,45.9,22.2,46,22.1
							C46,22.1,46,22.1,46,22.1z M45.5,21.9L45.5,21.9C45.5,21.8,45.5,21.8,45.5,21.9L45.5,21.9C45.5,21.8,45.5,21.9,45.5,21.9
							L45.5,21.9z M45.5,22C45.5,22,45.5,22,45.5,22C45.6,22,45.6,22,45.5,22c0,0.1,0,0.1,0,0.1l0,0C45.5,22.1,45.5,22,45.5,22
							L45.5,22z"/>
						<path class="st3" d="M43.7,22.1c0.1,0,0.1-0.1,0.2-0.1c0.1,0,0.1,0,0.2,0c0,0,0,0,0,0c0-0.1,0.1-0.1,0.1-0.2l0.1-0.1
							c0-0.1,0-0.1,0-0.2c0,0-0.1,0-0.2,0l-0.2,0.2l0,0c0-0.1-0.1-0.2-0.2-0.2l0.6-1.2c0.1-0.2-0.1-0.3-0.2-0.1
							c-0.2,0.4-0.4,0.8-0.6,1.2c0,0.1,0,0.1,0.1,0.2c0,0.1,0,0.1,0.1,0.1c0,0,0.1,0.1,0,0.1c-0.1,0-0.1,0.1-0.1,0.2c0,0,0,0,0,0
							C43.4,22,43.5,22.2,43.7,22.1z"/>
						<path class="st3" d="M42.9,21.5c0,0,0,0.1,0,0.1c0,0.1,0,0.1,0.1,0.1c0,0,0.1,0,0.1,0c0.2,0,0.3-0.2,0.3-0.4c0,0,0-0.1,0-0.1
							c0,0,0,0,0,0c0-0.1-0.1-0.1-0.2-0.1c0,0,0,0-0.1,0c0-0.1-0.1-0.1-0.1-0.1c0,0,0,0,0,0c0.4-0.4,0.8-0.9,1.2-1.4
							c0-0.1,0-0.1-0.1-0.2c-0.1,0-0.1,0-0.2,0c-0.2,0.4-0.5,0.7-0.8,1c-0.1-0.1-0.3,0.1-0.2,0.2l0,0l-0.2,0.2l0,0l0,0
							c0-0.1,0-0.1,0-0.2c0,0-0.1,0-0.1,0c-0.2,0.1-0.3,0.2-0.4,0.4c0,0.1,0,0.1,0.1,0.1c0,0,0,0,0,0c0,0.1,0,0.1,0,0.2
							c0,0,0.1,0,0.2,0l0.1-0.1c0,0,0,0,0,0c0,0.1,0.2,0.2,0.3,0.1C42.9,21.6,42.9,21.5,42.9,21.5z M42.7,21.3
							C42.7,21.3,42.7,21.3,42.7,21.3C42.7,21.3,42.7,21.3,42.7,21.3z M42.8,21.4L42.8,21.4L42.8,21.4L42.8,21.4z"/>
						<path class="st3" d="M40,17l0.3-0.3c0.1,0.1,0.2,0,0.2-0.1c0-0.1-0.1-0.2-0.1-0.3l0.1-0.1l0,0c0,0,0,0,0,0l0.2-0.2
							c0,0,0,0,0-0.1h0.1c0.1,0,0.1-0.1,0.1-0.2c0-0.1-0.1-0.1-0.2-0.1l-0.5,0c-0.1,0-0.1,0.1-0.1,0.2v0c-0.1,0-0.2,0-0.3,0
							c-0.2,0-0.1,0.3,0,0.3c0,0,0,0.1,0,0.1c0.1,0.1,0.2,0.2,0.2,0.3l-0.3,0.3c-0.1,0.1-0.1,0.2,0,0.2S40,17.1,40,17z M40.4,15.9
							L40.4,15.9L40.4,15.9z"/>
						<path class="st3" d="M12.4,48.2c2.1,0.7,4.2,1.3,6.3,1.8c0.2,0,0.2-0.2,0.1-0.3c-2.1-0.5-4.2-1.1-6.3-1.8
							C12.3,47.9,12.3,48.2,12.4,48.2z"/>
						<path class="st3" d="M5,48.2c-0.1,0.1-0.1,0.2,0,0.3c0,0,0,0,0,0c1.6,1,3.3,2,5.2,2.5c-1.6-0.1-3.1-0.2-4.6-0.3
							c-0.3,0-0.3,0.4,0,0.4c1.1,0.1,2.3,0.2,3.4,0.3c-0.8,0.2-1.6,0.4-2.3,0.7c-0.6,0.3-1.2,0.5-1.9,0.7c-0.7,0.2-1.7,0.5-2.4,0.3
							c-0.1,0-0.1,0-0.2,0l0,0C2,53,1.9,53.4,2.2,53.5c2.8,0.9,6.7,1.2,8.2-2c0,0,0,0,0,0c1.3,0,2.7,0,4,0c-2.4,1.2-5.2,2.4-5.7,5.4
							C8.6,57,9,57.1,9,56.9c0,0,0,0,0-0.1c0,0,0.1,0,0.1-0.1c1.1-1.1,2.6-1.6,3.9-2.4c1.2-0.8,2.2-1.8,2.8-3.1c0,0,0,0,0,0
							c1.3-0.1,2.5-0.3,3.8-0.6c-1.5,1.1-3.1,2.2-4.5,3.5c-1.4,1.4-2,3.4-2.5,5.3c0,0.1,0,0.2,0.2,0.2c0.1,0,0.2,0,0.2-0.1h0
							c1-0.4,1.7-1.1,2.4-1.9c0.9-0.9,2-1.5,3.1-2.2c1.8-1.1,2.9-2.9,2.4-5.1c1.7-0.4,3.3-1,4.8-1.8c-0.5,1.9-1.8,3.5-2.9,5.1
							c-1.3,1.9-2,3.7-2.4,6l0,0c-0.1,0.2,0.2,0.4,0.3,0.2c1.7-2,3.6-3.9,5.1-6.1c1.1-1.6,1.5-3.7,0.6-5.5c1-0.6,2-1.3,2.9-2.1
							c-0.3,1.5-0.6,3-0.3,4.5c0.1,0.8,0.4,1.5,0.7,2.1c0.4,0.8,1.2,1.4,1.6,2.2c0.1,0.1,0.2,0.1,0.3,0.1c0,0,0.1,0,0.1-0.1
							c0,0,0.1-0.1,0.1-0.1c0.4-1.6,0.5-3.3,0.2-5c-0.3-1.6-1.6-2.8-2-4.3c0.7-0.7,1.3-1.4,1.9-2.2c0.2-0.2-0.2-0.4-0.3-0.2
							c-0.9,1.3-2,2.4-3.2,3.4c0-0.8-0.7-1.3-1.3-1.7c-0.9-0.7-1.9-1.2-3-1.7c-2.2-0.8-4.5-1.1-6.8-0.6c-0.3,0-0.2,0.4,0.1,0.4
							c0,0,0.1,0,0.1,0c0,0,0.1,0.1,0.1,0.1c3.3,0.9,6.2,4.8,9.9,4.3c-0.4,0.3-0.8,0.5-1.2,0.7c-0.1,0-0.2,0-0.2,0.1c0,0,0,0,0,0
							l0,0c-0.7,0.4-1.4,0.7-2.2,1c-0.1-1.9-1.9-3-3.5-3.6c-2.3-1-4.9-0.9-7.4-0.7c-0.3,0-0.3,0.4,0,0.4h0c0,0,0,0.1,0.1,0.1L19,48
							c1.4,0.6,2.7,1.2,4.1,1.4c-0.6,0.2-1.3,0.4-2,0.6c0-0.1-0.1-0.1-0.2-0.1c0-0.1,0-0.1-0.1-0.1c-1.7-0.8-3.3-1.7-5.1-2.2
							s-3.8-0.2-5.6-0.2c0,0-0.1,0-0.1,0c-0.1,0-0.2,0.1-0.3,0.1c-0.1,0.1-0.1,0.2-0.1,0.3c0,0,0,0.1,0.1,0.1c2.4,1.1,5.2,2.7,8,2.9
							c-0.8,0.1-1.5,0.2-2.3,0.2c-0.1,0-0.1,0-0.2,0l0,0c-0.9,0.1-1.8,0.1-2.7,0.1c-0.4-1.1-1.6-1.6-2.6-2c-1.5-0.6-3.1-0.8-4.7-1
							C5.1,48.1,5,48.1,5,48.2C5,48.2,5,48.2,5,48.2z M25,54.4C23.8,56,22.4,57.5,21,59c0.2-0.8,0.4-1.7,0.7-2.5c0.4-1,1-2,1.7-2.9
							c0.5-0.7,1.1-1.4,1.6-2.2c0,0,0,0,0,0c0.1,0.1,0.2,0,0.3-0.1c0.1-0.1,0-0.2-0.1-0.3l0,0c0,0,0,0,0,0c0.4-0.6,0.7-1.3,1-2.1
							c0,0,0,0.1,0,0.1c0,0.3,0,0.6,0,0.8c0,0.6-0.2,1.1-0.4,1.6c-0.4,1.1-1.1,2.2-1.8,3.2c-0.1,0.1,0.1,0.3,0.2,0.1
							c0.7-1.1,1.5-2.2,1.9-3.5c0.2-0.6,0.3-1.1,0.4-1.7C26.8,51.3,26,53,25,54.4z M31.6,53.9c-0.1-0.6-0.2-1.1-0.4-1.6
							c-0.3-0.9-0.8-1.7-0.8-2.7c0-0.1-0.1-0.1-0.2-0.1c-0.1,0-0.1,0.1-0.1,0.1c0,0.8,0.2,1.5,0.6,2.2c0.4,0.8,0.6,1.6,0.7,2.4
							c-0.2-0.3-0.4-0.5-0.6-0.7c-0.6-0.7-1-1.5-1.2-2.3c-0.4-1.6-0.1-3.3,0.3-5c0.5,1.1,1.3,2.1,1.7,3.3
							C31.9,50.9,31.9,52.5,31.6,53.9z M18.9,43.1c2.6,0.8,4.9,2.4,7.5,3.2c0.2,0.1,0.2-0.2,0.1-0.3c-2.7-0.8-5.1-2.6-7.8-3.3
							c1.5-0.1,3,0.1,4.4,0.5c0.9,0.3,1.8,0.6,2.6,1.1c0.8,0.4,2.4,1.3,2.2,2.3C24.6,47.6,21.8,44.5,18.9,43.1z M12.1,54.5
							c-1,0.5-2,1-2.9,1.7c0.9-2.6,3.9-3.6,6.1-4.8h0.1C14.6,52.7,13.5,53.8,12.1,54.5z M17.5,55.8c-0.7,0.4-1.4,0.9-2.1,1.5
							c-0.7,0.7-1.3,1.5-2.2,1.9c0.5-1.9,1.2-3.7,2.8-5.1c1.5-1.3,3.1-2.4,4.6-3.5c-0.7,1.6-1.8,3-3.3,4c-1.1,0.7-2.1,1.4-2.9,2.4
							c-0.1,0.1,0.1,0.3,0.2,0.1c1-1.4,2.5-2,3.8-3.1c1-0.9,1.8-1.9,2.3-3.2C21.1,53.2,19.4,54.6,17.5,55.8z M18.5,47.4l-4.7-2.2
							c1.7-0.1,3.4,0,5,0.3c1.8,0.4,4.3,1.5,4.6,3.5c-1.8-1.3-3.7-2.4-5.8-3.3c-0.2-0.1-0.2,0.2-0.1,0.3c1.8,0.7,3.6,1.7,5.2,2.9
							c0,0,0,0.1,0,0.1C21.3,48.7,19.9,48,18.5,47.4L18.5,47.4z M15.6,48c1.6,0.4,3.2,1.3,4.7,2c-3.4,1.1-6.8-0.8-9.9-2.2l0,0
							C12.2,47.7,14,47.5,15.6,48L15.6,48z M3.9,53.5c0.7-0.1,1.3-0.3,1.9-0.6c1.3-0.5,2.7-1,4-1.3C8.6,53.7,6.1,53.9,3.9,53.5z
							 M12,51c-2.2-0.2-4.2-1.2-6.1-2.4c1,0.1,2,0.3,3,0.6C9.9,49.4,11.5,49.9,12,51z"/>
						<path class="st3" d="M38,64.5c-0.4-1.2-0.8-2.4-1-3.6c0-0.1,0.1-0.1,0.1,0c0.3,1.2,0.6,2.4,1,3.6C38.2,64.6,38,64.6,38,64.5z"
							/>
						<path class="st3" d="M38.1,68.6c0-0.9-0.2-1.8-0.5-2.7c-0.2-0.6-0.5-1.3-1.1-1.5c0-0.5,0-1,0.1-1.6l0,0c0,0,0-0.1,0-0.1
							c0-0.4,0.1-0.9,0.1-1.3c0.1,1.6,1,3.1,1.6,4.5c0,0.1,0.1,0.1,0.2,0c0,0,0,0,0,0c0-0.1,0.1-0.1,0.1-0.2c0,0,0,0,0-0.1
							c0-1,0.2-2.2-0.1-3.2c-0.3-1-0.8-1.9-1.3-2.9c0,0,0-0.1-0.1-0.1c0,0,0-0.1-0.1-0.1c0.1-0.4,0.2-0.8,0.4-1.1
							c0.2,0.8,0.4,1.6,0.8,2.4c0.5,1.1,1,2.2,1.6,3.3c0,0,0,0,0,0c0,0,0,0,0,0c0,0.2,0.2,0.1,0.2,0c0.1-1.4,0.2-2.9-0.4-4.2
							c-0.4-0.9-1-1.9-2.1-2c0.2-0.4,0.4-0.8,0.6-1.2l0,0c0.1,0,0.1-0.1,0.1-0.1c0,0,0,0,0,0c0.1-0.2,0.3-0.4,0.4-0.7
							c-0.3,2.1,1.9,3.7,2.4,5.6c0,0,0,0.1,0.1,0.1v0.1c0,0.1,0.2,0.2,0.2,0.1c0.2-1.3,0.1-2.6-0.4-3.9c-0.2-0.6-0.6-1.2-0.9-1.7
							c-0.3-0.3-0.5-0.7-1-0.7c0.5-0.7,1.2-1.3,1.9-1.8c0.1-0.1,0-0.3-0.1-0.2c-0.4,0.3-0.9,0.7-1.2,1.1c-0.9-0.3-1.5-1-2.5-1.1
							c-0.9-0.2-1.9-0.1-2.8,0.1c0,0,0,0-0.1,0c-0.1,0-0.1,0.1-0.1,0.2c0,0,0,0,0.1,0.1c0.5,0.2,0.8,0.7,1.2,0.9
							c0.4,0.2,0.8,0.4,1.2,0.4c0.9,0.1,1.7,0,2.6-0.2c-0.4,0.5-0.8,1.1-1.2,1.7c-1-0.6-2.2-0.3-3.1,0.3c-1.2,0.8-2.3,1.9-3.5,2.9
							c-0.1,0.1,0,0.2,0.1,0.2l0,0c1.2-0.2,2.4-0.7,3.4-1.4c0.9-0.7,1.8-1.4,2.9-1.7c-0.5,0.9-0.8,1.8-1,2.7
							c-1.2-0.3-2.2,0.3-2.9,1.4c-0.3,0.6-0.8,1.2-1.3,1.8c-0.4,0.4-0.9,0.8-1.1,1.4c0,0,0,0,0,0c-0.1,0-0.1,0.1,0,0.2
							c0,0,0.1,0.1,0.1,0.1c1.1-0.3,2.2-0.6,3-1.4c0.7-0.8,1.4-1.6,2-2.5c-0.1,0.7-0.3,1.4-0.3,2.2l0,0c-0.7,0.4-1.3,0.9-1.7,1.6
							c-0.5,0.7-0.7,1.6-1.3,2.2c0,0,0,0,0,0.1h0c-0.1,0-0.1,0.2,0.1,0.2c1.7-0.3,2.4-1.9,3.1-3.2c0,0.8,0,1.5,0,2.3h0
							c-1.8,0.9-1.6,3.1-1.1,4.7c0,0.1,0.3,0.1,0.2-0.1l0,0c0,0,0-0.1,0-0.1c-0.2-0.4,0-1,0.1-1.4c0.1-0.4,0.2-0.7,0.4-1.1
							c0.2-0.4,0.3-0.9,0.4-1.3c0,0.7,0.1,1.3,0.2,1.9c0,0.1,0.2,0.1,0.2,0c-0.1-0.8-0.2-1.7-0.2-2.6c0.3,1,0.8,2,1.4,2.9
							C37.9,68.7,37.9,68.8,38.1,68.6C38,68.7,38,68.7,38.1,68.6C38,68.7,38.1,68.7,38.1,68.6z M37.2,56.5c-0.3,0-0.7,0.1-1,0.2
							c-0.7,0.3-1.4,0.6-2,1.1c-0.1,0.1,0,0.2,0.1,0.1c0.6-0.4,1.2-0.8,1.8-1c0.3-0.1,0.6-0.2,0.9-0.2c0.2,0,0.3,0,0.5,0h0
							c-0.4,0.1-0.8,0.3-1.2,0.5c0,0,0,0,0,0c0-0.1-0.1-0.1-0.2,0c-0.1,0-0.1,0.1,0,0.2l0,0c-0.4,0.3-0.8,0.6-1.2,0.9
							c-0.5,0.4-1.1,0.7-1.7,1c-0.5,0.2-0.9,0.3-1.4,0.4c0.9-0.8,1.7-1.6,2.6-2.2C35.3,56.8,36.2,56.3,37.2,56.5z M37.3,53.6
							c0.7,0.2,1.2,0.7,1.9,1c-0.9,0.2-1.9,0.4-2.8,0.1c-0.5-0.1-0.9-0.4-1.3-0.7c-0.1-0.1-0.3-0.2-0.4-0.3c0.5,0,0.9,0.2,1.4,0.4
							c0.4,0.2,0.8,0.3,1.2,0.3c0,0,0.1,0,0.1-0.1s0-0.1-0.1-0.1l0,0c-0.6,0-1-0.3-1.5-0.5c-0.3-0.1-0.6-0.2-0.9-0.2
							C35.6,53.4,36.5,53.4,37.3,53.6L37.3,53.6z M38.8,55.7c0.6-0.1,1.1,0.8,1.3,1.3c0.3,0.5,0.5,0.9,0.6,1.5
							c0.2,0.8,0.3,1.7,0.3,2.5c-0.4-1.6-1.4-2.9-1.9-4.5c0-0.1-0.2-0.1-0.1,0c0.5,1.5,1.4,2.8,1.8,4.3
							C40.1,59.2,38.3,57.6,38.8,55.7L38.8,55.7z M36.2,62.8L36.2,62.8c-0.7,1.3-1.3,3-2.8,3.5c0.4-0.5,0.7-1.1,1-1.7
							C34.8,63.9,35.4,63.2,36.2,62.8L36.2,62.8z M36.4,59.7c-0.7,0.3-1.3,0.8-1.8,1.3c-0.6,0.7-1,1.6-1.7,2.1
							c-0.1,0.1,0,0.2,0.1,0.1c0.6-0.4,1-1,1.4-1.6c0.6-0.8,1.3-1.5,2.3-1.9c-0.7,0.9-1.3,1.8-2,2.6c-0.8,0.9-1.8,1.3-2.9,1.6
							c0.2-0.5,0.7-0.9,1.1-1.3c0.3-0.4,0.6-0.8,0.9-1.2C34.3,60.5,35.1,59.6,36.4,59.7L36.4,59.7z M37.6,58.6
							C37.6,58.6,37.6,58.6,37.6,58.6c0.7,0.9,1.3,1.9,1.7,3c0,0.1,0.2,0.1,0.1,0c-0.5-1.2-1.1-2.3-1.8-3.3c1.2,0.2,1.8,1.6,2,2.6
							c0.2,0.9,0.2,1.9,0.2,2.9c-0.4-0.9-0.8-1.8-1.3-2.7C38.1,60.2,37.8,59.4,37.6,58.6L37.6,58.6z M38.2,65.6L38.2,65.6
							c-0.8-1.7-1.9-3.7-1.3-5.6c0.4,0.9,0.9,1.8,1.2,2.7S38.3,64.6,38.2,65.6L38.2,65.6z M36,66c-0.2,0.8-0.4,1.5-0.7,2.3
							C35.1,68.6,35,69,35,69.3C34.7,68.1,34.9,66.7,36,66L36,66z M37.4,66.5c0.2,0.6,0.3,1.1,0.3,1.7c-0.7-1.1-1.2-2.2-1.4-3.5
							C37,65,37.3,65.9,37.4,66.5L37.4,66.5z"/>
						<path class="st3" d="M72.3,51.9c1.9,1,3.9,1.9,6,2.7c0.2,0.1,0.3-0.2,0.1-0.2c-2-0.8-4-1.7-6-2.7
							C72.3,51.5,72.2,51.8,72.3,51.9z"/>
						<path class="st3" d="M64.9,50.8c-0.1,0.1-0.1,0.2,0,0.3c0,0,0,0,0,0c1.5,1.3,3,2.5,4.8,3.2c-1.5-0.3-3-0.6-4.5-1
							c-0.3-0.1-0.3,0.3-0.1,0.4c1.1,0.3,2.2,0.5,3.4,0.8c-0.8,0.1-1.6,0.2-2.4,0.4c-0.6,0.2-1.3,0.3-1.9,0.4
							c-0.7,0.1-1.8,0.3-2.4-0.1c-0.1,0-0.1,0-0.2,0l0,0c-0.2-0.1-0.4,0.3-0.2,0.4c2.7,1.3,6.5,2.1,8.4-0.8c0,0,0,0,0,0
							c1.3,0.2,2.6,0.4,3.9,0.5c-2.6,0.9-5.5,1.6-6.4,4.5c-0.1,0.2,0.3,0.4,0.4,0.2c0,0,0,0,0-0.1c0,0,0.1,0,0.1,0
							c1.3-0.9,2.8-1.2,4.2-1.8c1.3-0.6,2.4-1.5,3.2-2.7c0,0,0,0,0,0c1.3,0.1,2.6,0.1,3.8,0c-1.7,0.9-3.4,1.7-4.9,2.8
							c-1.6,1.1-2.5,3.1-3.2,4.8c0,0.1,0,0.2,0.1,0.3c0.1,0,0.2,0,0.2-0.1h0.1c1.1-0.2,1.8-0.9,2.7-1.5c1-0.8,2.2-1.2,3.4-1.8
							c2-0.9,3.3-2.5,3.1-4.7c1.7-0.2,3.4-0.6,5-1.1c-0.8,1.8-2.3,3.2-3.7,4.6c-1.6,1.6-2.5,3.4-3.2,5.6l0,0
							c-0.1,0.2,0.1,0.4,0.3,0.3c2-1.7,4.2-3.3,5.9-5.3c1.3-1.5,2.1-3.5,1.3-5.4c1.1-0.4,2.2-1,3.2-1.6c-0.5,1.4-1,2.9-1,4.4
							c0,0.8,0.1,1.5,0.4,2.2c0.3,0.9,1,1.5,1.3,2.4c0,0.1,0.2,0.2,0.3,0.1c0,0,0.1,0,0.1-0.1c0,0,0.1-0.1,0.1-0.1
							c0.6-1.6,1-3.2,0.9-4.9c-0.1-1.7-1.1-3-1.4-4.6c0.8-0.6,1.5-1.2,2.2-1.9c0.2-0.2-0.1-0.4-0.3-0.3c-1.1,1.1-2.3,2.1-3.7,2.9
							c0.1-0.8-0.5-1.4-1-1.9c-0.8-0.8-1.7-1.5-2.8-2.1c-2-1.1-4.3-1.7-6.7-1.6c-0.3,0-0.2,0.4,0,0.4H78c0,0,0.1,0.1,0.1,0.1
							c3.1,1.4,5.4,5.6,9.1,5.6c-0.4,0.2-0.8,0.4-1.3,0.6c-0.1-0.1-0.2,0-0.2,0c0,0,0,0,0,0l0,0c-0.7,0.3-1.5,0.5-2.3,0.7
							c0.1-1.9-1.4-3.2-2.9-4.1c-2.1-1.3-4.8-1.6-7.2-1.8c-0.3,0-0.3,0.4-0.1,0.4h0c0,0,0,0.1,0.1,0.1c1.8,1.2,3.6,2.4,5.4,3.5
							c1.3,0.8,2.5,1.6,3.9,2c-0.7,0.1-1.4,0.3-2.1,0.3c0-0.1-0.1-0.1-0.2-0.1c0-0.1,0-0.1-0.1-0.2c-1.5-1-3-2.2-4.7-2.9
							s-3.7-0.8-5.5-1c0,0-0.1,0-0.1,0c-0.1,0-0.2,0-0.3,0.1c-0.1,0-0.2,0.2-0.1,0.3c0,0,0,0.1,0.1,0.1c2.3,1.4,4.8,3.4,7.5,4
							c-0.8,0-1.6,0-2.3-0.1c-0.1,0-0.1,0-0.2,0l0,0c-0.9-0.1-1.8-0.2-2.7-0.3c-0.2-1.2-1.3-1.8-2.3-2.4c-1.4-0.8-3-1.3-4.6-1.6
							C65.1,50.7,65,50.7,64.9,50.8C64.9,50.8,64.9,50.8,64.9,50.8z M83.9,59.8c-1.4,1.4-3,2.7-4.6,4c0.3-0.8,0.6-1.6,1-2.4
							c0.6-1,1.3-1.9,2.1-2.6c0.6-0.6,1.3-1.3,1.9-1.9c0,0,0,0,0,0c0.1,0.1,0.2,0.1,0.3,0c0.1-0.1,0.1-0.2,0-0.3l0,0l0,0
							c0.5-0.6,0.9-1.2,1.2-1.9c0,0,0,0.1,0,0.1c0,0.3-0.1,0.6-0.1,0.8c-0.1,0.5-0.3,1.1-0.6,1.5c-0.5,1.1-1.4,2-2.2,2.9
							c-0.1,0.1,0.1,0.3,0.2,0.2c0.9-1,1.8-2,2.4-3.2c0.3-0.5,0.5-1.1,0.6-1.7C86.1,57,85.1,58.6,83.9,59.8z M90.5,60.3
							c0-0.6,0-1.1-0.2-1.7c-0.2-0.9-0.5-1.8-0.4-2.8c0-0.1-0.1-0.1-0.1-0.1c-0.1,0-0.1,0-0.1,0.1c-0.1,0.8,0,1.5,0.2,2.2
							c0.2,0.8,0.4,1.7,0.3,2.5c-0.1-0.3-0.3-0.5-0.5-0.8c-0.5-0.8-0.8-1.6-0.9-2.5c-0.2-1.7,0.4-3.3,1-4.9c0.3,1.2,1,2.3,1.2,3.5
							C91.2,57.3,91,58.9,90.5,60.3z M79.5,47.7c2.5,1.1,4.5,3.1,7,4.3c0.2,0.1,0.3-0.2,0.1-0.2c-2.6-1.2-4.7-3.3-7.3-4.4
							c1.5,0.1,3,0.5,4.3,1.2c0.8,0.4,1.6,0.9,2.4,1.5c0.7,0.5,2.2,1.6,1.9,2.6C84.4,53,82.1,49.6,79.5,47.7z M71.1,58
							C70,58.4,69,58.7,68,59.3c1.2-2.5,4.4-3,6.8-3.9h0.1C73.8,56.6,72.6,57.5,71.1,58L71.1,58z M76.3,60.1
							c-0.8,0.3-1.6,0.7-2.3,1.2c-0.8,0.6-1.5,1.3-2.5,1.6c0.8-1.8,1.7-3.5,3.5-4.6c1.6-1,3.4-1.9,5.1-2.8c-0.9,1.5-2.2,2.7-3.8,3.5
							c-1.2,0.6-2.3,1.1-3.2,2c-0.1,0.1,0.1,0.3,0.2,0.2c1.1-1.2,2.8-1.7,4.2-2.5c1.1-0.7,2.1-1.7,2.8-2.8
							C80.2,58.1,78.3,59.2,76.3,60.1L76.3,60.1z M78.5,51.9L74.1,49c1.7,0.1,3.3,0.5,4.9,1c1.7,0.6,4.1,2.1,4.1,4.2
							c-1.6-1.6-3.3-2.9-5.2-4c-0.2-0.1-0.3,0.2-0.1,0.2c1.7,1,3.3,2.2,4.8,3.6c0,0,0,0.1,0,0.1C81,53.6,79.8,52.7,78.5,51.9
							L78.5,51.9z M75.5,52.1c1.6,0.6,3,1.8,4.4,2.7c-3.5,0.6-6.6-1.8-9.4-3.6l0,0C72.2,51.3,74,51.4,75.5,52.1L75.5,52.1z
							 M63.1,55.9c0.7,0,1.3-0.1,2-0.3c1.4-0.3,2.8-0.6,4.2-0.7C67.7,56.8,65.3,56.6,63.1,55.9L63.1,55.9z M71.5,54.6
							c-2.2-0.6-4-1.8-5.7-3.2c1,0.2,1.9,0.6,2.9,1C69.6,52.7,71.1,53.4,71.5,54.6L71.5,54.6z"/>
						<path class="st3" d="M22.8,24.7c1.9,1.7,3.9,3.4,6,4.9c0.2,0.1,0.4-0.1,0.2-0.2c-2.1-1.5-4.1-3.1-6-4.9
							C22.8,24.3,22.6,24.6,22.8,24.7z"/>
						<path class="st3" d="M14.7,21.3c-0.1,0.1-0.1,0.2-0.1,0.3c0,0,0,0,0,0c1.3,1.9,2.7,3.7,4.4,5.1c-1.6-0.8-3.2-1.6-4.8-2.5
							c-0.3-0.1-0.5,0.3-0.2,0.4c1.1,0.6,2.3,1.3,3.6,1.9c-0.9-0.2-1.9-0.3-2.8-0.3c-0.8,0-1.6,0-2.3-0.1c-0.8-0.1-2.1-0.2-2.7-0.8
							c-0.1-0.1-0.1-0.1-0.2,0l0,0c-0.2-0.2-0.5,0.2-0.3,0.4c2.7,2.2,6.7,4.3,9.8,1.6c0,0,0,0,0,0c1.4,0.7,2.8,1.3,4.3,1.8
							c-3.2,0.2-6.8,0.2-8.6,3.1c-0.2,0.3,0.2,0.6,0.4,0.3c0,0,0,0,0-0.1c0,0,0.1,0,0.1,0c1.7-0.6,3.5-0.5,5.3-0.7
							c1.6-0.3,3.2-1,4.4-2c0,0,0,0,0,0c1.4,0.5,2.9,0.9,4.3,1.2c-2.2,0.5-4.3,0.9-6.4,1.7c-2.2,0.8-3.7,2.7-5.1,4.5
							c-0.1,0.1-0.1,0.3,0.1,0.3c0.1,0.1,0.2,0.1,0.3,0h0c1.3,0.1,2.3-0.4,3.5-0.9c1.4-0.6,2.9-0.7,4.4-1c2.5-0.4,4.5-1.8,4.9-4.3
							c2,0.3,4,0.4,6,0.2c-1.4,1.8-3.5,2.9-5.5,4.1c-2.3,1.4-3.9,3.1-5.4,5.3l0,0c-0.2,0.2,0,0.5,0.2,0.4c2.8-1.3,5.7-2.5,8.3-4.2
							c1.9-1.3,3.4-3.3,3.1-5.7c1.4-0.2,2.8-0.5,4.1-0.9c-1,1.4-2,2.9-2.4,4.7c-0.2,0.9-0.3,1.8-0.2,2.7c0.1,1.1,0.6,2,0.7,3.1
							c0,0.1,0.1,0.2,0.3,0.2c0,0,0.1,0,0.1-0.1c0,0,0.1,0,0.1-0.1c1.2-1.6,2.1-3.4,2.5-5.3c0.4-1.9-0.4-3.7-0.2-5.6
							c1.1-0.4,2.1-0.9,3.1-1.5c0.3-0.2,0-0.5-0.3-0.4c-1.6,0.9-3.3,1.6-5,2.1c0.4-0.8-0.1-1.7-0.6-2.5c-0.7-1.2-1.5-2.2-2.5-3.2
							c-2-1.9-4.4-3.2-7-3.8c-0.3-0.1-0.4,0.4-0.1,0.5l0.1,0c0,0.1,0,0.1,0.1,0.2c3.1,2.5,4.5,8,8.6,9.1c-0.5,0.1-1.1,0.2-1.6,0.2
							c-0.1-0.1-0.2-0.1-0.3,0c0,0,0,0,0,0l0,0c-0.9,0.1-1.9,0.1-2.8,0.1c0.7-2.1-0.7-4.1-2.1-5.5c-2-2.1-4.9-3.2-7.6-4.2
							c-0.3-0.1-0.5,0.3-0.2,0.4l0,0c0,0,0,0.1,0.1,0.1l5,5.6c1.2,1.3,2.3,2.5,3.8,3.4c-0.8,0-1.6-0.1-2.4-0.2
							c0-0.1-0.1-0.2-0.1-0.2c0-0.1,0-0.2,0-0.2c-1.4-1.6-2.8-3.4-4.5-4.7s-3.9-2-5.9-2.8c0,0-0.1,0-0.1,0c-0.1,0-0.3,0-0.4,0
							c-0.1,0-0.2,0.1-0.2,0.2c0,0,0,0.1,0,0.1c2.1,2.3,4.4,5.3,7.3,6.8c-0.9-0.2-1.7-0.5-2.6-0.8c0-0.1-0.1-0.1-0.2-0.1l0,0
							c-1-0.3-2-0.7-3-1.1c0.1-1.4-0.9-2.4-1.9-3.3c-1.3-1.3-3-2.3-4.7-3.2C14.9,21.2,14.8,21.2,14.7,21.3z M33.4,37.2
							c-2,1.2-4.2,2.1-6.4,3.1c0.6-0.8,1.2-1.6,1.9-2.4c0.9-1,2.1-1.7,3.2-2.3c0.9-0.5,1.8-1.1,2.7-1.6c0,0,0,0,0,0.1
							c0.1,0.1,0.2,0.1,0.3,0.1s0.1-0.2,0.1-0.3c0,0,0,0,0,0c0.7-0.5,1.4-1.1,2-1.8c0,0,0,0.1,0,0.1c-0.3,0.9-0.9,1.8-1.5,2.5
							c-0.9,1-2.2,1.8-3.4,2.6c-0.2,0.1,0,0.4,0.2,0.3c1.3-0.9,2.6-1.7,3.7-2.9c0.5-0.5,0.9-1.1,1.2-1.7
							C36.9,34.7,35.2,36.1,33.4,37.2z M40.8,39.7c0.2-0.6,0.3-1.3,0.3-1.9c0-1.1-0.1-2.2,0.4-3.3c0-0.1,0-0.2-0.1-0.2
							c-0.1,0-0.2,0-0.2,0.1l0,0c-0.3,0.8-0.4,1.7-0.4,2.6c0,1-0.1,2-0.4,2.9c-0.1-0.4-0.2-0.7-0.3-1.1c-0.3-1-0.4-2.1-0.2-3.1
							c0.3-1.9,1.4-3.7,2.6-5.2c0,1.4,0.5,2.8,0.3,4.3C42.6,36.5,41.8,38.2,40.8,39.7L40.8,39.7z M32.1,22.2c2.5,2,4.2,4.8,6.6,6.9
							c0.2,0.1,0.3-0.1,0.2-0.2c-2.5-2.2-4.3-5.1-6.9-7.1c1.7,0.6,3.2,1.5,4.5,2.6c0.8,0.7,1.6,1.5,2.2,2.4c0.6,0.8,2,2.5,1.3,3.5
							C36.1,29.7,34.6,25.1,32.1,22.2z M19.6,31.3c-1.3,0.1-2.7,0.1-3.9,0.5c2.1-2.4,5.8-2.1,8.8-2.4l0.1,0
							C23.1,30.5,21.4,31.2,19.6,31.3L19.6,31.3z M24.8,35.1c-1,0.1-2,0.3-2.9,0.7c-1.1,0.4-2.1,1-3.3,1c1.4-1.8,3-3.5,5.3-4.2
							c2.1-0.7,4.4-1.1,6.6-1.6c-1.5,1.4-3.4,2.4-5.4,2.8c-1.5,0.3-2.9,0.5-4.2,1.3c-0.2,0.1,0,0.4,0.2,0.3c1.7-1,3.6-1,5.5-1.6
							c1.5-0.5,2.8-1.2,4-2.3C29.8,34.1,27.3,34.8,24.8,35.1L24.8,35.1z M29.7,26.6L25.7,22c1.9,0.6,3.6,1.5,5.3,2.6
							c1.7,1.2,4,3.6,3.3,5.9c-1.3-2.2-2.9-4.3-4.7-6.1c-0.1-0.1-0.3,0.1-0.2,0.2c1.6,1.6,3.1,3.5,4.3,5.5c0,0,0,0.1,0,0.1
							C32.1,29.3,31,27.9,29.7,26.6z M26.4,25.9c1.6,1.2,2.8,2.9,4.1,4.4c-4.1-0.3-7-4-9.6-7l0,0C22.8,24,24.8,24.7,26.4,25.9z
							 M11.2,26.5c0.8,0.1,1.6,0.2,2.3,0.3c1.7,0.1,3.3,0.2,4.9,0.5C16.1,28.9,13.4,27.9,11.2,26.5L11.2,26.5z M21.1,27.5
							c-2.3-1.3-4-3.3-5.5-5.4c1,0.6,2,1.2,2.9,2C19.5,24.8,21,26.1,21.1,27.5L21.1,27.5z"/>
						<path class="st3" d="M77.9,32.7c-2.3,2-3.7,5.9-0.8,8.1c-0.3,2,2.5,4.3,4.9,4.4c-0.5,2,2.3,2.3,3.7,2.1
							c0.5-0.1,0.9-0.3,1.3-0.5c0,0,0.1,0.1,0.1,0.1c2.8,1.2,8.1-0.7,7.6-4.1c2.3-0.9,3-3.4,3-5.7c0-1.1-0.4-2.1-1.2-2.8
							c-0.2-0.2-0.4-0.3-0.6-0.4c0.4-1-0.1-2.1-0.9-2.7c-0.5-0.4-1.2-0.6-1.8-0.5c-0.9-4.1-7-4.7-9.7-2c-1-0.1-2,0.1-2.9,0.6
							c-1,0.6-2.4,1.9-2.7,3.2C78,32.7,77.9,32.7,77.9,32.7z M79.5,35.7c-0.4-0.2-0.8-0.3-1.2-0.4c0-0.1,0-0.1,0.1-0.2l0.3,0.2
							c0.2,0.2,0.6-0.2,0.3-0.4l-0.4-0.3c0.1-0.1,0.2-0.3,0.2-0.4c0.2,0.2,0.5,0.5,0.8,0.7c0.3,0.2,0.6-0.2,0.3-0.4
							c-0.3-0.2-0.6-0.5-0.8-0.7c1.2-1.7,3.1-2.9,4.8-2.1c-0.1,0.4-0.1,0.9,0,1.3c-0.2,0.2-0.5,0.4-0.7,0.6
							c-0.2-0.4-0.4-0.8-0.6-1.1c-0.2-0.3-0.6,0-0.4,0.3c0.3,0.3,0.5,0.7,0.6,1.1c0,0,0,0.1,0,0.1l-0.2,0.2l-0.8-0.7
							c-0.2-0.2-0.6,0.1-0.3,0.4l0.8,0.7c-0.1,0.1-0.2,0.2-0.2,0.3l0,0l-0.7-0.4c-0.1-0.1-0.3,0-0.3,0.1c0,0.1,0,0.2,0.1,0.3
							c0.2,0.1,0.4,0.2,0.7,0.3c-0.4,0.6-0.7,1.2-0.9,1.9c-0.6-0.2-1.1-0.3-1.7-0.3c-0.3,0-0.4,0.4-0.1,0.5c0.6,0.1,1.1,0.2,1.7,0.3
							l-1.3,0.2c-0.3,0.1-0.3,0.5,0,0.5l1.4-0.2v0c-0.1,0-0.2,0.1-0.3,0.2c-0.2,0.4-0.3,0.9-0.4,1.3c0,0-0.1,0-0.1,0
							c-2.1-0.5-2.5-2.2-2-3.9c0.4,0.1,0.8,0.3,1.2,0.4C79.5,36.3,79.8,35.8,79.5,35.7L79.5,35.7z M91.4,33.9l1.1-0.6
							c0.4,1,0.6,2,0.6,3.1c-0.8-0.3-1.9-0.1-2.8,0.2c0-0.1-0.1-0.2-0.1-0.4c-0.2-0.3-0.4-0.6-0.7-0.9l0.9-1
							c0.2-0.2-0.2-0.6-0.4-0.3c-0.3,0.4-0.6,0.7-0.9,1.1L89,35c0.3-0.9,0.9-2.6-0.1-3.1c-1.3-0.7-3.2,0.1-4.4,0.8l0,0
							c-0.4-2.3,4.9-1.6,5.8-1.4c0.3,0.1,0.5,0.2,0.8,0.3l0,0c0,0,0,0.1,0,0.1c-0.3,0.4-0.6,0.9-0.9,1.3c-0.2,0.3,0.3,0.5,0.4,0.2
							l0.8-1.2c0,0,0.1,0,0.1,0l0.1-0.1c0.3,0.3,0.5,0.6,0.6,0.9l-1.1,0.6C90.9,33.6,91.2,34,91.4,33.9z M93.8,38.2
							c0.3,0.8,0.1,1.7-0.1,2.4c0,0.2-0.1,0.3-0.1,0.5c-0.5-0.3-1-0.5-1.5-0.7c-0.3-0.1-0.4,0.4-0.1,0.5c0.5,0.2,1,0.4,1.4,0.7
							c-0.1,0.2-0.2,0.3-0.3,0.4c-0.2-0.1-0.3-0.2-0.5-0.2c-0.3-0.1-0.5-0.1-0.8-0.1c-0.3,0-0.3,0.5,0,0.5c0.2,0,0.4,0,0.6,0.1
							c0.1,0,0.2,0.1,0.3,0.1l0,0c0,0,0,0,0,0.1c-0.3,0.2-0.6,0.5-0.9,0.7c-0.5,0.3-1,0.5-1.5,0.7c0-0.4,0-0.8,0.1-1.2
							c0-0.1-0.1-0.3-0.2-0.3c-0.1,0-0.3,0.1-0.3,0.2c-0.1,0.5-0.1,0.9-0.1,1.4c-0.4,0-0.7,0-0.8-0.4c0.1-0.4,0.2-0.9,0.3-1.3
							c0-0.1-0.1-0.3-0.2-0.3c-0.1,0-0.2,0.1-0.3,0.2c0,0.2-0.1,0.5-0.1,0.7c-0.1-0.5-0.2-0.9-0.4-1.3c0.6-0.1,1.1-0.3,1.5-0.7
							c0.6-0.6,0.9-1.5,0.9-2.4l1.1-0.1c0.3,0,0.3-0.5,0-0.5l-1,0.1c0-0.2,0-0.4-0.1-0.7C91.8,36.8,93.2,36.7,93.8,38.2L93.8,38.2z
							 M82.8,43.4c-2.2-0.9-2.1-2.9-1.5-4.7c0.2,0.2,0.5,0.3,0.8,0.4c0,0.2,0,0.5,0.1,0.7c0.3,0.8,1.1,1.1,1.8,1.3l-0.4,0.6
							c-0.1,0.1,0,0.3,0.1,0.3c0.1,0.1,0.3,0,0.3-0.1l0.5-0.7c0,0,0,0,0,0c0.1,0,0.2,0,0.3,0c-0.1,0.5-0.2,1-0.4,1.5
							c0,0.1,0,0.3,0.2,0.3c0,0,0.1,0,0.1,0L85,43c0.1-0.1,0.2-0.2,0.1-0.3c0,0,0-0.1-0.1-0.1c0.1-0.4,0.2-0.9,0.3-1.3l0.2,0
							c0,0.1,0,0.1,0,0.2c0.1,0.3,0.2,0.7,0.2,1.1c0,0.1,0.1,0.2,0.3,0.2c0.1,0,0.2-0.1,0.2-0.2c0-0.4-0.1-0.7-0.2-1.1
							c0.5,0.1,1,0.2,1.5,0.2c0,0,0,0.1,0,0.1C89,44.6,84.1,44,82.8,43.4L82.8,43.4z M80.1,41C80.1,41,80.1,41,80.1,41L80.1,41
							C80.1,41,80.1,41,80.1,41L80.1,41z M84.5,33.5c0.6-0.4,1.3-0.7,2-0.9c0.4-0.1,0.8-0.2,1.3-0.2c1.4-0.1,0.7,1.7,0.5,2.4
							c-0.6-0.1-1.2-0.1-1.7,0c-0.1,0-0.3,0.1-0.4,0.1c0.1-0.3,0.1-0.5,0.2-0.8c0-0.1-0.1-0.3-0.2-0.3c-0.1,0-0.2,0.1-0.3,0.2
							c-0.1,0.3-0.1,0.6-0.2,0.9c0,0.1,0,0.1,0,0.2l0,0l0,0c-0.1-0.2-0.1-0.5-0.2-0.7c-0.1-0.3-0.5-0.2-0.5,0.1
							c0.1,0.2,0.1,0.5,0.2,0.7c0,0,0,0.1,0,0.1c-0.2,0.1-0.3,0.2-0.5,0.3c-0.2-0.2-0.4-0.4-0.7-0.6c-0.3-0.1-0.5,0.3-0.2,0.4
							c0.2,0.1,0.4,0.2,0.6,0.4c-0.5,0.5-0.9,1.1-1.1,1.8c-0.4,0.2-0.7,0.4-1,0.7c-0.5-0.1-0.7-0.4-0.8-0.7c0.2,0,0.4,0,0.6,0.1
							c0.3,0.1,0.5-0.3,0.2-0.4c-0.3-0.1-0.5-0.2-0.8-0.2c0.2-0.9,1-1.9,1.2-2.2C83.3,34.4,83.9,33.9,84.5,33.5L84.5,33.5z
							 M89.8,37.3c0.2,1.1,0.1,2.4-0.8,3.1c-0.9,0.6-2.3,0.4-3.3,0.1c0.2-0.3,0.4-0.6,0.6-0.9c0.1-0.1,0.1-0.1,0.1-0.2
							c0.2,0,0.4-0.1,0.6-0.1c0,0,0,0.1,0.1,0.1c0.1,0.1,0.1,0.2,0.2,0.3c0.1,0.1,0.1,0.2,0.1,0.2c0,0,0,0.1,0,0.1
							c0,0.1,0.1,0.1,0.1,0.1c0.1,0.1,0.3,0,0.3-0.1c0,0,0,0,0-0.1c0.1-0.2-0.1-0.4-0.2-0.5c-0.1-0.1-0.1-0.2-0.2-0.3l0,0
							c0.4-0.2,0.6-0.8,0.4-1.2l1.3-0.3c0.3-0.1,0.2-0.5-0.1-0.5l-1,0.3l0.8-0.6c0.1-0.1,0.1-0.2,0.1-0.3c-0.1-0.1-0.2-0.1-0.3-0.1
							l-0.9,0.6l0.5-0.9c0.1-0.1,0-0.3-0.1-0.3c-0.1,0-0.2,0-0.3,0.1l-0.5,1c-0.3-0.2-0.7-0.4-1-0.3c-0.3,0.1-0.5,0.3-0.7,0.5h0
							c-0.4,0-0.8,0.1-1.2,0.2c0.4-0.7,0.9-1.3,1.6-1.6C87.4,34.9,89.5,35.5,89.8,37.3L89.8,37.3z M84.8,40.4
							c-0.4,0.5-1.6-0.4-1.8-0.7c-0.7-1,0.9-1.5,1.9-1.7c-0.2,0.3-0.3,0.6-0.5,0.8c0,0.1-0.1,0.1,0,0.2l-0.6,0.5
							c-0.2,0.2,0,0.6,0.3,0.4l0.5-0.4c0.1,0.1,0.2,0.2,0.3,0.2l0.6-0.1L84.8,40.4z M86.6,38.6L86.6,38.6L86.6,38.6
							C86.6,38.7,86.6,38.6,86.6,38.6L86.6,38.6z M87,37.8c0.1,0.1,0.2,0.3,0.3,0.5c0,0.1-0.1,0.2-0.2,0.2l-0.2-0.5
							c0-0.1-0.2-0.2-0.3-0.2c0,0,0,0,0,0c0-0.1-0.2-0.2-0.3-0.2c-0.1,0-0.2,0.1-0.2,0.2l0,0.8l-0.9,0.1c0.2-0.4,0.5-0.7,0.7-1.1
							c0.1-0.2,0.3-0.5,0.6-0.4C86.7,37.5,86.9,37.7,87,37.8L87,37.8z M87.4,40.1C87.4,40.1,87.4,40.1,87.4,40.1z M89.5,30.3
							c-0.5-0.1-1-0.1-1.5-0.1c0.1-0.2,0-0.4-0.1-0.6c-0.2-0.3-0.6,0-0.4,0.3c0.1,0.1,0,0.2,0,0.3c0,0,0,0.1,0,0.1
							c-0.6,0-1.2,0.1-1.7,0.2c0,0,0,0,0,0c0.6-1.2,2.2-1.3,3.4-0.9c0.6,0.2,1.1,0.6,1.4,1.1C90.2,30.5,89.9,30.4,89.5,30.3
							L89.5,30.3z M78.6,39.8c0.4,0.3,0.9,0.5,1.4,0.6c0,0,0.1,0,0.1,0v0.1c-0.5,0-1.1,0-1.6,0.1c-0.3,0-0.3,0.5,0,0.5
							c0.4,0,0.9-0.1,1.3-0.1l-1.3,0.4c-0.1,0-0.2,0.2-0.2,0.3s0.2,0.2,0.3,0.2l0,0l1.3-0.4c0.1,0,0.1-0.1,0.1-0.1
							c0,0.2,0.1,0.4,0.2,0.6c-0.1,0-0.1,0-0.1,0.1l-0.4,0.4c-0.2,0.2,0.1,0.5,0.4,0.3l0.4-0.4c0.6,1,1.6,1.8,2.7,2.1
							C80.7,45.5,75.8,41.6,78.6,39.8L78.6,39.8z M86.1,46.5c-0.4,0.1-0.9,0.2-1.3,0.2c0.2-0.3,0.3-0.6,0.4-0.9
							c0.1-0.3-0.4-0.4-0.5-0.1c-0.1,0.4-0.3,0.7-0.5,1c-0.2,0-0.4,0-0.6-0.1l0.2-0.3c0.1-0.2,0.2-0.4,0.4-0.6
							c0.2-0.3-0.3-0.5-0.4-0.2l-0.4,0.6c-0.1,0.1-0.1,0.2-0.2,0.3c-0.4-0.2-0.6-0.7-0.5-1.2c0.5-0.1,1-0.3,1.4-0.6
							c1.1,0.2,2.7,0.2,3.7-0.3C87.9,45.3,87.1,46.1,86.1,46.5L86.1,46.5z M87.7,46.4c0.4-0.4,0.7-0.9,0.9-1.4l0.8,0.9
							c0.2,0.2,0.5-0.1,0.3-0.4l-1-1.2l0,0c0.4,0.3,1,0.4,1.6,0.2c0,0,0,0.1,0,0.1l0,0.7c0,0.1,0.1,0.2,0.3,0.2
							c0.1,0,0.2-0.1,0.2-0.2l0-0.7c0-0.1,0-0.1-0.1-0.2c1.3-0.4,2.4-1.2,3.1-2.3C95.3,45.4,90.2,47.2,87.7,46.4L87.7,46.4z
							 M96.9,36.3c0.7,2.1-0.4,5-2.4,5.9c-0.1-0.3-0.2-0.5-0.4-0.7c0,0,0-0.1,0-0.1c0.5-1.1,0.5-2.4,0.2-3.5l1,0.2
							c0.3,0.1,0.4-0.4,0.1-0.5l-1.2-0.2c0,0,0,0-0.1,0c0-0.1-0.1-0.1-0.1-0.2l0,0l1.3-0.3c0.3-0.1,0.2-0.5-0.1-0.5l-1.3,0.3
							c-0.1-0.7-0.2-1.4-0.3-2c0.3,0,0.5,0,0.8,0C95.7,34.4,96.5,35,96.9,36.3L96.9,36.3z M95.3,33.8c-0.6,0-1.2,0.1-1.9,0
							c-0.2-0.8-0.6-1.5-1.1-2.1c0.6-0.2,1.2-0.2,1.8-0.1c0.9,0.2,1.5,1.1,1.3,2C95.4,33.6,95.3,33.8,95.3,33.8z M92.6,30.9
							c-0.3,0.1-0.5,0.1-0.8,0.2l-0.1,0c-0.6-1.3-1.8-2.3-3.2-2.5c-1.2-0.3-2.4,0.2-3.2,1.2c-0.3-0.3-0.6-0.5-0.9-0.7
							C86.8,27,91.7,27.6,92.6,30.9L92.6,30.9z M80.8,30.2c0.8-0.6,1.7-0.9,2.7-0.7c0.1,0.1,0.2,0.1,0.3,0.1
							c0.5,0.1,0.9,0.5,1.2,0.9l0,0.1c0,0,0,0.1,0,0.1c-0.2,0.1-0.5,0.2-0.7,0.4c-0.2-0.5-0.4-0.9-0.6-1.4c-0.1-0.3-0.6-0.1-0.5,0.1
							c0.2,0.3,0.3,0.7,0.4,1c-0.4-0.1-0.8-0.2-1.2-0.1c-0.1-0.1-0.1-0.3-0.2-0.4c-0.1-0.1-0.2-0.1-0.3-0.1
							c-0.1,0.1-0.1,0.2-0.1,0.3l0.1,0.2c-1.2,0.3-2.4,1.1-3.2,2.2C78.8,32,80.2,30.8,80.8,30.2z M78.2,33.8
							c-0.3,0.4-0.5,0.9-0.6,1.3c-0.1,0.1-0.1,0.2-0.1,0.3c-0.3,1.1-0.4,2.2,0.1,3.1l-0.8-0.3c-0.3-0.1-0.5,0.3-0.2,0.4l0.8,0.3
							c-0.1,0-0.2,0.1-0.2,0.1c-0.3,0.3,0.3,0.7,0.4,0.3c0.1,0,0.2,0,0.2,0c0.1,0,0.2,0,0.3,0c-0.3,0.2-0.5,0.4-0.6,0.7
							c-2.1-1.9-1-4.8,0.8-6.5C78.1,33.7,78.1,33.8,78.2,33.8z"/>
						<path class="st3" d="M91.9,38.7l-0.8-0.2c-0.3-0.1-0.4,0.4-0.1,0.5l0.8,0.2c0.1,0,0.3-0.1,0.3-0.2
							C92.1,38.9,92,38.8,91.9,38.7L91.9,38.7z"/>
						<path class="st3" d="M64.5,37c-0.6-0.2-1.1-0.3-1.6-0.5c-0.9-0.3-1.6-0.5-2.2-0.4C60,36.3,59.6,36,59.6,36l-0.2-0.2l-0.1,0.3
							c0,0.1-0.2,0.9,1.8,2.3c0.9,0.6,1.4,0.9,1.8,1.2c0.3,0.2,0.6,0.4,0.9,0.7c0.4,0.5,1.6,1.4,4,1.6c0.4,0.6,0.8,1.1,1.4,1.6
							c-2.5-0.5-5-0.8-7.6-0.8l-0.4-0.1c0,0-1.5-0.4-2-1.3c-0.6-1.1-2.8-4.1-5.6-3.6c-1.6,0.2-3.2,0.1-4.8-0.5l-0.7-0.3l0.5,0.6
							c0.1,0.1,2,2.5,3.6,2.7c1.6,0.2,3.7,1.7,3.8,1.7c0.3,0.2,0.9,0.6,2.6,0.9c-2.7,0.2-5.4,0.6-8.1,1.2v0c0,0-2-0.3-3.2-1.3
							c-1.3-1.2-4.9-2.1-8-1.6L39,41.1l0.2,0.3c0.1,0.1,2.2,3.2,4.8,3.1c1.5-0.1,3.5-0.1,5-0.1c-2.8,0.7-5.6,1.5-8.3,2.5l-0.1,0
							c-2.1-0.9-3.3,0.7-3.8,1.3l-0.1,0.1c-0.3,0.4-1.3,0.7-1.7,0.8l-0.7,0.2l0.8,0.3c1.2,0.3,3.3-0.2,4.2-1.3
							c0.3-0.4,0.7-0.7,1.2-1c2.2-0.8,4.3-1.5,6.3-2.1l-0.2,0.1l-0.3,0.1c-1.2,0.5-3.6,1.5-4.9,3.4l-1.7,2.4l0.5-0.1
							c0.1,0,2.8-0.5,3.8-1.4c0.5-0.4,0.9-1,1.2-1.5c0.2-0.3,0.4-0.6,0.7-0.9c0.6-0.4,2-2.1,2.3-2.5c2-0.5,4-0.9,5.8-1.3
							C53.2,44,52.5,44.4,52,45c-0.6,0.6-0.9,1.4-1.3,2.1c-0.5,1-0.9,2.1-2,2.7l-0.8,0.5l0.9-0.1c0.1,0,3.6-0.5,4.7-2.6
							c0.3-0.6,0.5-1.2,0.7-1.8c0.2-0.8,0.3-1.4,1.7-2.3l0.2-0.1c2.2-0.3,4.5-0.4,6.7-0.3c-0.4,0.3-1.4,0.9-2.3,1.1
							c-1.5,0.2-3.9,2-5.3,4.2L55,48.7l0.3,0c0.1,0,3.2,0.3,4.5-1.3c1.2-1.6,3.4-4.1,3.4-4.2l-0.1-0.1c1.5,0.1,3,0.2,4.5,0.5
							c-0.4,0.1-0.7,0.3-1,0.4c-0.5-0.1-2.7-0.5-4.6,3.2c-1.2,2.3-1.2,2.8-1.1,3.4c0,0.3,0.1,0.7-0.4,1.7l-0.1,0.3h0.3
							c0.1,0,1.9,0,2.5-1.1c0.1-0.2,0.2-0.4,0.3-0.6c0.5-0.9,1-2,1.7-2.5c1-0.6,1.6-2.2,1.7-4c0.5-0.3,1-0.4,1.5-0.5v-0.1
							c2.3,0.5,4.5,1.2,6.7,2.1l1.6,0.8l0.2-0.4c0,0-1.4-0.7-1.6-0.8c-1.7-0.7-3.5-1.4-5.3-1.8c-0.3-0.2-1.4-1.2-1.8-2l0,0l-0.1-0.1
							c-0.2-0.4-0.3-0.8-0.4-1.2C67.6,39.5,66.4,37.5,64.5,37z M45.9,43.1c-1.1-0.5-2.3-0.9-3.5-1.2L42,41.3
							c1.1,0.1,2.2,0.3,3.3,0.7c0.5,0.3,1,0.7,1,0.9c0,0.2,0.1,0.4,0.2,0.5C46.3,43.3,46.1,43.2,45.9,43.1L45.9,43.1z M40.2,41.3
							c0.5,0,1.1-0.1,1.6,0l0.4,0.6C41.4,41.7,40.7,41.5,40.2,41.3L40.2,41.3z M46.4,42.9c0-0.2-0.2-0.4-0.4-0.6
							c0.4,0.2,0.8,0.4,1.1,0.6c0.5,0.4,1,0.7,1.5,0.9c-0.5-0.1-1.1-0.2-1.6-0.3C46.8,43.4,46.4,43.1,46.4,42.9L46.4,42.9z
							 M39.8,41.5c1,0.3,3.6,0.9,5.2,1.5c-0.4,0-0.7,0.3-0.9,0.6c0,0-0.1,0.1-0.1,0.1c-0.3,0.2-0.6,0.3-0.9,0.3
							C41.5,43.6,40.3,42.1,39.8,41.5L39.8,41.5z M43.6,44.1c0.2,0,0.3-0.1,0.5-0.2c0,0,0.1-0.1,0.1-0.2c0.2-0.3,0.5-0.7,1.4-0.5
							l0,0l0.3,0.1c0.3,0.2,0.7,0.3,1.1,0.4l0.1,0v0c0.4,0.1,0.7,0.2,1.1,0.2c-1.3,0-2.9,0-4.2,0.1C43.8,44.1,43.7,44.1,43.6,44.1
							L43.6,44.1z M39.7,47c-0.2,0.1-0.5,0.1-0.7,0.2c-0.4,0.1-0.4,0.3-0.5,0.4c0,0,0,0.1-0.1,0.1c-0.3,0.1-0.7,0.2-1,0.1
							C38,47.4,38.7,46.9,39.7,47L39.7,47z M37,48.4c0.1-0.1,0.2-0.2,0.3-0.4c0.2,0.1,0.7,0.1,1,0c-0.1,0.1-0.2,0.2-0.2,0.2
							c-0.4,0.3-1.1,0.6-1.8,0.7c0.2-0.1,0.4-0.3,0.6-0.5C36.9,48.5,37,48.5,37,48.4L37,48.4z M37.2,49c0.4-0.1,0.8-0.3,1.1-0.6
							c0.2-0.2,0.4-0.4,0.5-0.7c0.1-0.1,0.1-0.2,0.4-0.3c0.2-0.1,0.4-0.1,0.6-0.2c-0.3,0.2-0.6,0.5-0.8,0.8
							C38.4,48.5,37.8,48.8,37.2,49L37.2,49z M60.6,44.6c0.4-0.1,0.8-0.2,1.2-0.4c-0.3,0.3-0.6,0.5-0.9,0.7c-0.2,0.1-0.5,0.1-0.7,0
							c-0.1-0.1-0.3-0.1-0.5-0.1C60,44.7,60.3,44.7,60.6,44.6L60.6,44.6z M57.5,47l-0.6-0.1c0.6-0.7,1.4-1.2,2.2-1.7
							c0.5-0.1,0.9-0.2,1-0.1c0.1,0.1,0.2,0.1,0.4,0.1c-0.1,0.1-0.2,0.1-0.4,0.2C59.2,45.9,58.3,46.4,57.5,47L57.5,47z M57.2,47.1
							c-0.5,0.3-0.9,0.6-1.2,0.8c0.2-0.3,0.5-0.6,0.7-0.9L57.2,47.1z M55.8,48.4c0.7-0.5,2.4-1.7,3.5-2.3c-0.1,0.3-0.2,0.5-0.1,0.8
							c0,0.1,0,0.1,0,0.1c0,0.2-0.1,0.4-0.3,0.6C58.1,48.3,56.5,48.4,55.8,48.4L55.8,48.4z M59.5,47.2c0-0.1,0.1-0.2,0-0.3l0,0
							c0,0,0-0.1,0-0.2c-0.1-0.3-0.2-0.6,0.4-1.1l0,0c0.1,0,0.1-0.1,0.2-0.1c0.3-0.1,0.6-0.3,0.8-0.5l0.1,0v0
							c0.2-0.1,0.3-0.3,0.5-0.4C60.9,45.5,60.1,46.4,59.5,47.2L59.5,47.2z M66.3,44.4c-0.5,0.3-0.9,0.7-1.3,1.2
							c-0.1,0-0.2,0-0.3-0.1c0,0-0.1-0.1-0.1-0.1c-0.1-0.1-0.3-0.2-0.5-0.2C65.1,44.4,65.9,44.4,66.3,44.4L66.3,44.4z M62.4,47.4
							c0.4-0.7,0.8-1.4,1.4-1.9c0.4-0.2,0.5-0.1,0.6,0.1c0,0.1,0.1,0.1,0.2,0.1c0.1,0,0.2,0.1,0.3,0.1c-0.1,0.1-0.2,0.3-0.3,0.4
							c0,0-0.1,0.1-0.2,0.2l0,0c0,0,0,0,0,0c-0.2,0.3-0.7,0.9-1.1,1.5l0,0c-0.1,0.1-0.3,0.1-0.4,0.1c-0.3,0-0.6,0-0.9,0.2
							C62.1,48.1,62.2,47.8,62.4,47.4L62.4,47.4z M61.3,50.5c0-0.3-0.1-0.7,0.4-1.8c0.2-0.3,0.6-0.5,1-0.5c0.1,0,0.2,0,0.3,0
							c-0.5,0.8-1,1.6-1.1,2.1c-0.2,0.5-0.4,1-0.8,1.4C61.3,51.4,61.4,51,61.3,50.5L61.3,50.5z M61.1,52.2c0.5-0.5,0.9-1.1,1.1-1.7
							c0.1-0.3,0.2-0.6,0.4-0.9c0.1,0.3,0.1,0.6,0,0.9c-0.1,0.3,0,0.7,0.3,0.9C62.4,51.9,61.6,52.1,61.1,52.2L61.1,52.2z M63.1,50.7
							C63,50.8,63,51,62.9,51.1c-0.2-0.1-0.3-0.4-0.2-0.6c0.1-0.4,0.1-0.9,0-1.3c0.5-0.9,1.3-2,1.7-2.5c0.1,0.3,0.2,0.8,0.1,1
							c-0.1,0.2-0.1,0.5,0,0.7C64,49,63.5,49.9,63.1,50.7L63.1,50.7z M65,48.1c-0.1,0.1-0.2,0.1-0.2,0.2c-0.1-0.1-0.1-0.3,0-0.5
							c0.1-0.2,0.1-0.4,0-0.6c0-0.2-0.1-0.5-0.2-0.7c0.1-0.1,0.1-0.2,0.1-0.2c0.5-0.7,1.1-1.3,1.8-1.8C66.4,46.2,65.8,47.6,65,48.1
							L65,48.1z M58.9,41.5c0.2,0.3,0.4,0.6,0.8,0.8c-0.8-0.3-1.9-0.8-2.4-1.5c-0.6-0.6-1.3-1.1-2.1-1.4c-0.1-0.1-0.4-0.4-0.4-0.6
							c0-0.2-0.3-0.5-0.6-0.7C56.5,38,58.4,40.5,58.9,41.5z M53.7,38.1L53.7,38.1c0.5,0.2,0.9,0.6,0.9,0.7c0,0.2,0.1,0.3,0.2,0.5
							c-0.6-0.2-1.2-0.3-1.9-0.3c-0.6,0-1.8-0.5-2.7-0.9C51.3,38.2,52.5,38.2,53.7,38.1z M49.5,37.8c0.8,0.4,1.5,0.7,2.4,1
							c-0.1,0.3-0.4,0.4-0.7,0.4C50.5,38.9,50,38.4,49.5,37.8L49.5,37.8z M51.4,39.5c0.3-0.1,0.5-0.3,0.6-0.5
							c0.3,0.1,0.6,0.1,0.8,0.1c0.7,0,1.5,0.2,2.2,0.5l0,0l0,0c0.7,0.3,1.4,0.7,1.9,1.2c-0.2,0-0.5,0.1-0.6,0.3
							c-0.2,0.1-0.5,0.2-0.7,0.1c-0.8-0.5-2.2-1.3-3.3-1.4C52,39.7,51.7,39.6,51.4,39.5L51.4,39.5z M56.2,41.6c0,0-0.1-0.1-0.3-0.2
							c0.2,0,0.4-0.1,0.5-0.2c0.2-0.1,0.4-0.2,0.7-0.2c0.6,0.7,1.7,1.3,2.5,1.5C57.2,42.3,56.5,41.8,56.2,41.6L56.2,41.6z
							 M46.8,45.9c-0.3,0.4-0.7,0.8-1,1.1l0-0.4L46.8,45.9z M44.6,47.1c-0.2,0.1-0.4,0.3-0.5,0.5v0c-0.4,0.2-0.9,0.4-1.4,0.4
							c1.1-0.8,2.2-1.5,3.5-2C45.6,46.5,44.9,47,44.6,47.1L44.6,47.1z M42.6,48.2c0.3,0.1,0.9-0.1,1.3-0.3c-0.1,0.1-0.2,0.3-0.3,0.4
							c-0.1,0.2-0.3,0.4-0.4,0.6c-0.4,0.5-1.8,1.3-2.6,1.8l1.1-1.5C41.9,48.9,42.2,48.5,42.6,48.2L42.6,48.2z M41,50.8
							c0.7-0.4,1.4-0.9,2.1-1.4c0,0.2,0.1,0.4,0.2,0.5C42.5,50.3,41.8,50.6,41,50.8L41,50.8z M44.7,48.2c-0.3,0.5-0.6,1-1.1,1.4
							c-0.1,0.1-0.1,0.1-0.2,0.2c-0.1-0.2-0.3-0.5-0.1-0.7l0,0c0.2-0.2,0.3-0.4,0.4-0.6c0.2-0.4,0.6-0.8,1-1.1l0.8-0.6l0,0.4l0,0
							C45.2,47.5,44.9,47.8,44.7,48.2L44.7,48.2z M54.6,43.9c-0.5,0.4-0.9,0.9-1.3,1.4l0,0c-0.2,0.1-0.5,0.2-0.8,0.3
							c-0.3,0-0.5,0.1-0.8,0.2c0.1-0.2,0.3-0.4,0.5-0.6C52.9,44.6,53.7,44.2,54.6,43.9z M51.1,47.2c0.2-0.4,0.4-0.8,0.6-1.1
							c0.3-0.2,0.6-0.3,0.9-0.3c0.2,0,0.5,0,0.7-0.2c-0.2,0.3-0.3,0.7-0.5,1.1c-0.3,0.6-0.7,1.2-1.2,1.6c-0.3,0-0.6,0-0.9,0.1
							C50.7,48,50.9,47.6,51.1,47.2L51.1,47.2z M51.2,48.5c-0.5,0.4-1,0.7-1.5,1.1c0.3-0.3,0.5-0.6,0.7-0.9
							C50.6,48.5,50.9,48.4,51.2,48.5L51.2,48.5z M50.2,49.5c0.8-0.5,1.6-1.1,2.2-1.9c0,0.2,0.1,0.4,0.2,0.6
							C51.9,48.8,51.1,49.2,50.2,49.5L50.2,49.5z M53.8,45.7c-0.1,0.6-0.3,1.2-0.6,1.7c-0.1,0.2-0.3,0.4-0.4,0.6
							c-0.1-0.2-0.2-0.5-0.1-0.6l-0.1,0c0.1-0.2,0.2-0.4,0.3-0.6c0.3-0.9,0.8-1.7,1.4-2.3C54,44.8,53.9,45.3,53.8,45.7L53.8,45.7z
							 M62.8,36.9c0.3,0.1,0.6,0.2,1,0.3c0.2,0.2,0.2,0.5,0.1,0.7c0,0.1,0,0.2,0,0.3L63.3,38v0h-0.1L62,37.4l-0.2-0.1v0
							c-0.2-0.1-0.5-0.3-0.5-0.4c0-0.2-0.1-0.3-0.2-0.4C61.7,36.5,62.3,36.7,62.8,36.9z M65.2,39.8c-0.1,0.1-0.2,0.2-0.3,0.3
							c-0.1,0.1-0.6-0.1-0.9-0.3c-0.3-0.2-0.6-0.4-0.9-0.6c-0.3-0.2-0.6-0.4-1.1-0.7c0.2,0,0.4,0,0.6-0.1c0.2-0.1,0.4-0.2,0.6-0.3
							l1.1,0.5c0.5,0.2,0.9,0.4,1.4,0.7C65.5,39.5,65.3,39.6,65.2,39.8L65.2,39.8z M60.8,36.5c0,0,0.1,0,0.1,0
							c0.1,0.1,0.2,0.3,0.2,0.4c0,0,0,0.1,0.1,0.1l-1.1-0.5C60.4,36.6,60.6,36.5,60.8,36.5z M59.8,36.7l2.1,0.9l1,0.4
							c-0.2,0.1-0.3,0.1-0.4,0.2c-0.2,0.1-0.6,0-1-0.1l-0.1-0.1C60.4,37.4,60,37,59.8,36.7z M64.5,40.3c0.2,0.1,0.3,0.1,0.5,0
							c0.1-0.1,0.2-0.2,0.3-0.3c0.2-0.3,0.4-0.4,0.5-0.4v0c0.1,0.1,0.2,0.3,0.4,0.4c0.1,0.2,0.2,0.4,0.3,0.6
							c0.1,0.2,0.2,0.3,0.3,0.5c0.1,0.1,0.2,0.3,0.3,0.4C66.2,41.2,65.3,40.9,64.5,40.3z M67.4,40.5c0.1,0.3,0.1,0.6,0.3,1h0
							c-0.3-0.1-0.5-0.3-0.6-0.6c-0.1-0.2-0.2-0.3-0.3-0.5c-0.1-0.2-0.2-0.4-0.3-0.6c-0.5-0.7-1.3-1.1-2-1.4
							c-0.1-0.1-0.4-0.3-0.3-0.5c0.1-0.2,0.1-0.5,0-0.7l0.3,0.1C66.1,37.8,67.2,39.6,67.4,40.5L67.4,40.5z"/>
						<path class="st3" d="M53.7-8.9l-1.1,1l-0.1,0c-0.1,0-3.6,0.8-5.2-0.4L47-8.6l0.3-0.2c0.1-0.1,3.2-1.6,6-0.3L53.7-8.9z
							 M52.3-8.4l0.4-0.4c-1.9-0.7-3.9-0.1-4.8,0.3C49.4-7.8,51.9-8.3,52.3-8.4L52.3-8.4z"/>
						<path class="st3" d="M53.2-8.6L52.8-8c-1.9,3.5-8.3,4.9-10.9,5c-0.9,0-1-0.1-1.1-0.2c-0.1-0.1-0.1-0.2,0-0.3
							c0.3-0.6,8.3-3.6,11.7-4.8L53.2-8.6z M41.6-3.5c1.7,0,8-0.9,10.4-4.1C48.3-6.2,43.1-4.2,41.6-3.5L41.6-3.5z"/>
						<path class="st3" d="M50-4.5l0.5,1c0.1,0.2,2.8,4.9,1.8,8c-0.1,0.2-0.2,0.7-0.6,0.7c-0.7-0.1-1.2-3-1.6-8.6L50-4.5z M51.7,4.6
							c0-0.1,0.1-0.2,0.1-0.3c0.7-2-0.4-4.9-1.1-6.5C50.9,1,51.3,4,51.7,4.6z"/>
						<path class="st3" d="M50-4.2v0.7c0,0.1,0,3.5-1.5,4.9c-0.1,0.1-0.4,0.3-0.6,0.2c-0.3-0.3,0.3-2,1.8-5.1L50-4.2z M48.1,1.3
							c0.1,0,0.1-0.1,0.1-0.1c1-0.9,1.3-2.8,1.4-3.8C48.8-0.9,48.1,0.8,48.1,1.3z"/>
						<path class="st3" d="M36.5,4.8l-0.3,0.4c-0.7,1.1-5.2,2.9-6.4,2.4c-0.3-0.1-0.5-0.5-0.3-0.8C29.9,5,35.4,4.9,36,4.8L36.5,4.8z
							 M29.9,7.1C29.9,7.1,30,7.1,29.9,7.1c0.8,0.4,4.1-0.7,5.4-1.7c-2.2,0.1-5.2,0.6-5.4,1.5C29.9,7,29.9,7.1,29.9,7.1z"/>
						<path class="st3" d="M44.1,0.3l-0.5,0.4c-0.1,0.1-2.9,1.8-5.2,0.3c-0.2-0.1-0.7-0.4-0.5-0.8c0.2-0.5,2.1-0.5,5.6,0.1L44.1,0.3
							z M38.4,0.3c0.1,0.1,0.2,0.1,0.2,0.2c1.4,1,3.1,0.5,4,0.1C40.8,0.3,38.9,0.1,38.4,0.3L38.4,0.3z"/>
						<path class="st3" d="M41.2,2.3L41,3c-0.5,1.1-2.9,6.8-4.6,6.6c-0.3,0-0.5-0.2-0.5-0.5c0-0.2-0.2-0.9,2.1-3.7
							c1.1-1.3,2.4-2.7,2.7-2.8L41.2,2.3z M36.3,9C36.3,9,36.4,9.1,36.3,9c1,0.1,2.6-2.6,3.7-5.1C38.6,5.4,36.2,8.3,36.3,9
							C36.3,9,36.3,9,36.3,9z"/>
						<path class="st3" d="M30.4,10.8V11c0,1.7-0.5,2.1-0.8,2.2c-0.3,0.1-0.7,0-0.9-0.3c-0.4-0.5,1.2-1.8,1.5-2L30.4,10.8z M29,12.9
							c0.2,0.2,0.4,0.3,0.6,0.2c0.4-0.1,0.7-0.8,0.7-1.9C29.6,11.7,28.7,12.6,29,12.9C28.9,12.9,29,12.9,29,12.9L29,12.9z"/>
						<path class="st3" d="M30.6,10.6V11c0,1.8-0.5,2.2-0.9,2.4c-0.4,0.1-0.8,0-1-0.4c-0.4-0.6,0.9-1.7,1.6-2.2L30.6,10.6z
							 M29.1,12.8c0.1,0.1,0.3,0.2,0.5,0.1c0.3-0.1,0.5-0.7,0.6-1.5C29.3,12.2,29,12.7,29.1,12.8L29.1,12.8L29.1,12.8z"/>
						<path class="st3" d="M29.9,13L29.9,13c0.6,1.4,0.4,2.1,0,2.4c-0.2,0.2-0.5,0.1-0.7-0.1c-0.3-0.3-0.5-1.1,0.1-2.2l0,0L29.9,13z
							 M29.3,15.2L29.3,15.2c0.2,0.2,0.4,0.2,0.5,0.1c0.3-0.2,0.4-0.9,0-2.1l-0.3,0.1C29,14.2,29,14.9,29.3,15.2z"/>
						<path class="st3" d="M30,12.9L30,13c0.7,1.8,0.2,2.3,0,2.5c-0.3,0.2-0.6,0.2-0.8-0.1c-0.4-0.3-0.6-1.1,0.1-2.3l0-0.1L30,12.9z
							 M29.4,15.1L29.4,15.1c0.1,0.1,0.2,0.1,0.3,0c0.2-0.1,0.4-0.7,0-1.8l-0.1,0C29.1,14.3,29.2,14.8,29.4,15.1L29.4,15.1z"/>
						<path class="st3" d="M29.2,13.1L29.2,13.1c-0.9,1.2-1.6,1.5-2,1.3c-0.2-0.1-0.4-0.4-0.3-0.6c0.1-0.4,0.6-1,1.9-1.1h0
							L29.2,13.1z M27.1,14.1c0,0,0.1,0.1,0.1,0.1c0.3,0.1,1-0.1,1.7-1.1l-0.2-0.2c-1.1,0.1-1.6,0.5-1.7,0.9
							C27,13.9,27,14,27.1,14.1z"/>
						<path class="st3" d="M29.4,13.1l-0.1,0.2c-1.1,1.6-1.9,1.4-2.1,1.3c-0.3-0.1-0.5-0.4-0.4-0.8c0.1-0.5,0.7-1.1,2-1.2h0.1
							L29.4,13.1z M27.2,14.1C27.2,14.1,27.3,14.1,27.2,14.1c0.3,0.1,0.9,0,1.6-0.9L28.7,13c-1,0.1-1.5,0.5-1.5,0.8
							C27.1,13.9,27.1,14,27.2,14.1L27.2,14.1L27.2,14.1z"/>
						<path class="st3" d="M29.4,15.3c0,0.2-0.1,0.3-0.3,0.3c-0.5,0.1-1.5-0.4-1.7-0.9c-0.1-0.2,0-0.4,0.2-0.5l0.1,0.1
							c-0.1,0-0.1,0.2-0.1,0.2c0,0,0,0,0,0c0.2,0.4,1.1,0.9,1.5,0.8c0.1,0,0.1-0.1,0.1-0.2L29.4,15.3z"/>
						<path class="st3" d="M29.5,15.1v0.1c0,0.2-0.2,0.4-0.4,0.5c-0.6,0.1-1.7-0.4-1.9-0.9c-0.1-0.2,0-0.5,0.2-0.6l0.1-0.1l0.2,0.4
							l-0.1,0.1c-0.1,0-0.1,0.1-0.1,0.1c0.1,0.3,1,0.8,1.4,0.7c0,0,0,0,0,0v-0.1l0.1,0L29.5,15.1z"/>
						<path class="st3" d="M56.6-13.8c-0.2,0.4-4.8,9.9-10.7,13.4c-1.1,0.7-2.2,1.3-3.2,1.9c-4.6,2.6-8.9,5-12.3,10L30,11.2
							c3.4-5,7.8-7.5,12.4-10.1c1.1-0.6,2.1-1.2,3.2-1.9C51.4-4.2,56.1-13.9,56.1-14L56.6-13.8z"/>
						<path class="st3" d="M35.3,5.3l0.1,0.2c-0.5,0.2-4.8,1.7-5.5,1.6l0-0.2C30.5,6.9,34,5.7,35.3,5.3z"/>
						<path class="st3" d="M41,2.4c-0.4,1.4-4.4,6.5-4.6,6.7l-0.2-0.2c0-0.1,4.2-5.3,4.6-6.6L41,2.4z"/>
						<path class="st3" d="M43.2,0.6v0.2c-0.2,0-4.3,0.1-5.1-0.5l0.2-0.2C38.8,0.6,42,0.6,43.2,0.6z"/>
						<path class="st3" d="M51.9-7.7l0.1,0.2c-0.1,0-6,3.6-11,4.2l0-0.2C45.9-4.1,51.9-7.7,51.9-7.7z"/>
						<path class="st3" d="M50.5-3.3C50.6-3,52.1,3.2,51.8,5l-0.2,0c0.3-1.7-1.3-8.1-1.3-8.1L50.5-3.3z"/>
						<path class="st3" d="M49.9-3.1c-0.1,0.4-1.2,4.2-1.9,4.6l-0.1-0.2c0.4-0.3,1.3-2.9,1.8-4.5L49.9-3.1z"/>
						<polygon class="st3" points="53.4,-8.8 53.4,-8.6 48,-8.3 47.9,-8.5 						"/>
					</g>
				</g>
			</g>
		</g>
	</g>
</g>
</svg>
