<svg xmlns="http://www.w3.org/2000/svg" viewBox="0 0 499.26 150.77"><defs><style>.cls-1{fill:#fe0000;}</style></defs><g id="Layer_2" data-name="Layer 2"><g id="Layer_1-2" data-name="Layer 1"><path class="cls-1" d="M150.69,75.22,108.07,97.29c.79,2.1,1.53,4,2.25,6q4.77,12.68,9.53,25.35c2.09,5.61,1.89,11-2,15.83-7.09,8.92-21.8,7.51-26.19-3.49-3-7.56-5.77-15.23-8.65-22.85-.79-2.09-1.59-4.16-2.48-6.47-1.44.69-2.73,1.27-4,1.91q-10.65,5.5-21.28,11c-7.59,3.94-15.16,7.9-22.78,11.78a4.43,4.43,0,0,0-2.05,2.49,31.38,31.38,0,0,1-2.74,5.54c-3.69,5.1-8.89,6.91-14.95,5.85a14.65,14.65,0,0,1-11.87-10,13.51,13.51,0,0,1-.08-9.58q2.55-7,5.16-13.91,8.84-23.55,17.68-47.1Q33.22,44.34,42.81,19C44,16,45.17,12.9,46.26,9.82,48.41,3.75,55.52-.28,61.62,0A15.25,15.25,0,0,1,75.21,10.08q9.38,24.77,18.66,49.56,3,8,6,15.9c.16.44.36.87.65,1.54l2.7-1.25a22.47,22.47,0,0,1-2.69-20.71,20.5,20.5,0,0,1,10.82-12c9.32-4.53,24.1-2.87,30.68,12.52,1.06-.51,2.14-1,3.19-1.52,4.4-2.28,8.8-4.56,13.18-6.88a18.92,18.92,0,0,1,26.85,22.42Q178,92.28,170.68,114.85c-1.11,3.41-2.22,6.76-2.18,10.48.09,8.43,8.41,17.12,18.85,15.59,3-.44,6.41-1.87,7.81-3.63-1.74-2-3.54-3.85-5.18-5.87a47.71,47.71,0,0,1-10.85-26.68c-1.21-14.59,2.65-27.67,12.53-38.75A49.12,49.12,0,0,1,223.1,49.32a49.87,49.87,0,0,1,28.27,4.3,48.33,48.33,0,0,1,19.75,16.6A13.84,13.84,0,0,1,273,75.83c1.34,9.35-3.78,16.68-11.74,19.33-3,1-6,.7-9,.44-1.44-.12-1.89-1.09-2.33-2.33-2.64-7.36-7.68-12.3-15.33-14.14a20.26,20.26,0,0,0-16,2.73,21.12,21.12,0,1,0,30.35,26.81,5.05,5.05,0,0,0,.58-1.31c.41-2.74,2.38-2.91,4.59-3a16.89,16.89,0,0,1,11.66,3.52,15.81,15.81,0,0,1,6.54,13,31.8,31.8,0,0,1-.63,5.91c-.8,4.18-3.75,7-6.65,9.72a49.5,49.5,0,0,1-29.89,13.8c-8.7.81-17.24-.13-25.32-3.78a4.33,4.33,0,0,0-4,0,43.29,43.29,0,0,1-18.57,4A43.57,43.57,0,0,1,143.89,113c-.53-3.68-.08-7.49-.26-11.23-.22-4.48,1.86-8.37,3-12.48,1.32-4.59,2.93-9.1,4.41-13.64ZM42.63,106.67l.36.38L73,91.47C69,80.65,64.94,70,60.94,59.42l-.53,0Zm74.44-38,9.27-4.84c-.81-2.38-2.13-3.94-4.53-4.26a5.05,5.05,0,0,0-5.49,2.57C115.13,64.31,115.3,66.42,117.07,68.69Z"/><path class="cls-1" d="M399.13,111.53c0,1.36,0,2.72,0,4.07a34,34,0,0,1-10.33,25,33.23,33.23,0,0,1-23.7,9.88,34.4,34.4,0,0,1-34.79-28.56,42.19,42.19,0,0,1-.57-7.11c-.07-8.87-.13-17.75,0-26.63a12.53,12.53,0,0,0-11.2-12.53,12.39,12.39,0,0,0-13.71,10.59,64.66,64.66,0,0,0-.64,8.57c-.06,13.6-.18,27.2,0,40.8.11,6.44-4.51,12.56-10.16,14.18-9.7,2.77-18.23-2.13-20.22-11.48a11.18,11.18,0,0,1-.16-2.39q0-56.5,0-113c0-7.91,7.25-14.73,14.68-14.68,6,0,10.52,2.19,13.76,7.14a12.86,12.86,0,0,1,2.09,7.25c0,10,0,20,0,30v3.1c2.08-.39,3.92-.81,5.79-1.06C323.6,52.79,335.75,56,346.2,65.22a42.82,42.82,0,0,1,13.72,23.61c.95,4.31.85,8.9.84,13.36,0,9.11-.27,18.23-.42,27.35,0,1.88.42,2.75,2.21,3.16a8.79,8.79,0,0,0,3.95-.1,2.85,2.85,0,0,0,2.22-3.21c-.1-5.12,0-10.24,0-15.36,0-16.72.14-33.44-.06-50.15-.08-7.35,6.74-14.74,14.66-14.68,6,0,10.53,2.12,13.78,7.07a12.33,12.33,0,0,1,2.09,7c0,7.6,0,15.2,0,22.8v2.27c4.31-15.11,13.13-26.52,27.06-33.8a49.58,49.58,0,0,1,30.28-4.89c22.88,3.14,38.06,21,41.5,36.75l-7.3,3.95q-19.56,10.5-39.11,21c-6.76,3.6-13.35,3.1-19.7-1.08-.4-.27-.8-.52-1.59-1a19.92,19.92,0,0,0,1,2c6.07,9.22,17.1,12.59,27.05,7.73,4.59-2.23,8.87-5.09,13.34-7.57,3.28-1.83,6.59-3.62,10-5.25A18.41,18.41,0,0,1,497,105.7c2.32.92,2.59,1.57,2.13,4a50.57,50.57,0,0,1-43.79,40.67c-15,1.63-28.29-2.34-39.72-12.27A49.94,49.94,0,0,1,400,113.1c-.14-.53-.32-1-.48-1.57Zm29.25-8.35c1.82-1.38,3.38-2.74,5.12-3.81,2-1.25,4.21-2.26,6.34-3.35,6.59-3.4,13.19-6.77,19.78-10.17,1-.54,2-1.19,3.08-1.81-5.07-5.23-15-7.13-23-3A20.89,20.89,0,0,0,428.38,103.18Z"/><path class="cls-1" d="M400.51,31.79c0,8.21-5.8,17.09-17.09,17.13-11,0-17.17-8.63-17.15-17.31a17.12,17.12,0,1,1,34.24.18Z"/></g></g></svg>